<?xml version="1.0" encoding="utf-8"?>
<!-- Generator: Adobe Illustrator 24.3.0, SVG Export Plug-In . SVG Version: 6.00 Build 0)  -->
<svg version="1.1" xmlns="http://www.w3.org/2000/svg" xmlns:xlink="http://www.w3.org/1999/xlink" x="0px" y="0px"
	 viewBox="0 0 255.12 141.73" style="enable-background:new 0 0 255.12 141.73;" xml:space="preserve">
<style type="text/css">
	.st0{display:none;}
	.st1{clip-path:url(#SVGID_2_);fill:url(#SVGID_3_);}
	.st2{clip-path:url(#SVGID_2_);}
	.st3{fill:#FFFFFF;}
	.st4{font-family:'Gulim';}
	.st5{font-size:12px;}
	.st6{fill:#570F16;}
	.st7{font-family:'DotumChe';}
	.st8{clip-path:url(#SVGID_2_);fill:url(#SVGID_4_);}
	.st9{clip-path:url(#SVGID_2_);fill:url(#SVGID_5_);}
	.st10{clip-path:url(#SVGID_2_);fill:url(#SVGID_6_);}
	.st11{fill:url(#SVGID_7_);stroke:#FBF1EF;stroke-width:0.75;stroke-miterlimit:10;}
	.st12{fill:url(#SVGID_8_);stroke:#FBF1EF;stroke-width:0.75;stroke-miterlimit:10;}
	.st13{fill:url(#SVGID_9_);stroke:#FBF1EF;stroke-width:0.75;stroke-miterlimit:10;}
	.st14{fill:url(#SVGID_10_);stroke:#FBF1EF;stroke-width:0.75;stroke-miterlimit:10;}
	.st15{fill:url(#SVGID_11_);stroke:#FBF1EF;stroke-width:0.75;stroke-miterlimit:10;}
	.st16{fill:url(#SVGID_12_);stroke:#FBF1EF;stroke-width:0.75;stroke-miterlimit:10;}
	.st17{fill:url(#SVGID_13_);stroke:#FBF1EF;stroke-width:0.75;stroke-miterlimit:10;}
	.st18{fill:url(#SVGID_14_);stroke:#FBF1EF;stroke-width:0.75;stroke-miterlimit:10;}
	.st19{fill:url(#SVGID_15_);stroke:#FBF1EF;stroke-width:0.75;stroke-miterlimit:10;}
	.st20{fill:url(#SVGID_16_);stroke:#FBF1EF;stroke-width:0.75;stroke-miterlimit:10;}
	.st21{fill:url(#SVGID_17_);stroke:#FBF1EF;stroke-width:0.75;stroke-miterlimit:10;}
	.st22{fill:url(#SVGID_18_);stroke:#FBF1EF;stroke-width:0.75;stroke-miterlimit:10;}
	.st23{fill:url(#SVGID_19_);stroke:#FBF1EF;stroke-width:0.75;stroke-miterlimit:10;}
	.st24{fill:url(#SVGID_20_);stroke:#FBF1EF;stroke-width:0.75;stroke-miterlimit:10;}
	.st25{fill:url(#SVGID_21_);stroke:#FBF1EF;stroke-width:0.75;stroke-miterlimit:10;}
	.st26{fill:url(#SVGID_22_);stroke:#FBF1EF;stroke-width:0.75;stroke-miterlimit:10;}
	.st27{fill:url(#SVGID_23_);stroke:#FBF1EF;stroke-width:0.75;stroke-miterlimit:10;}
	.st28{fill:url(#SVGID_24_);stroke:#FBF1EF;stroke-width:0.75;stroke-miterlimit:10;}
	.st29{fill:url(#SVGID_25_);stroke:#FBF1EF;stroke-width:0.75;stroke-miterlimit:10;}
	.st30{fill:url(#SVGID_26_);stroke:#FBF1EF;stroke-width:0.75;stroke-miterlimit:10;}
	.st31{fill:url(#SVGID_27_);stroke:#FBF1EF;stroke-width:0.75;stroke-miterlimit:10;}
	.st32{fill:url(#SVGID_28_);stroke:#FBF1EF;stroke-width:0.75;stroke-miterlimit:10;}
	.st33{fill:url(#SVGID_29_);stroke:#FBF1EF;stroke-width:0.75;stroke-miterlimit:10;}
	.st34{fill:url(#SVGID_30_);stroke:#FBF1EF;stroke-width:0.75;stroke-miterlimit:10;}
	.st35{fill:url(#SVGID_31_);stroke:#FBF1EF;stroke-width:0.75;stroke-miterlimit:10;}
	.st36{fill:url(#SVGID_32_);stroke:#FBF1EF;stroke-width:0.75;stroke-miterlimit:10;}
	.st37{fill:url(#SVGID_33_);stroke:#FBF1EF;stroke-width:0.75;stroke-miterlimit:10;}
	.st38{fill:url(#SVGID_34_);stroke:#FBF1EF;stroke-width:0.75;stroke-miterlimit:10;}
	.st39{fill:url(#SVGID_35_);stroke:#FBF1EF;stroke-width:0.75;stroke-miterlimit:10;}
	.st40{fill:url(#SVGID_36_);stroke:#FBF1EF;stroke-width:0.75;stroke-miterlimit:10;}
	.st41{fill:url(#SVGID_37_);stroke:#FBF1EF;stroke-width:0.75;stroke-miterlimit:10;}
	.st42{fill:url(#SVGID_38_);stroke:#FBF1EF;stroke-width:0.75;stroke-miterlimit:10;}
	.st43{fill:url(#SVGID_39_);stroke:#FBF1EF;stroke-width:0.75;stroke-miterlimit:10;}
	.st44{fill:url(#SVGID_40_);stroke:#FBF1EF;stroke-width:0.75;stroke-miterlimit:10;}
	.st45{fill:url(#SVGID_41_);stroke:#FBF1EF;stroke-width:0.75;stroke-miterlimit:10;}
	.st46{fill:url(#SVGID_42_);stroke:#FBF1EF;stroke-width:0.75;stroke-miterlimit:10;}
	.st47{fill:url(#SVGID_43_);stroke:#FBF1EF;stroke-width:0.75;stroke-miterlimit:10;}
	.st48{fill:url(#SVGID_44_);stroke:#FBF1EF;stroke-width:0.75;stroke-miterlimit:10;}
	.st49{fill:url(#SVGID_45_);stroke:#FBF1EF;stroke-width:0.75;stroke-miterlimit:10;}
	.st50{fill:url(#SVGID_46_);stroke:#FBF1EF;stroke-width:0.75;stroke-miterlimit:10;}
	.st51{fill:url(#SVGID_47_);stroke:#FBF1EF;stroke-width:0.75;stroke-miterlimit:10;}
	.st52{fill:url(#SVGID_48_);stroke:#FBF1EF;stroke-width:0.75;stroke-miterlimit:10;}
	.st53{fill:url(#SVGID_49_);stroke:#FBF1EF;stroke-width:0.75;stroke-miterlimit:10;}
	.st54{fill:url(#SVGID_50_);stroke:#FBF1EF;stroke-width:0.75;stroke-miterlimit:10;}
	.st55{fill:url(#SVGID_51_);stroke:#FBF1EF;stroke-width:0.75;stroke-miterlimit:10;}
	.st56{fill:url(#SVGID_52_);stroke:#FBF1EF;stroke-width:0.75;stroke-miterlimit:10;}
	.st57{fill:url(#SVGID_53_);stroke:#FBF1EF;stroke-width:0.75;stroke-miterlimit:10;}
	.st58{fill:url(#SVGID_54_);stroke:#FBF1EF;stroke-width:0.75;stroke-miterlimit:10;}
	.st59{fill:url(#SVGID_55_);stroke:#FBF1EF;stroke-width:0.75;stroke-miterlimit:10;}
	.st60{fill:url(#SVGID_56_);stroke:#FBF1EF;stroke-width:0.75;stroke-miterlimit:10;}
	.st61{fill:url(#SVGID_57_);stroke:#FBF1EF;stroke-width:0.75;stroke-miterlimit:10;}
	.st62{fill:url(#SVGID_58_);stroke:#FBF1EF;stroke-width:0.75;stroke-miterlimit:10;}
	.st63{fill:url(#SVGID_59_);stroke:#FBF1EF;stroke-width:0.75;stroke-miterlimit:10;}
	.st64{fill:url(#SVGID_60_);stroke:#FBF1EF;stroke-width:0.75;stroke-miterlimit:10;}
	.st65{fill:url(#SVGID_61_);stroke:#FBF1EF;stroke-width:0.75;stroke-miterlimit:10;}
	.st66{fill:url(#SVGID_62_);stroke:#FBF1EF;stroke-width:0.75;stroke-miterlimit:10;}
	.st67{clip-path:url(#SVGID_2_);fill:url(#SVGID_63_);}
	.st68{clip-path:url(#SVGID_2_);fill:url(#SVGID_64_);stroke:#FBF1EF;stroke-width:0.75;stroke-miterlimit:10;}
	.st69{clip-path:url(#SVGID_2_);fill:#F4EFEE;stroke:#FBF1EF;stroke-miterlimit:10;}
	.st70{display:inline;fill:none;stroke:#E61A15;stroke-miterlimit:10;}
</style>
<g id="Layer_1">
	<rect x="-6" y="-6" class="st0" width="28.35" height="28.35"/>
	<rect x="232.11" y="118.72" class="st0" width="28.35" height="28.35"/>
	<g>
		<defs>
			<rect id="SVGID_1_" x="-8.1" y="-5.59" width="269.29" height="155.91"/>
		</defs>
		<clipPath id="SVGID_2_">
			<use xlink:href="#SVGID_1_"  style="overflow:visible;"/>
		</clipPath>
		<linearGradient id="SVGID_3_" gradientUnits="userSpaceOnUse" x1="-7" y1="70.9528" x2="262.2913" y2="70.9528">
			<stop  offset="0.1718" style="stop-color:#050D27"/>
			<stop  offset="0.2749" style="stop-color:#11132D"/>
			<stop  offset="0.4715" style="stop-color:#2F1A3C"/>
			<stop  offset="0.6413" style="stop-color:#4B2049"/>
		</linearGradient>
		<rect x="-7" y="-7" class="st1" width="269.29" height="155.91"/>
		<g class="st2">
			<path class="st3" d="M27.5,84.23c0.07-0.07,0.15-0.11,0.26-0.12c0.11-0.01,0.2,0.02,0.29,0.07c0.09,0.06,0.15,0.14,0.19,0.24
				l0.19,0.56l1.67,5.09l1.69-5.11l0.17-0.52c0.03-0.11,0.1-0.2,0.19-0.26c0.09-0.05,0.19-0.07,0.29-0.06
				c0.1,0.01,0.19,0.04,0.25,0.11c0.08,0.08,0.12,0.18,0.12,0.31v6.06c0,0.09-0.03,0.16-0.08,0.21c-0.05,0.05-0.11,0.07-0.19,0.07
				c-0.07,0-0.13-0.02-0.19-0.07c-0.05-0.05-0.08-0.12-0.08-0.21v-5.58l-1.8,5.54c-0.09,0.22-0.22,0.33-0.38,0.33
				c-0.16,0-0.28-0.11-0.37-0.33l-1.8-5.54v5.58c0,0.09-0.03,0.16-0.08,0.21c-0.05,0.05-0.11,0.07-0.18,0.07
				c-0.07,0-0.14-0.02-0.19-0.07c-0.05-0.05-0.08-0.12-0.08-0.21v-6.06C27.39,84.41,27.43,84.31,27.5,84.23z"/>
			<path class="st3" d="M34.4,89.9c0.09,0.09,0.13,0.21,0.13,0.35c0,0.13-0.04,0.24-0.13,0.33c-0.09,0.11-0.22,0.16-0.37,0.16
				c-0.16,0-0.29-0.05-0.38-0.16c-0.08-0.09-0.12-0.21-0.12-0.33c0-0.14,0.04-0.26,0.12-0.35c0.09-0.1,0.22-0.15,0.38-0.15
				C34.19,89.75,34.31,89.8,34.4,89.9z"/>
			<path class="st3" d="M42.48,85.15c0.33,0.63,0.49,1.41,0.49,2.34c0,0.92-0.16,1.7-0.49,2.33c-0.36,0.7-0.85,1.05-1.46,1.05
				c-0.62,0-1.11-0.35-1.47-1.05c-0.32-0.63-0.48-1.41-0.48-2.33c0-0.93,0.16-1.71,0.48-2.34c0.36-0.7,0.85-1.05,1.47-1.05
				C41.63,84.11,42.12,84.46,42.48,85.15z M39.95,85.5c-0.23,0.54-0.35,1.21-0.35,2c0,0.79,0.12,1.45,0.35,1.99
				c0.26,0.6,0.62,0.9,1.07,0.9c0.44,0,0.8-0.3,1.06-0.9c0.24-0.54,0.35-1.2,0.35-1.99c0-0.8-0.12-1.46-0.35-2
				c-0.26-0.6-0.62-0.9-1.06-0.9C40.56,84.6,40.21,84.9,39.95,85.5z"/>
			<path class="st3" d="M44.74,85.47c-0.01-0.13,0.06-0.2,0.19-0.2c0.32,0,0.55-0.06,0.72-0.19c0.19-0.15,0.3-0.4,0.31-0.75
				c0.01-0.14,0.08-0.21,0.23-0.22c0.15-0.01,0.22,0.07,0.22,0.22v6.23c0,0.1-0.03,0.18-0.08,0.24c-0.05,0.06-0.11,0.09-0.18,0.09
				c-0.07-0.01-0.14-0.04-0.19-0.09c-0.05-0.06-0.08-0.15-0.08-0.25v-4.88h-0.93C44.82,85.67,44.75,85.6,44.74,85.47z"/>
			<path class="st3" d="M52.46,85.15c0.33,0.63,0.49,1.41,0.49,2.34c0,0.92-0.16,1.7-0.49,2.33c-0.36,0.7-0.85,1.05-1.46,1.05
				c-0.62,0-1.11-0.35-1.47-1.05c-0.32-0.63-0.48-1.41-0.48-2.33c0-0.93,0.16-1.71,0.48-2.34c0.36-0.7,0.85-1.05,1.47-1.05
				C51.61,84.11,52.09,84.46,52.46,85.15z M49.92,85.5c-0.23,0.54-0.35,1.21-0.35,2c0,0.79,0.12,1.45,0.35,1.99
				c0.26,0.6,0.62,0.9,1.07,0.9c0.44,0,0.8-0.3,1.06-0.9c0.24-0.54,0.35-1.2,0.35-1.99c0-0.8-0.12-1.46-0.35-2
				c-0.26-0.6-0.62-0.9-1.06-0.9C50.54,84.6,50.18,84.9,49.92,85.5z"/>
			<path class="st3" d="M58.33,87.48c0,0.16-0.07,0.25-0.21,0.25h-3.85c-0.13,0-0.2-0.08-0.2-0.25c-0.01-0.16,0.06-0.24,0.2-0.24
				h3.85C58.26,87.24,58.33,87.32,58.33,87.48z"/>
			<path class="st3" d="M62.98,86.74c-0.15,0.21-0.33,0.35-0.54,0.44c0.3,0.15,0.54,0.37,0.73,0.67c0.2,0.32,0.29,0.67,0.29,1.05
				c0,0.53-0.17,0.98-0.52,1.35c-0.38,0.41-0.89,0.62-1.53,0.62c-0.63,0-1.14-0.21-1.52-0.62c-0.34-0.38-0.51-0.83-0.51-1.35
				c0-0.39,0.09-0.73,0.27-1.04c0.17-0.29,0.42-0.52,0.73-0.69c-0.2-0.09-0.38-0.23-0.52-0.44c-0.19-0.26-0.29-0.58-0.29-0.96
				c0-0.45,0.15-0.83,0.46-1.15c0.35-0.35,0.81-0.52,1.38-0.52c0.57,0,1.03,0.17,1.38,0.52c0.31,0.32,0.47,0.7,0.47,1.15
				C63.27,86.15,63.17,86.47,62.98,86.74z M60.28,87.9c-0.26,0.28-0.39,0.62-0.39,1.02c0,0.4,0.13,0.74,0.39,1.01
				c0.28,0.3,0.66,0.46,1.14,0.46c0.47,0,0.85-0.15,1.14-0.46c0.26-0.28,0.4-0.61,0.4-1.01c0-0.4-0.13-0.74-0.4-1.02
				c-0.29-0.3-0.67-0.46-1.14-0.46C60.94,87.44,60.56,87.59,60.28,87.9z M60.42,84.96c-0.23,0.22-0.34,0.5-0.34,0.82
				s0.11,0.59,0.34,0.81c0.25,0.25,0.58,0.37,1,0.37c0.42,0,0.75-0.12,1-0.37c0.23-0.22,0.35-0.49,0.35-0.81s-0.12-0.59-0.35-0.82
				c-0.25-0.24-0.59-0.36-1-0.36C61,84.6,60.67,84.72,60.42,84.96z"/>
			<path class="st3" d="M64.51,84.49c0-0.16,0.08-0.24,0.24-0.24h3.35c0.15,0,0.26,0.06,0.31,0.18c0.06,0.12,0.03,0.25-0.08,0.37
				c-0.43,0.47-0.87,1.16-1.3,2.07c-0.58,1.21-0.94,2.43-1.09,3.66c-0.02,0.11-0.06,0.2-0.13,0.26c-0.06,0.05-0.13,0.08-0.21,0.07
				c-0.08-0.01-0.14-0.04-0.19-0.11c-0.05-0.07-0.07-0.16-0.05-0.26c0.1-0.76,0.35-1.68,0.76-2.75c0.48-1.24,1.02-2.24,1.62-3.01h-3
				C64.59,84.74,64.51,84.66,64.51,84.49z"/>
			<path class="st3" d="M72.77,84.66c0.3,0.33,0.46,0.73,0.46,1.21c0,0.53-0.14,0.96-0.41,1.28c-0.17,0.21-0.54,0.5-1.09,0.86
				l-0.17,0.12c-0.6,0.39-1,0.74-1.22,1.05c-0.19,0.27-0.31,0.62-0.35,1.04h3.13c0.07,0,0.13,0.02,0.18,0.07
				c0.04,0.05,0.07,0.11,0.07,0.18c0,0.06-0.02,0.12-0.07,0.17c-0.05,0.05-0.1,0.08-0.18,0.08h-3.69c-0.01-0.64,0.14-1.2,0.45-1.68
				c0.28-0.43,0.71-0.83,1.3-1.2c0.56-0.36,0.94-0.66,1.14-0.88c0.25-0.3,0.38-0.66,0.38-1.09c0-0.35-0.11-0.64-0.32-0.88
				c-0.24-0.26-0.57-0.4-0.97-0.4c-0.41,0-0.73,0.13-0.96,0.4c-0.21,0.23-0.32,0.53-0.32,0.88v0.25c0,0.09-0.03,0.16-0.08,0.21
				c-0.05,0.05-0.11,0.08-0.19,0.08c-0.07,0-0.13-0.03-0.19-0.08c-0.05-0.06-0.08-0.14-0.08-0.24v-0.23c0-0.48,0.15-0.88,0.45-1.21
				c0.34-0.37,0.79-0.55,1.37-0.55C71.97,84.11,72.42,84.29,72.77,84.66z"/>
			<path class="st3" d="M77.97,84.33c0.05,0.05,0.08,0.11,0.08,0.18c0,0.06-0.02,0.12-0.07,0.17c-0.06,0.05-0.13,0.08-0.21,0.08
				h-2.25l-0.32,2.18c0.15-0.16,0.33-0.28,0.53-0.35c0.21-0.08,0.45-0.12,0.7-0.12c0.6,0,1.08,0.23,1.43,0.69
				c0.32,0.41,0.48,0.92,0.48,1.53c0,0.62-0.16,1.13-0.47,1.52c-0.37,0.46-0.91,0.69-1.62,0.69c-0.47,0-0.87-0.11-1.21-0.34
				c-0.34-0.23-0.55-0.54-0.62-0.92c-0.02-0.09-0.01-0.16,0.03-0.23c0.04-0.06,0.1-0.11,0.17-0.12c0.07-0.02,0.13-0.01,0.19,0.03
				c0.07,0.04,0.11,0.1,0.13,0.19c0.06,0.27,0.2,0.49,0.42,0.65c0.24,0.17,0.54,0.25,0.92,0.25c0.47,0,0.84-0.18,1.13-0.53
				c0.26-0.33,0.4-0.72,0.4-1.19c0-0.47-0.12-0.87-0.37-1.2c-0.28-0.35-0.64-0.53-1.1-0.53c-0.26,0-0.51,0.06-0.73,0.18
				c-0.18,0.11-0.33,0.25-0.44,0.43c-0.11,0.17-0.24,0.23-0.37,0.17c-0.14-0.06-0.19-0.19-0.15-0.37l0.44-3.1h2.69
				C77.85,84.26,77.92,84.28,77.97,84.33z"/>
			<path class="st3" d="M83.7,87.48c0,0.16-0.07,0.25-0.21,0.25h-3.85c-0.13,0-0.2-0.08-0.2-0.25c-0.01-0.16,0.06-0.24,0.2-0.24
				h3.85C83.63,87.24,83.7,87.32,83.7,87.48z"/>
			<path class="st3" d="M88.38,84.33c0.05,0.05,0.08,0.11,0.08,0.18c0,0.06-0.02,0.12-0.07,0.17c-0.06,0.05-0.13,0.08-0.21,0.08
				h-2.25l-0.32,2.18c0.15-0.16,0.33-0.28,0.53-0.35c0.21-0.08,0.45-0.12,0.7-0.12c0.6,0,1.08,0.23,1.43,0.69
				c0.32,0.41,0.48,0.92,0.48,1.53c0,0.62-0.16,1.13-0.47,1.52c-0.37,0.46-0.91,0.69-1.62,0.69c-0.47,0-0.87-0.11-1.21-0.34
				c-0.34-0.23-0.55-0.54-0.62-0.92c-0.02-0.09-0.01-0.16,0.03-0.23c0.04-0.06,0.1-0.11,0.17-0.12c0.07-0.02,0.13-0.01,0.19,0.03
				c0.07,0.04,0.11,0.1,0.13,0.19c0.06,0.27,0.2,0.49,0.42,0.65c0.24,0.17,0.54,0.25,0.92,0.25c0.47,0,0.84-0.18,1.13-0.53
				c0.26-0.33,0.4-0.72,0.4-1.19c0-0.47-0.12-0.87-0.37-1.2c-0.28-0.35-0.64-0.53-1.11-0.53c-0.26,0-0.51,0.06-0.73,0.18
				c-0.18,0.11-0.33,0.25-0.44,0.43c-0.11,0.17-0.24,0.23-0.37,0.17c-0.14-0.06-0.19-0.19-0.15-0.37l0.44-3.1h2.69
				C88.26,84.26,88.33,84.28,88.38,84.33z"/>
			<path class="st3" d="M93.15,84.66c0.3,0.33,0.46,0.73,0.46,1.21c0,0.53-0.14,0.96-0.41,1.28c-0.17,0.21-0.54,0.5-1.09,0.86
				l-0.17,0.12c-0.6,0.39-1,0.74-1.22,1.05c-0.19,0.27-0.31,0.62-0.35,1.04h3.13c0.07,0,0.13,0.02,0.18,0.07
				c0.04,0.05,0.07,0.11,0.07,0.18c0,0.06-0.02,0.12-0.07,0.17c-0.05,0.05-0.1,0.08-0.18,0.08h-3.69c-0.01-0.64,0.14-1.2,0.45-1.68
				c0.28-0.43,0.71-0.83,1.3-1.2c0.56-0.36,0.94-0.66,1.14-0.88c0.25-0.3,0.38-0.66,0.38-1.09c0-0.35-0.11-0.64-0.32-0.88
				c-0.24-0.26-0.57-0.4-0.97-0.4c-0.41,0-0.73,0.13-0.96,0.4c-0.21,0.23-0.32,0.53-0.32,0.88v0.25c0,0.09-0.03,0.16-0.08,0.21
				c-0.05,0.05-0.11,0.08-0.19,0.08c-0.07,0-0.13-0.03-0.19-0.08c-0.05-0.06-0.08-0.14-0.08-0.24v-0.23c0-0.48,0.15-0.88,0.45-1.21
				c0.34-0.37,0.79-0.55,1.37-0.55C92.36,84.11,92.81,84.29,93.15,84.66z"/>
			<path class="st3" d="M98.35,84.33c0.05,0.05,0.08,0.11,0.08,0.18c0,0.06-0.02,0.12-0.07,0.17c-0.06,0.05-0.13,0.08-0.21,0.08
				H95.9l-0.32,2.18c0.15-0.16,0.33-0.28,0.53-0.35c0.21-0.08,0.45-0.12,0.7-0.12c0.6,0,1.08,0.23,1.43,0.69
				c0.32,0.41,0.48,0.92,0.48,1.53c0,0.62-0.16,1.13-0.47,1.52c-0.37,0.46-0.91,0.69-1.62,0.69c-0.47,0-0.87-0.11-1.21-0.34
				c-0.34-0.23-0.55-0.54-0.62-0.92c-0.02-0.09-0.01-0.16,0.03-0.23c0.04-0.06,0.1-0.11,0.17-0.12c0.07-0.02,0.13-0.01,0.19,0.03
				c0.07,0.04,0.11,0.1,0.13,0.19c0.06,0.27,0.2,0.49,0.42,0.65c0.24,0.17,0.54,0.25,0.92,0.25c0.47,0,0.84-0.18,1.13-0.53
				c0.26-0.33,0.4-0.72,0.4-1.19c0-0.47-0.12-0.87-0.37-1.2c-0.28-0.35-0.64-0.53-1.11-0.53c-0.26,0-0.51,0.06-0.73,0.18
				c-0.18,0.11-0.33,0.25-0.44,0.43c-0.11,0.17-0.24,0.23-0.37,0.17c-0.14-0.06-0.19-0.19-0.15-0.37l0.44-3.1h2.69
				C98.23,84.26,98.3,84.28,98.35,84.33z"/>
			<path class="st3" d="M103.05,84.64c0.3,0.33,0.46,0.73,0.46,1.2c0,0.38-0.1,0.7-0.31,0.98c-0.15,0.21-0.32,0.36-0.5,0.44
				c0.25,0.11,0.46,0.29,0.65,0.54c0.24,0.33,0.36,0.71,0.36,1.14c0,0.52-0.17,0.96-0.51,1.33c-0.37,0.4-0.85,0.61-1.46,0.61
				c-0.62,0-1.12-0.2-1.48-0.61c-0.33-0.36-0.49-0.81-0.49-1.33v-0.18c0-0.09,0.03-0.16,0.08-0.2c0.05-0.04,0.11-0.06,0.19-0.06
				c0.07,0,0.13,0.02,0.18,0.06c0.06,0.05,0.08,0.11,0.08,0.2v0.19c0,0.38,0.12,0.71,0.35,0.98c0.27,0.3,0.63,0.46,1.09,0.46
				c0.46,0,0.82-0.15,1.09-0.46c0.24-0.27,0.36-0.59,0.36-0.98c0-0.4-0.12-0.73-0.36-0.99c-0.27-0.29-0.63-0.43-1.09-0.43h-0.29
				c-0.16,0-0.24-0.08-0.24-0.25c0-0.16,0.08-0.24,0.24-0.24h0.24c0.41,0,0.72-0.12,0.95-0.37c0.22-0.23,0.33-0.51,0.33-0.83
				c0-0.34-0.11-0.63-0.33-0.86c-0.24-0.25-0.55-0.38-0.95-0.38c-0.41,0-0.73,0.13-0.97,0.38c-0.21,0.23-0.31,0.52-0.31,0.86
				c0,0.09-0.03,0.16-0.08,0.22c-0.04,0.05-0.1,0.07-0.17,0.07c-0.07,0-0.13-0.02-0.18-0.07c-0.05-0.06-0.08-0.13-0.08-0.22
				c0-0.47,0.15-0.87,0.45-1.2c0.33-0.36,0.78-0.54,1.35-0.54C102.26,84.11,102.72,84.29,103.05,84.64z"/>
		</g>
		<g class="st2">
			<g>
				<path class="st3" d="M32.88,100.08c0.06,0.05,0.09,0.11,0.09,0.18c0,0.06-0.03,0.12-0.09,0.17c-0.07,0.05-0.16,0.08-0.27,0.08
					h-4.09c-0.17,0-0.3,0.04-0.39,0.12c-0.08,0.07-0.12,0.16-0.12,0.27v1.99h4.19c0.12,0,0.21,0.02,0.28,0.07
					c0.06,0.05,0.09,0.11,0.09,0.18c0,0.06-0.03,0.12-0.09,0.17c-0.07,0.05-0.16,0.08-0.28,0.08h-4.19v2.22
					c0,0.11,0.04,0.19,0.12,0.26c0.09,0.08,0.22,0.12,0.39,0.12h4.24c0.12,0,0.21,0.02,0.28,0.07c0.06,0.05,0.09,0.11,0.09,0.18
					c0,0.06-0.03,0.12-0.09,0.17c-0.07,0.05-0.16,0.08-0.28,0.08H28.4c-0.35,0-0.63-0.09-0.83-0.26c-0.18-0.16-0.27-0.35-0.27-0.58
					v-4.77c0-0.23,0.09-0.43,0.27-0.59c0.2-0.18,0.48-0.26,0.83-0.26h4.21C32.72,100.01,32.81,100.03,32.88,100.08z"/>
				<path class="st3" d="M35.76,105.78c0.09,0.09,0.13,0.21,0.13,0.35c0,0.13-0.04,0.24-0.13,0.33c-0.09,0.11-0.22,0.16-0.37,0.16
					c-0.16,0-0.29-0.05-0.38-0.16c-0.08-0.09-0.12-0.21-0.12-0.33c0-0.14,0.04-0.26,0.12-0.35c0.09-0.1,0.22-0.15,0.38-0.15
					C35.54,105.63,35.67,105.68,35.76,105.78z"/>
				<path class="st3" d="M45.52,106.53c-0.01,0.09-0.04,0.17-0.1,0.22c-0.05,0.04-0.12,0.06-0.2,0.06c-0.07-0.01-0.14-0.03-0.2-0.08
					c-0.06-0.05-0.08-0.12-0.08-0.2v-0.38c-0.14,0.21-0.34,0.38-0.6,0.52c-0.3,0.16-0.64,0.24-1.02,0.24
					c-0.71,0-1.27-0.26-1.67-0.78c-0.35-0.46-0.53-1.03-0.53-1.72c0-0.7,0.18-1.27,0.53-1.73c0.4-0.52,0.95-0.77,1.67-0.77
					c0.35,0,0.66,0.06,0.92,0.19c0.27,0.13,0.5,0.33,0.69,0.61v-2.29c0-0.09,0.03-0.16,0.08-0.21c0.06-0.04,0.12-0.06,0.2-0.06
					c0.07,0,0.14,0.02,0.2,0.07c0.06,0.05,0.09,0.13,0.09,0.22V106.53z M42.1,103c-0.25,0.37-0.38,0.83-0.38,1.4
					c0,0.56,0.13,1.02,0.38,1.39c0.29,0.42,0.7,0.62,1.23,0.62c0.52,0,0.93-0.21,1.22-0.62c0.26-0.37,0.39-0.83,0.39-1.39
					c0-0.56-0.13-1.03-0.39-1.4c-0.29-0.42-0.7-0.62-1.22-0.62C42.81,102.38,42.4,102.59,42.1,103z"/>
				<path class="st3" d="M51.03,106.74c-0.06,0.05-0.12,0.07-0.21,0.07c-0.08,0-0.15-0.02-0.21-0.07c-0.06-0.05-0.08-0.12-0.08-0.2
					v-0.39c-0.2,0.22-0.43,0.39-0.68,0.51c-0.3,0.15-0.62,0.23-0.98,0.23c-0.49,0-0.88-0.15-1.17-0.44
					c-0.26-0.26-0.39-0.58-0.39-0.95v-3.36c0-0.1,0.03-0.18,0.08-0.23c0.06-0.05,0.12-0.08,0.2-0.08c0.07,0,0.14,0.03,0.2,0.08
					c0.06,0.05,0.09,0.13,0.09,0.23v3.36c0,0.24,0.08,0.45,0.25,0.62c0.18,0.19,0.43,0.28,0.74,0.28c0.32,0,0.62-0.08,0.9-0.25
					c0.27-0.15,0.52-0.38,0.75-0.67v-3.33c0-0.1,0.03-0.18,0.08-0.23c0.06-0.05,0.12-0.08,0.21-0.08c0.08,0,0.15,0.03,0.21,0.08
					c0.06,0.05,0.09,0.13,0.09,0.23v4.39C51.13,106.62,51.1,106.69,51.03,106.74z"/>
				<path class="st3" d="M56.58,102.02c0.06-0.04,0.12-0.06,0.2-0.06c0.08,0,0.15,0.02,0.21,0.06c0.06,0.05,0.09,0.11,0.09,0.19
					v4.28c0,0.41-0.18,0.75-0.54,1.03c-0.4,0.32-0.96,0.47-1.67,0.47c-0.5,0-0.91-0.07-1.25-0.22c-0.35-0.15-0.61-0.37-0.77-0.66
					c-0.05-0.08-0.06-0.15-0.03-0.22c0.02-0.06,0.06-0.11,0.14-0.15c0.07-0.04,0.14-0.05,0.21-0.04c0.07,0.01,0.13,0.05,0.18,0.12
					c0.11,0.22,0.29,0.38,0.52,0.49c0.25,0.12,0.59,0.18,1.02,0.18c0.53,0,0.93-0.11,1.22-0.32c0.26-0.19,0.39-0.42,0.39-0.69v-0.52
					c-0.13,0.21-0.33,0.38-0.59,0.52c-0.3,0.16-0.65,0.24-1.02,0.24c-0.71,0-1.27-0.25-1.67-0.75c-0.35-0.44-0.53-1-0.53-1.68
					c0-0.66,0.18-1.21,0.53-1.67c0.4-0.51,0.96-0.76,1.67-0.76c0.35,0,0.66,0.06,0.93,0.19c0.26,0.13,0.49,0.34,0.68,0.61v-0.47
					C56.5,102.13,56.52,102.07,56.58,102.02z M53.65,102.98c-0.25,0.36-0.38,0.81-0.38,1.33c0,0.55,0.13,1,0.38,1.35
					c0.29,0.39,0.7,0.59,1.23,0.59c0.53,0,0.94-0.2,1.23-0.59c0.26-0.35,0.39-0.8,0.39-1.35c0-0.52-0.13-0.96-0.39-1.33
					c-0.3-0.41-0.71-0.62-1.23-0.62C54.35,102.36,53.94,102.57,53.65,102.98z"/>
				<path class="st3" d="M59.64,100.26c0.08,0.09,0.12,0.2,0.12,0.33c0,0.12-0.04,0.22-0.12,0.31c-0.09,0.09-0.2,0.14-0.34,0.14
					c-0.15,0-0.26-0.05-0.34-0.14c-0.07-0.08-0.11-0.18-0.11-0.31c0-0.13,0.04-0.24,0.11-0.33c0.08-0.09,0.2-0.14,0.34-0.14
					C59.44,100.12,59.55,100.17,59.64,100.26z M59.09,101.94c0.06-0.05,0.12-0.07,0.21-0.07c0.08,0,0.15,0.02,0.21,0.06
					c0.06,0.05,0.09,0.11,0.09,0.19v4.47c0,0.09-0.03,0.16-0.09,0.21c-0.06,0.05-0.12,0.08-0.21,0.08c-0.08,0-0.15-0.02-0.21-0.07
					c-0.06-0.06-0.08-0.13-0.08-0.22v-4.47C59.01,102.04,59.04,101.98,59.09,101.94z"/>
				<path class="st3" d="M64.95,101.17c0.36,0.63,0.54,1.41,0.54,2.34c0,0.92-0.18,1.7-0.54,2.33c-0.4,0.7-0.93,1.05-1.61,1.05
					c-0.68,0-1.22-0.35-1.62-1.05c-0.35-0.63-0.53-1.41-0.53-2.33c0-0.93,0.18-1.71,0.53-2.34c0.4-0.7,0.94-1.05,1.62-1.05
					C64.01,100.12,64.55,100.47,64.95,101.17z M62.15,101.51c-0.25,0.54-0.38,1.21-0.38,2c0,0.79,0.13,1.45,0.38,1.99
					c0.29,0.6,0.68,0.9,1.18,0.9c0.49,0,0.88-0.3,1.17-0.9c0.26-0.54,0.39-1.2,0.39-1.99c0-0.8-0.13-1.46-0.39-2
					c-0.29-0.6-0.68-0.9-1.17-0.9C62.83,100.61,62.44,100.91,62.15,101.51z"/>
				<path class="st3" d="M70.45,100.66c0.34,0.33,0.5,0.73,0.5,1.2c0,0.38-0.11,0.7-0.34,0.98c-0.17,0.21-0.35,0.36-0.55,0.44
					c0.27,0.11,0.51,0.29,0.72,0.54c0.27,0.33,0.4,0.71,0.4,1.14c0,0.52-0.19,0.96-0.56,1.33c-0.4,0.4-0.94,0.61-1.61,0.61
					c-0.69,0-1.23-0.2-1.63-0.61c-0.36-0.36-0.54-0.81-0.54-1.33v-0.18c0-0.09,0.03-0.16,0.08-0.2c0.06-0.04,0.12-0.06,0.2-0.06
					c0.07,0,0.14,0.02,0.2,0.06c0.06,0.05,0.09,0.11,0.09,0.2v0.19c0,0.38,0.13,0.71,0.39,0.98c0.3,0.3,0.7,0.46,1.2,0.46
					c0.5,0,0.9-0.15,1.2-0.46c0.27-0.27,0.4-0.59,0.4-0.98c0-0.4-0.13-0.73-0.4-0.99c-0.3-0.29-0.7-0.43-1.2-0.43h-0.33
					c-0.17,0-0.26-0.08-0.26-0.25c0-0.16,0.09-0.24,0.26-0.24h0.26c0.45,0,0.8-0.12,1.05-0.37c0.24-0.23,0.36-0.51,0.36-0.83
					c0-0.34-0.12-0.63-0.36-0.86c-0.26-0.25-0.61-0.38-1.05-0.38c-0.45,0-0.81,0.13-1.07,0.38c-0.23,0.23-0.34,0.52-0.34,0.86
					c0,0.09-0.03,0.16-0.09,0.22c-0.05,0.05-0.11,0.07-0.19,0.07c-0.08,0-0.15-0.02-0.2-0.07c-0.06-0.06-0.08-0.13-0.08-0.22
					c0-0.47,0.16-0.87,0.49-1.2c0.37-0.36,0.86-0.54,1.49-0.54C69.58,100.12,70.08,100.3,70.45,100.66z"/>
				<path class="st3" d="M73.28,101.48c-0.01-0.13,0.06-0.2,0.2-0.2c0.35,0,0.61-0.06,0.79-0.19c0.21-0.15,0.33-0.4,0.34-0.75
					c0.01-0.14,0.09-0.21,0.25-0.22c0.16-0.01,0.24,0.07,0.24,0.22v6.23c0,0.1-0.03,0.18-0.09,0.24c-0.06,0.06-0.12,0.09-0.2,0.09
					c-0.08-0.01-0.15-0.04-0.21-0.09c-0.06-0.06-0.08-0.15-0.08-0.25v-4.88h-1.02C73.36,101.68,73.28,101.62,73.28,101.48z"/>
				<path class="st3" d="M81.44,100.12c0.17,0.01,0.26,0.11,0.26,0.3v4.27h0.91c0.07,0,0.14,0.02,0.19,0.07
					c0.04,0.05,0.06,0.1,0.06,0.17c0,0.06-0.02,0.12-0.07,0.17c-0.05,0.05-0.12,0.08-0.21,0.08H81.7v1.44c0,0.08-0.03,0.15-0.09,0.2
					c-0.06,0.05-0.12,0.07-0.2,0.07c-0.08,0-0.15-0.02-0.21-0.07c-0.06-0.05-0.08-0.11-0.08-0.2v-1.44h-2.81
					c-0.16,0-0.26-0.07-0.3-0.21c-0.03-0.13,0-0.28,0.1-0.42l2.9-4.18C81.12,100.19,81.27,100.11,81.44,100.12z M78.67,104.69h2.45
					v-3.57L78.67,104.69z"/>
				<path class="st3" d="M89.49,101.84c0.01-0.07,0.05-0.12,0.11-0.16c0.06-0.03,0.12-0.04,0.2-0.03c0.07,0.01,0.12,0.03,0.16,0.06
					c0.04,0.04,0.06,0.09,0.05,0.15l-0.63,2.43c-0.04,0.11-0.07,0.21-0.08,0.29c-0.01,0.08-0.02,0.14-0.02,0.18
					c0,0.12,0.05,0.22,0.14,0.3c0.09,0.08,0.23,0.11,0.4,0.11c0.14,0,0.3-0.03,0.47-0.09c0.16-0.06,0.32-0.14,0.48-0.25
					c0.31-0.22,0.56-0.52,0.75-0.91c0.2-0.39,0.3-0.81,0.3-1.25c0-0.8-0.31-1.44-0.93-1.92c-0.62-0.49-1.44-0.74-2.45-0.74
					c-0.53,0-1.01,0.07-1.45,0.21c-0.45,0.14-0.85,0.35-1.2,0.63c-0.48,0.37-0.84,0.8-1.08,1.3c-0.24,0.49-0.35,1.04-0.35,1.65
					c0,0.95,0.34,1.71,1.02,2.29c0.68,0.57,1.61,0.86,2.77,0.86c0.49,0,0.98-0.07,1.48-0.21c0.5-0.15,0.94-0.35,1.34-0.6
					c0.09-0.08,0.17-0.08,0.22-0.03c0.05,0.05,0.03,0.12-0.06,0.2c-0.43,0.31-0.9,0.54-1.41,0.7c-0.5,0.16-1.03,0.25-1.57,0.25
					c-0.59,0-1.13-0.07-1.61-0.21c-0.48-0.13-0.9-0.33-1.28-0.6c-0.47-0.34-0.82-0.73-1.05-1.18c-0.23-0.45-0.34-0.96-0.34-1.53
					c0-0.48,0.08-0.93,0.23-1.36c0.16-0.42,0.38-0.81,0.69-1.15c0.44-0.52,0.98-0.91,1.6-1.17c0.63-0.26,1.33-0.4,2.1-0.4
					c0.5,0,0.98,0.06,1.44,0.19c0.43,0.13,0.81,0.31,1.14,0.54c0.39,0.29,0.69,0.62,0.89,0.99c0.21,0.38,0.31,0.78,0.31,1.22
					c0,0.49-0.1,0.94-0.3,1.35c-0.19,0.41-0.47,0.75-0.83,1.02c-0.21,0.15-0.44,0.27-0.69,0.36c-0.25,0.09-0.49,0.13-0.74,0.13
					c-0.3,0-0.52-0.06-0.67-0.17c-0.15-0.11-0.22-0.27-0.22-0.48l0.02-0.16c-0.16,0.25-0.35,0.45-0.59,0.59
					c-0.24,0.15-0.49,0.22-0.76,0.22c-0.48,0-0.85-0.12-1.1-0.37c-0.24-0.25-0.36-0.6-0.36-1.06c0-0.68,0.21-1.25,0.63-1.71
					c0.42-0.46,0.92-0.69,1.51-0.69c0.3,0,0.55,0.06,0.75,0.18c0.21,0.13,0.35,0.32,0.45,0.56L89.49,101.84z M89.24,102.91
					c-0.07-0.29-0.19-0.52-0.37-0.67c-0.19-0.15-0.42-0.23-0.71-0.23c-0.48,0-0.88,0.2-1.19,0.6c-0.32,0.4-0.48,0.9-0.48,1.49
					c0,0.34,0.09,0.61,0.26,0.8c0.18,0.19,0.43,0.28,0.75,0.28c0.34,0,0.64-0.11,0.9-0.33c0.27-0.21,0.45-0.49,0.54-0.84
					L89.24,102.91z"/>
				<path class="st3" d="M97.45,102.02c0.06-0.04,0.12-0.06,0.21-0.06c0.08,0,0.15,0.02,0.2,0.06c0.06,0.05,0.09,0.11,0.09,0.19
					v4.28c0,0.41-0.18,0.75-0.54,1.03c-0.4,0.32-0.96,0.47-1.67,0.47c-0.5,0-0.91-0.07-1.25-0.22c-0.35-0.15-0.61-0.37-0.77-0.66
					c-0.05-0.08-0.06-0.15-0.03-0.22c0.02-0.06,0.06-0.11,0.14-0.15c0.07-0.04,0.14-0.05,0.21-0.04c0.07,0.01,0.13,0.05,0.18,0.12
					c0.11,0.22,0.29,0.38,0.52,0.49c0.25,0.12,0.59,0.18,1.02,0.18c0.53,0,0.93-0.11,1.22-0.32c0.26-0.19,0.39-0.42,0.39-0.69v-0.52
					c-0.13,0.21-0.33,0.38-0.59,0.52c-0.3,0.16-0.65,0.24-1.02,0.24c-0.71,0-1.27-0.25-1.67-0.75c-0.35-0.44-0.53-1-0.53-1.68
					c0-0.66,0.18-1.21,0.53-1.67c0.4-0.51,0.96-0.76,1.67-0.76c0.35,0,0.66,0.06,0.93,0.19c0.26,0.13,0.49,0.34,0.68,0.61v-0.47
					C97.36,102.13,97.39,102.07,97.45,102.02z M94.51,102.98c-0.25,0.36-0.38,0.81-0.38,1.33c0,0.55,0.13,1,0.38,1.35
					c0.29,0.39,0.7,0.59,1.23,0.59c0.53,0,0.94-0.2,1.23-0.59c0.26-0.35,0.39-0.8,0.39-1.35c0-0.52-0.13-0.96-0.39-1.33
					c-0.3-0.41-0.71-0.62-1.23-0.62C95.22,102.36,94.81,102.57,94.51,102.98z"/>
				<path class="st3" d="M99.86,102.02c0.06-0.05,0.12-0.08,0.2-0.08c0.07,0,0.14,0.03,0.2,0.08c0.06,0.05,0.09,0.13,0.09,0.23v0.33
					c0.15-0.19,0.34-0.34,0.58-0.47c0.29-0.15,0.59-0.23,0.89-0.23c0.38,0,0.7,0.09,0.96,0.26c0.18,0.13,0.33,0.3,0.44,0.53
					c0.16-0.24,0.37-0.43,0.63-0.56c0.29-0.15,0.61-0.23,0.96-0.23c0.48,0,0.87,0.14,1.16,0.41c0.25,0.24,0.38,0.52,0.38,0.83v3.49
					c0,0.08-0.03,0.15-0.09,0.2c-0.06,0.05-0.12,0.07-0.2,0.07c-0.08,0-0.15-0.02-0.2-0.07c-0.06-0.05-0.08-0.12-0.08-0.2v-3.4
					c0-0.25-0.08-0.45-0.23-0.61c-0.17-0.16-0.41-0.25-0.72-0.25c-0.35,0-0.64,0.07-0.87,0.22c-0.22,0.14-0.43,0.38-0.61,0.7v3.33
					c0,0.08-0.03,0.15-0.09,0.2c-0.06,0.05-0.12,0.07-0.2,0.07c-0.08,0-0.15-0.02-0.2-0.07c-0.06-0.05-0.08-0.12-0.08-0.2v-3.4
					c0-0.25-0.08-0.45-0.23-0.61c-0.17-0.16-0.41-0.25-0.71-0.25c-0.33,0-0.61,0.06-0.84,0.19c-0.23,0.13-0.45,0.35-0.65,0.65v3.41
					c0,0.08-0.03,0.15-0.09,0.2c-0.06,0.05-0.12,0.07-0.2,0.07c-0.08,0-0.15-0.02-0.2-0.07c-0.06-0.05-0.08-0.12-0.08-0.2v-4.37
					C99.78,102.15,99.81,102.07,99.86,102.02z"/>
				<path class="st3" d="M111.38,102.17c0.36,0.22,0.54,0.57,0.54,1.03v2.79c0,0.1,0.03,0.18,0.08,0.23
					c0.06,0.06,0.15,0.09,0.26,0.09c0.07,0,0.14,0.02,0.19,0.07c0.04,0.05,0.07,0.11,0.07,0.18c0,0.06-0.02,0.12-0.06,0.17
					c-0.05,0.05-0.12,0.08-0.21,0.08c-0.35,0-0.6-0.04-0.74-0.12c-0.11-0.08-0.17-0.21-0.17-0.39c-0.19,0.17-0.4,0.3-0.63,0.4
					c-0.32,0.13-0.69,0.2-1.1,0.2c-0.56,0-0.98-0.12-1.27-0.37c-0.28-0.23-0.42-0.57-0.42-0.99c0-0.39,0.1-0.69,0.29-0.9
					c0.29-0.3,0.8-0.5,1.56-0.59c0.66-0.09,1.09-0.18,1.29-0.28c0.19-0.09,0.28-0.27,0.28-0.52c0-0.29-0.1-0.5-0.31-0.65
					c-0.22-0.15-0.54-0.23-0.98-0.23c-0.42,0-0.74,0.09-0.95,0.26c-0.19,0.15-0.3,0.38-0.33,0.67c-0.01,0.08-0.05,0.13-0.12,0.18
					c-0.06,0.04-0.12,0.06-0.21,0.05c-0.07-0.01-0.14-0.04-0.19-0.09c-0.06-0.05-0.07-0.12-0.06-0.21c0.07-0.45,0.27-0.79,0.6-1.02
					c0.32-0.22,0.74-0.33,1.26-0.33C110.63,101.88,111.07,101.97,111.38,102.17z M111.35,104.11c-0.09,0.07-0.24,0.14-0.46,0.2
					c-0.27,0.08-0.63,0.14-1.1,0.2c-0.47,0.06-0.8,0.17-0.99,0.33c-0.19,0.15-0.28,0.38-0.28,0.68c0,0.29,0.09,0.5,0.26,0.64
					c0.18,0.15,0.46,0.23,0.84,0.23c0.43,0,0.79-0.08,1.1-0.23c0.27-0.13,0.48-0.32,0.62-0.56V104.11z"/>
				<path class="st3" d="M114.47,100.26c0.08,0.09,0.12,0.2,0.12,0.33c0,0.12-0.04,0.22-0.12,0.31c-0.09,0.09-0.2,0.14-0.34,0.14
					c-0.15,0-0.26-0.05-0.34-0.14c-0.07-0.08-0.11-0.18-0.11-0.31c0-0.13,0.04-0.24,0.11-0.33c0.08-0.09,0.2-0.14,0.34-0.14
					C114.27,100.12,114.38,100.17,114.47,100.26z M113.92,101.94c0.06-0.05,0.12-0.07,0.21-0.07c0.08,0,0.15,0.02,0.21,0.06
					c0.06,0.05,0.09,0.11,0.09,0.19v4.47c0,0.09-0.03,0.16-0.09,0.21c-0.06,0.05-0.12,0.08-0.21,0.08c-0.08,0-0.15-0.02-0.21-0.07
					c-0.06-0.06-0.08-0.13-0.08-0.22v-4.47C113.84,102.04,113.87,101.98,113.92,101.94z"/>
				<path class="st3" d="M116.32,100.18c0.06-0.04,0.12-0.06,0.2-0.06c0.07,0,0.14,0.02,0.2,0.06c0.06,0.05,0.09,0.11,0.09,0.2v6.24
					c0,0.08-0.03,0.15-0.09,0.19c-0.06,0.05-0.12,0.07-0.2,0.07c-0.08,0-0.15-0.02-0.2-0.07c-0.06-0.05-0.08-0.12-0.08-0.2v-6.24
					C116.24,100.29,116.27,100.23,116.32,100.18z"/>
				<path class="st3" d="M119.79,106.04c0.09,0.09,0.13,0.21,0.13,0.35c0,0.13-0.04,0.24-0.13,0.33c-0.09,0.11-0.22,0.16-0.37,0.16
					c-0.16,0-0.29-0.05-0.38-0.16c-0.08-0.09-0.12-0.21-0.12-0.33c0-0.14,0.04-0.26,0.12-0.35c0.09-0.1,0.22-0.15,0.38-0.15
					C119.57,105.89,119.7,105.94,119.79,106.04z"/>
				<path class="st3" d="M124.08,101.88c0.55,0,1,0.12,1.37,0.37c0.3,0.21,0.51,0.47,0.61,0.78c0.02,0.08,0,0.14-0.05,0.2
					c-0.04,0.06-0.11,0.1-0.19,0.11c-0.09,0.02-0.17,0.01-0.23-0.02c-0.08-0.04-0.13-0.09-0.15-0.18c-0.09-0.28-0.25-0.48-0.48-0.61
					c-0.22-0.12-0.53-0.18-0.92-0.18c-0.53,0-0.93,0.21-1.22,0.62c-0.25,0.36-0.38,0.83-0.38,1.4c0,0.58,0.13,1.05,0.38,1.42
					c0.28,0.4,0.69,0.6,1.22,0.6c0.44,0,0.78-0.06,1.01-0.19c0.23-0.13,0.4-0.35,0.51-0.65c0.02-0.08,0.08-0.14,0.17-0.18
					c0.07-0.03,0.15-0.04,0.23-0.02c0.09,0.02,0.15,0.06,0.19,0.11c0.04,0.06,0.05,0.13,0.01,0.22c-0.19,0.37-0.41,0.65-0.68,0.83
					c-0.35,0.24-0.82,0.36-1.4,0.36c-0.75,0-1.32-0.25-1.71-0.76c-0.34-0.44-0.51-1.02-0.51-1.74c0-0.7,0.18-1.28,0.53-1.74
					C122.79,102.14,123.35,101.88,124.08,101.88z"/>
				<path class="st3" d="M131.45,102.67c0.37,0.46,0.56,1.03,0.56,1.73c0,0.69-0.19,1.27-0.56,1.72c-0.42,0.52-0.99,0.78-1.72,0.78
					c-0.74,0-1.32-0.26-1.73-0.78c-0.37-0.46-0.55-1.03-0.55-1.72c0-0.7,0.18-1.27,0.55-1.73c0.42-0.52,0.99-0.77,1.73-0.77
					C130.46,101.9,131.04,102.15,131.45,102.67z M128.44,103c-0.27,0.37-0.4,0.83-0.4,1.4c0,0.56,0.13,1.02,0.4,1.39
					c0.31,0.42,0.74,0.62,1.29,0.62c0.55,0,0.97-0.21,1.28-0.62c0.28-0.38,0.42-0.84,0.42-1.39c0-0.56-0.14-1.03-0.42-1.4
					c-0.3-0.42-0.73-0.62-1.28-0.62C129.18,102.38,128.75,102.59,128.44,103z"/>
				<path class="st3" d="M133.71,102.02c0.06-0.05,0.12-0.08,0.21-0.08c0.07,0,0.14,0.03,0.2,0.08c0.06,0.05,0.09,0.13,0.09,0.23
					v0.33c0.15-0.19,0.34-0.34,0.58-0.47c0.29-0.15,0.59-0.23,0.89-0.23c0.38,0,0.71,0.09,0.96,0.26c0.18,0.13,0.33,0.3,0.44,0.53
					c0.16-0.24,0.37-0.43,0.63-0.56c0.29-0.15,0.61-0.23,0.96-0.23c0.48,0,0.87,0.14,1.17,0.41c0.25,0.24,0.38,0.52,0.38,0.83v3.49
					c0,0.08-0.03,0.15-0.09,0.2c-0.06,0.05-0.12,0.07-0.2,0.07c-0.08,0-0.15-0.02-0.21-0.07c-0.06-0.05-0.08-0.12-0.08-0.2v-3.4
					c0-0.25-0.08-0.45-0.23-0.61c-0.17-0.16-0.41-0.25-0.72-0.25c-0.35,0-0.64,0.07-0.87,0.22c-0.22,0.14-0.43,0.38-0.61,0.7v3.33
					c0,0.08-0.03,0.15-0.09,0.2c-0.06,0.05-0.12,0.07-0.2,0.07c-0.08,0-0.15-0.02-0.21-0.07c-0.06-0.05-0.08-0.12-0.08-0.2v-3.4
					c0-0.25-0.08-0.45-0.23-0.61c-0.17-0.16-0.41-0.25-0.71-0.25c-0.33,0-0.61,0.06-0.84,0.19c-0.23,0.13-0.45,0.35-0.65,0.65v3.41
					c0,0.08-0.03,0.15-0.09,0.2c-0.06,0.05-0.12,0.07-0.2,0.07c-0.08,0-0.15-0.02-0.21-0.07c-0.06-0.05-0.08-0.12-0.08-0.2v-4.37
					C133.63,102.15,133.66,102.07,133.71,102.02z"/>
			</g>
		</g>
		<g class="st2">
			<text transform="matrix(1 0 0 1 25.7896 36.183)"><tspan x="0" y="0" class="st3 st4 st5">김예별</tspan><tspan x="36" y="0" class="st6 st7 st5"> </tspan></text>
		</g>
		<g class="st2">
			<path class="st3" d="M65.95,33.06c-0.18,0.01-0.43,0.01-0.73,0.01c-0.14,0-0.21-0.06-0.21-0.2c0-0.13,0.07-0.2,0.21-0.2
				c0.55,0,1.03-0.01,1.45-0.02c0.65-0.02,1.26-0.05,1.83-0.09c0.08-0.01,0.14,0,0.2,0.03c0.05,0.03,0.07,0.07,0.08,0.12
				c0,0.05-0.01,0.1-0.05,0.14c-0.04,0.04-0.1,0.07-0.17,0.08c-0.24,0.02-0.49,0.03-0.74,0.05c-0.28,0.02-0.51,0.03-0.69,0.03v0.3
				c0,0.14-0.02,0.29-0.07,0.44c-0.04,0.12-0.08,0.23-0.14,0.34c-0.04,0.06-0.09,0.09-0.16,0.1c-0.06,0.01-0.11,0-0.17-0.03
				c-0.06-0.03-0.1-0.07-0.12-0.12c-0.02-0.06-0.01-0.11,0.03-0.16c0.06-0.1,0.1-0.18,0.12-0.26c0.03-0.09,0.05-0.21,0.05-0.34
				v-0.24C66.51,33.06,66.27,33.06,65.95,33.06z M68.24,30.48c0.28,0.19,0.42,0.44,0.42,0.75c0,0.3-0.14,0.55-0.42,0.73
				c-0.3,0.21-0.72,0.32-1.26,0.32c-0.54,0-0.96-0.11-1.27-0.32c-0.28-0.19-0.42-0.44-0.42-0.73c0-0.31,0.14-0.56,0.42-0.75
				c0.3-0.21,0.72-0.31,1.27-0.31C67.52,30.17,67.94,30.27,68.24,30.48z M66.06,30.76c-0.2,0.11-0.3,0.27-0.3,0.47
				c0,0.19,0.1,0.35,0.3,0.47c0.21,0.12,0.52,0.19,0.93,0.19c0.41,0,0.72-0.06,0.93-0.19c0.2-0.12,0.3-0.28,0.3-0.47
				c0-0.2-0.1-0.35-0.3-0.47c-0.21-0.12-0.52-0.19-0.93-0.19C66.58,30.57,66.27,30.64,66.06,30.76z M70.68,34.15
				c0.04-0.04,0.09-0.06,0.16-0.06c0.06,0,0.11,0.02,0.15,0.06c0.05,0.04,0.08,0.1,0.08,0.17v1.52c0,0.16-0.05,0.29-0.16,0.39
				c-0.11,0.11-0.26,0.16-0.45,0.16h-4.08c-0.18,0-0.32-0.05-0.42-0.16c-0.1-0.1-0.15-0.24-0.15-0.41v-1.5
				c0-0.07,0.02-0.13,0.07-0.17c0.04-0.04,0.09-0.06,0.16-0.06s0.11,0.02,0.16,0.06c0.05,0.04,0.08,0.1,0.08,0.17v0.45h4.34v-0.45
				C70.61,34.25,70.63,34.19,70.68,34.15z M66.27,35.18v0.55c0,0.09,0.02,0.15,0.06,0.2c0.05,0.05,0.12,0.07,0.23,0.07h3.76
				c0.11,0,0.18-0.02,0.23-0.06c0.05-0.04,0.07-0.1,0.07-0.2v-0.56H66.27z M69.63,33.85c-0.04,0.04-0.09,0.06-0.16,0.06
				c-0.07,0-0.12-0.02-0.16-0.05c-0.05-0.04-0.07-0.1-0.07-0.16v-0.06h-1.1c-0.08,0-0.15-0.02-0.2-0.06
				c-0.05-0.04-0.07-0.08-0.07-0.13c-0.01-0.05,0.01-0.1,0.05-0.13c0.04-0.04,0.1-0.05,0.17-0.05h1.15v-2.98
				c0-0.07,0.02-0.12,0.07-0.16c0.04-0.04,0.1-0.05,0.16-0.05c0.06,0,0.11,0.02,0.16,0.05c0.05,0.04,0.08,0.09,0.08,0.16v3.41
				C69.71,33.74,69.69,33.8,69.63,33.85z M70.99,33.84c-0.04,0.04-0.09,0.06-0.15,0.06c-0.06,0-0.11-0.02-0.16-0.06
				c-0.05-0.05-0.07-0.11-0.07-0.18v-3.39c0-0.07,0.02-0.12,0.07-0.16c0.04-0.04,0.09-0.05,0.16-0.05c0.06,0,0.11,0.02,0.15,0.05
				c0.05,0.04,0.08,0.09,0.08,0.16v3.4C71.06,33.73,71.04,33.79,70.99,33.84z"/>
			<path class="st3" d="M79.56,30.48c-0.01,0.14-0.08,0.2-0.23,0.2H76.9c-0.13,0-0.22,0.03-0.27,0.09c-0.05,0.06-0.07,0.16-0.07,0.3
				v4.02c0,0.15,0.04,0.26,0.11,0.34c0.07,0.07,0.17,0.1,0.32,0.1c0.6,0,1.17-0.06,1.73-0.17c0.56-0.12,1.03-0.28,1.41-0.48
				c0.07-0.04,0.13-0.05,0.19-0.03c0.05,0.02,0.09,0.05,0.11,0.11c0.03,0.05,0.03,0.11,0,0.17c-0.02,0.06-0.07,0.11-0.13,0.16
				c-0.42,0.22-0.93,0.38-1.54,0.49c-0.55,0.1-1.14,0.15-1.77,0.15c-0.29,0-0.5-0.07-0.65-0.21c-0.15-0.15-0.23-0.35-0.23-0.62
				v-4.04c0-0.23,0.07-0.41,0.2-0.55c0.15-0.14,0.34-0.21,0.59-0.21h2.45C79.48,30.28,79.56,30.35,79.56,30.48z M81.45,36.52
				c-0.04,0.04-0.09,0.06-0.16,0.06c-0.07,0-0.12-0.02-0.16-0.06c-0.05-0.05-0.07-0.11-0.07-0.18v-6.08c0-0.07,0.02-0.12,0.07-0.16
				c0.04-0.03,0.1-0.05,0.16-0.05c0.06,0,0.11,0.02,0.16,0.05c0.05,0.04,0.08,0.1,0.08,0.16v6.08
				C81.52,36.41,81.5,36.47,81.45,36.52z"/>
			<path class="st3" d="M88.06,30.48c0,0.14-0.07,0.2-0.2,0.2h-1.55v1.27c0,0.81,0.17,1.55,0.52,2.22c0.33,0.65,0.77,1.12,1.32,1.42
				c0.07,0.04,0.11,0.09,0.12,0.15c0.02,0.06,0.01,0.12-0.02,0.17c-0.03,0.06-0.08,0.09-0.14,0.11c-0.07,0.02-0.14,0.01-0.22-0.03
				c-0.42-0.22-0.8-0.59-1.16-1.1c-0.35-0.52-0.58-1.05-0.66-1.58c-0.1,0.55-0.33,1.07-0.67,1.58c-0.35,0.52-0.74,0.88-1.18,1.1
				c-0.06,0.03-0.12,0.03-0.18,0.01c-0.05-0.02-0.09-0.06-0.12-0.11c-0.03-0.06-0.04-0.11-0.02-0.17c0.02-0.06,0.06-0.11,0.13-0.14
				c0.53-0.27,0.96-0.73,1.29-1.39c0.35-0.67,0.52-1.41,0.52-2.23v-1.27h-1.55c-0.15,0-0.22-0.07-0.21-0.2c0-0.13,0.07-0.2,0.22-0.2
				h3.55C87.99,30.28,88.06,30.35,88.06,30.48z M90.16,33.12c0.12,0,0.19,0.06,0.19,0.19c0,0.13-0.06,0.2-0.19,0.2h-0.87v2.85
				c0,0.07-0.03,0.12-0.08,0.16c-0.04,0.04-0.09,0.06-0.16,0.06s-0.11-0.02-0.16-0.06c-0.05-0.04-0.07-0.1-0.07-0.16v-6.09
				c0-0.07,0.02-0.12,0.07-0.16c0.04-0.03,0.09-0.05,0.16-0.05s0.11,0.02,0.16,0.05c0.05,0.04,0.08,0.1,0.08,0.16v2.86H90.16z"/>
			<path class="st3" d="M95.13,30.83c0.3,0.35,0.45,0.78,0.45,1.29c0,0.51-0.15,0.94-0.45,1.29C94.8,33.8,94.36,34,93.8,34
				c-0.57,0-1.02-0.2-1.35-0.59c-0.3-0.35-0.45-0.78-0.45-1.29c0-0.51,0.15-0.94,0.45-1.29c0.33-0.39,0.78-0.59,1.35-0.59
				C94.36,30.25,94.8,30.44,95.13,30.83z M92.79,31.1c-0.21,0.27-0.32,0.61-0.32,1.02c0,0.41,0.11,0.75,0.32,1.02
				c0.24,0.31,0.58,0.46,1.01,0.46c0.42,0,0.75-0.15,0.99-0.46c0.22-0.27,0.33-0.61,0.33-1.02c0-0.41-0.11-0.74-0.33-1.02
				c-0.24-0.31-0.57-0.46-0.99-0.46C93.37,30.64,93.03,30.8,92.79,31.1z M92.97,35.64c0,0.14,0.03,0.24,0.08,0.29
				C93.1,35.97,93.2,36,93.35,36h4.21c0.13,0,0.2,0.07,0.2,0.2c0,0.14-0.07,0.2-0.2,0.2h-4.29c-0.23,0-0.42-0.06-0.55-0.17
				c-0.15-0.12-0.22-0.29-0.22-0.52v-1.04c0-0.08,0.02-0.15,0.07-0.2c0.04-0.04,0.1-0.06,0.16-0.06c0.06,0,0.11,0.02,0.16,0.06
				c0.05,0.05,0.08,0.11,0.08,0.2V35.64z M97.45,34.75c-0.04,0.04-0.09,0.06-0.16,0.06c-0.07,0-0.12-0.02-0.16-0.06
				c-0.05-0.05-0.07-0.11-0.07-0.19v-4.3c0-0.07,0.02-0.12,0.07-0.16c0.04-0.04,0.1-0.05,0.16-0.05c0.06,0,0.11,0.02,0.16,0.05
				c0.05,0.04,0.08,0.09,0.08,0.16v4.31C97.52,34.64,97.5,34.71,97.45,34.75z"/>
			<path class="st3" d="M104.19,35.98c0.04,0.06,0.06,0.12,0.05,0.19c-0.02,0.06-0.05,0.11-0.1,0.15c-0.06,0.04-0.12,0.05-0.18,0.05
				c-0.07-0.01-0.13-0.04-0.18-0.09l-0.71-0.84c-0.26,0.3-0.52,0.52-0.77,0.66c-0.31,0.17-0.66,0.26-1.05,0.26
				c-0.63,0-1.1-0.19-1.4-0.57c-0.21-0.27-0.32-0.59-0.32-0.95c0-0.36,0.11-0.69,0.32-0.98c0.22-0.3,0.61-0.61,1.15-0.93l-0.06-0.07
				c-0.23-0.27-0.4-0.48-0.49-0.63c-0.15-0.25-0.23-0.5-0.23-0.74c0-0.32,0.11-0.6,0.34-0.83c0.26-0.25,0.61-0.38,1.05-0.38
				c0.41,0,0.74,0.12,0.98,0.37c0.21,0.22,0.31,0.48,0.31,0.79c0,0.34-0.12,0.65-0.38,0.94c-0.19,0.21-0.47,0.43-0.84,0.66
				l1.34,1.59c0.09-0.16,0.16-0.31,0.21-0.46c0.06-0.16,0.1-0.31,0.12-0.46c0.01-0.07,0.04-0.12,0.09-0.16
				c0.05-0.03,0.11-0.04,0.18-0.02c0.06,0.01,0.11,0.04,0.16,0.09c0.04,0.06,0.06,0.13,0.05,0.21c-0.03,0.18-0.08,0.37-0.16,0.55
				c-0.07,0.18-0.17,0.39-0.31,0.64L104.19,35.98z M101.25,33.27c-0.42,0.27-0.72,0.5-0.91,0.71c-0.22,0.26-0.34,0.51-0.34,0.77
				c0,0.35,0.11,0.63,0.34,0.84c0.23,0.22,0.54,0.33,0.92,0.33c0.27,0,0.53-0.08,0.77-0.23c0.24-0.14,0.47-0.35,0.68-0.63
				L101.25,33.27z M102.08,32.15c0.21-0.23,0.31-0.47,0.31-0.72c0-0.25-0.09-0.45-0.26-0.57c-0.14-0.1-0.33-0.16-0.55-0.16
				c-0.32,0-0.55,0.07-0.7,0.21c-0.12,0.12-0.19,0.31-0.19,0.55c0,0.17,0.07,0.36,0.21,0.58c0.09,0.14,0.25,0.34,0.49,0.62
				C101.68,32.52,101.91,32.35,102.08,32.15z"/>
			<path class="st3" d="M106.23,31.17c0.04-0.04,0.09-0.05,0.16-0.05s0.11,0.02,0.16,0.05c0.05,0.04,0.08,0.09,0.08,0.16
				c0,0.6,0.02,1.29,0.05,2.07c0.05,0.86,0.11,1.56,0.18,2.09c0.17,0,0.34-0.01,0.52-0.02c0.15,0,0.34-0.02,0.57-0.04
				c0.07-0.51,0.12-1.17,0.16-1.99c0.04-0.71,0.05-1.43,0.05-2.15c0-0.14,0.08-0.2,0.23-0.2c0.15,0,0.23,0.07,0.23,0.2
				c0,0.66-0.02,1.37-0.06,2.12c-0.04,0.79-0.09,1.44-0.16,1.94l0.16-0.03c0.2-0.04,0.34-0.07,0.43-0.09
				c0.15-0.03,0.28-0.06,0.39-0.09c0.07-0.02,0.14-0.02,0.19,0.01c0.04,0.03,0.07,0.07,0.09,0.12c0.01,0.05,0,0.1-0.03,0.15
				c-0.04,0.05-0.09,0.09-0.16,0.1c-0.44,0.14-1.02,0.24-1.74,0.3c-0.64,0.06-1.39,0.09-2.25,0.09c-0.15,0-0.23-0.07-0.23-0.2
				c0-0.13,0.08-0.2,0.23-0.2l0.93-0.02c-0.07-0.55-0.12-1.24-0.17-2.08c-0.04-0.82-0.06-1.52-0.06-2.1
				C106.16,31.26,106.18,31.2,106.23,31.17z M109.27,30.48c-0.01,0.14-0.08,0.2-0.23,0.2h-3.36c-0.15,0-0.22-0.07-0.22-0.2
				c0-0.13,0.07-0.2,0.22-0.2h3.36C109.19,30.28,109.27,30.35,109.27,30.48z M110.95,36.51c-0.04,0.05-0.09,0.07-0.16,0.07
				c-0.07,0-0.12-0.02-0.16-0.07c-0.05-0.05-0.07-0.12-0.07-0.21v-3.06h-1.3c-0.08,0-0.14-0.02-0.19-0.06
				c-0.04-0.04-0.07-0.09-0.07-0.14c0-0.05,0.02-0.1,0.05-0.14c0.04-0.04,0.09-0.05,0.16-0.05h1.34v-2.55
				c0-0.08,0.02-0.14,0.07-0.18c0.04-0.04,0.1-0.05,0.16-0.05c0.06,0,0.11,0.02,0.16,0.05c0.05,0.04,0.08,0.1,0.08,0.18v6.02
				C111.02,36.38,111,36.45,110.95,36.51z"/>
			<path class="st3" d="M119.77,33.18c0,0.13-0.07,0.2-0.22,0.2h-6.12c-0.14,0-0.21-0.06-0.2-0.2c0-0.12,0.08-0.19,0.23-0.19h6.06
				C119.69,32.99,119.77,33.05,119.77,33.18z M118.93,34.15c0.15,0.1,0.22,0.23,0.22,0.39v0.38c0,0.15-0.05,0.28-0.16,0.38
				c-0.11,0.11-0.25,0.16-0.41,0.16h-3.96c-0.1,0-0.18,0.02-0.22,0.06c-0.04,0.04-0.05,0.1-0.05,0.18v0.19
				c0,0.08,0.02,0.13,0.06,0.16c0.04,0.03,0.11,0.05,0.2,0.05h4.39c0.07,0,0.13,0.02,0.18,0.05c0.04,0.04,0.06,0.09,0.06,0.14
				c0,0.05-0.02,0.1-0.05,0.14c-0.04,0.04-0.09,0.06-0.16,0.06h-4.59c-0.18,0-0.32-0.05-0.41-0.15c-0.1-0.09-0.15-0.22-0.15-0.38
				v-0.34c0-0.17,0.05-0.31,0.16-0.41c0.1-0.1,0.25-0.15,0.45-0.15h3.92c0.09,0,0.16-0.02,0.21-0.05c0.05-0.03,0.08-0.08,0.08-0.15
				v-0.2c0-0.09-0.02-0.15-0.07-0.2c-0.05-0.04-0.12-0.05-0.23-0.05h-4.29c-0.16,0-0.23-0.07-0.23-0.2c0-0.13,0.09-0.2,0.24-0.2
				h4.34C118.63,34.02,118.79,34.06,118.93,34.15z M114.07,32.09c-0.14-0.12-0.2-0.27-0.2-0.46v-1.32c0-0.08,0.02-0.14,0.07-0.19
				c0.04-0.04,0.1-0.05,0.16-0.05c0.06,0,0.11,0.02,0.16,0.05c0.05,0.05,0.08,0.11,0.08,0.19v0.43h4.34v-0.45
				c0-0.07,0.02-0.13,0.07-0.17c0.04-0.04,0.1-0.06,0.16-0.06c0.06,0,0.11,0.02,0.16,0.05c0.05,0.04,0.08,0.1,0.08,0.17v1.34
				c0,0.18-0.07,0.34-0.2,0.46c-0.14,0.13-0.3,0.2-0.5,0.2h-3.85C114.38,32.28,114.21,32.21,114.07,32.09z M114.34,31.14v0.45
				c0,0.09,0.02,0.16,0.07,0.21c0.05,0.05,0.13,0.08,0.24,0.08h3.69c0.12,0,0.21-0.02,0.26-0.07c0.06-0.05,0.09-0.12,0.09-0.23
				v-0.45H114.34z"/>
			<path class="st3" d="M124.59,30.43c0.14,0.1,0.2,0.25,0.2,0.45v1.52c0,0.2-0.06,0.35-0.18,0.45c-0.12,0.11-0.3,0.16-0.55,0.16
				h-1.66c-0.13,0-0.22,0.03-0.27,0.09c-0.05,0.06-0.07,0.15-0.07,0.29v1.75c0,0.15,0.03,0.25,0.09,0.3c0.06,0.07,0.17,0.1,0.33,0.1
				c0.6,0,1.18-0.05,1.74-0.16c0.54-0.1,1-0.23,1.38-0.41c0.14-0.07,0.23-0.04,0.28,0.09c0.06,0.13,0.02,0.23-0.11,0.3
				c-0.43,0.19-0.97,0.34-1.62,0.44c-0.57,0.09-1.17,0.14-1.8,0.14c-0.26,0-0.46-0.07-0.59-0.22c-0.12-0.14-0.18-0.32-0.18-0.55
				v-1.84c0-0.21,0.06-0.39,0.19-0.52c0.13-0.14,0.31-0.2,0.54-0.2H124c0.13,0,0.22-0.02,0.27-0.06c0.05-0.04,0.08-0.11,0.08-0.23
				v-1.34c0-0.1-0.04-0.18-0.11-0.23c-0.07-0.05-0.19-0.07-0.34-0.07h-2.1c-0.16,0-0.24-0.06-0.23-0.2c0-0.13,0.08-0.2,0.25-0.2
				h2.23C124.27,30.28,124.45,30.33,124.59,30.43z M126.95,36.52c-0.04,0.04-0.09,0.06-0.16,0.06c-0.07,0-0.12-0.02-0.16-0.06
				c-0.05-0.05-0.07-0.11-0.07-0.18v-6.08c0-0.07,0.02-0.12,0.07-0.16c0.04-0.03,0.1-0.05,0.16-0.05c0.06,0,0.11,0.02,0.16,0.05
				c0.05,0.04,0.08,0.1,0.08,0.16v6.08C127.02,36.41,127,36.47,126.95,36.52z"/>
			<path class="st3" d="M131.28,30.28c0.04-0.04,0.09-0.06,0.16-0.06c0.06,0,0.11,0.02,0.16,0.06c0.05,0.04,0.08,0.1,0.08,0.17
				c0,0.3-0.03,0.64-0.09,1.02c-0.06,0.37-0.14,0.76-0.24,1.16c0.41,0.51,0.78,1,1.12,1.49c0.35,0.51,0.66,1,0.91,1.45
				c0.04,0.07,0.05,0.14,0.02,0.21c-0.02,0.06-0.05,0.11-0.12,0.14c-0.06,0.03-0.12,0.03-0.18,0.02c-0.07-0.02-0.12-0.06-0.15-0.13
				c-0.2-0.41-0.46-0.86-0.78-1.35c-0.33-0.52-0.66-0.97-0.97-1.36c-0.15,0.43-0.32,0.86-0.53,1.28c-0.27,0.53-0.59,1.03-0.95,1.52
				c-0.05,0.05-0.1,0.08-0.16,0.09c-0.06,0-0.11-0.02-0.15-0.05c-0.04-0.04-0.07-0.08-0.07-0.14c0-0.07,0.03-0.13,0.09-0.2
				c0.54-0.68,0.98-1.51,1.32-2.49c0.32-0.94,0.48-1.82,0.48-2.64C131.21,30.38,131.24,30.32,131.28,30.28z M134.95,36.52
				c-0.04,0.04-0.09,0.06-0.16,0.06c-0.07,0-0.12-0.02-0.16-0.06c-0.05-0.05-0.07-0.11-0.07-0.18V34.1h-1.98
				c-0.16,0-0.24-0.07-0.24-0.2c0-0.13,0.09-0.2,0.26-0.2h1.96v-1.44h-1.91c-0.08,0-0.14-0.02-0.19-0.07
				c-0.04-0.04-0.06-0.08-0.06-0.13c0-0.06,0.02-0.1,0.05-0.14c0.04-0.04,0.1-0.06,0.16-0.06h1.95v-1.59c0-0.07,0.02-0.12,0.07-0.16
				c0.04-0.04,0.1-0.05,0.16-0.05c0.06,0,0.11,0.02,0.16,0.05c0.05,0.04,0.08,0.09,0.08,0.16v6.08
				C135.02,36.41,135,36.47,134.95,36.52z"/>
		</g>
		
			<linearGradient id="SVGID_4_" gradientUnits="userSpaceOnUse" x1="257.774" y1="593.6127" x2="309.4532" y2="593.6127" gradientTransform="matrix(-0.8316 -0.362 -0.362 0.8316 632.3316 -282.0051)">
			<stop  offset="0.1732" style="stop-color:#F2F2F2"/>
			<stop  offset="0.4944" style="stop-color:#EEBFBF"/>
			<stop  offset="0.5405" style="stop-color:#E3B4B6"/>
			<stop  offset="0.6245" style="stop-color:#C595A0"/>
			<stop  offset="0.737" style="stop-color:#96697F"/>
			<stop  offset="0.8721" style="stop-color:#593A5E"/>
			<stop  offset="0.933" style="stop-color:#3B2952"/>
		</linearGradient>
		<path class="st8" d="M158.29,106.99c0.42,0.18,0.69,0.58,0.74,1l14.38,1.51c0.09-0.27,0.28-0.5,0.51-0.65l-5.5-13.99
			c-2.09,0.26-1.66-3.16,0.31-2.37c0.91,0.36,1,1.71,0.17,2.2l5.5,13.99c0.78-0.15,1.55,0.59,1.43,1.37l24.14,9.28
			c0.82-1.17,2.75-0.07,2.14,1.24c-0.56,1.38-2.73,0.64-2.35-0.79l-24.08-9.26c-0.55,1.06-2.28,0.66-2.32-0.52l-14.36-1.51
			C157.31,111.49,154.93,106.32,158.29,106.99z"/>
		
			<linearGradient id="SVGID_5_" gradientUnits="userSpaceOnUse" x1="-25.067" y1="60.0717" x2="-11.4352" y2="60.0717" gradientTransform="matrix(-0.034 0.9994 -0.9994 -0.034 81.9829 33.5776)">
			<stop  offset="0.1732" style="stop-color:#F2F2F2"/>
			<stop  offset="0.4944" style="stop-color:#EEBFBF"/>
			<stop  offset="0.5405" style="stop-color:#E3B4B6"/>
			<stop  offset="0.6245" style="stop-color:#C595A0"/>
			<stop  offset="0.737" style="stop-color:#96697F"/>
			<stop  offset="0.8721" style="stop-color:#593A5E"/>
			<stop  offset="0.933" style="stop-color:#3B2952"/>
		</linearGradient>
		<path class="st9" d="M27.38,7.47c-0.14,0.11-0.33,0.12-0.48,0.05l-3.21,4.58c0.08,0.08,0.12,0.2,0.13,0.3l5.82,0.94
			c1.4-1.32,0.94,1.93-0.03,0.2l-5.82-0.94c-0.1,0.3-0.5,0.41-0.74,0.21l-7.71,6.33c-0.05,1.96-1.99-0.77-0.12-0.16l7.69-6.32
			c-0.26-0.4,0.2-0.91,0.62-0.68l3.21-4.57C26.01,6.25,28.26,6.48,27.38,7.47z"/>
		
			<linearGradient id="SVGID_6_" gradientUnits="userSpaceOnUse" x1="747.6978" y1="-27.3122" x2="848.2394" y2="-27.3122" gradientTransform="matrix(-9.100000e-03 -0.8503 0.8503 -9.100000e-03 204.9692 727.1098)">
			<stop  offset="0.0419" style="stop-color:#7A516F"/>
			<stop  offset="0.1549" style="stop-color:#C3B3BC"/>
			<stop  offset="0.2179" style="stop-color:#F2F2F2"/>
			<stop  offset="0.4944" style="stop-color:#EEBFBF"/>
			<stop  offset="0.6048" style="stop-color:#EEC8C8"/>
			<stop  offset="0.805" style="stop-color:#F1E0E0"/>
			<stop  offset="0.8464" style="stop-color:#F1E6E5"/>
			<stop  offset="0.9059" style="stop-color:#EFE4E3"/>
			<stop  offset="0.9273" style="stop-color:#E9DCDD"/>
			<stop  offset="0.9426" style="stop-color:#DECFD2"/>
			<stop  offset="0.955" style="stop-color:#CDBCC3"/>
			<stop  offset="0.9656" style="stop-color:#B9A5B0"/>
			<stop  offset="0.9749" style="stop-color:#A1899A"/>
			<stop  offset="0.9834" style="stop-color:#856A82"/>
			<stop  offset="0.9912" style="stop-color:#664B6B"/>
			<stop  offset="0.9981" style="stop-color:#453057"/>
			<stop  offset="1" style="stop-color:#3B2952"/>
		</linearGradient>
		<path class="st10" d="M129.24,22.74c1.41,1.93,4.65,0.51,4.24-1.8l12.21-2.24c0.54,2.25,3.6,3.04,5.15,1.3l30,23.16
			c-1.41,1.88,0.88,4.6,2.97,3.51l9.73,16.22c-2.07,1.72,0.26,5.15,2.61,3.88l7.63,8.9c-1.89,1.65,0.09,4.89,2.41,3.99l2.46,6
			c-3.28,2.31,0.53,7.37,3.66,4.85c1.87-1.37,1.37-4.49-0.79-5.24l6.2-26.3c2.85,0.09,3.23-4.32,0.42-4.73l-4.11-43.33
			c4.88-1.78-1.42-7.74-2.93-2.78l-8.02-0.28c-0.28-3.02-5.01-2.57-4.75,0.43l-32.34,5.58c-0.64-2.18-4.05-1.49-3.83,0.74
			l-10.64,2.35c-1-3.35-6.24-2.29-5.92,1.14l-12.28,2.25C131.95,17.1,127.08,19.96,129.24,22.74z M162.29,15.21
			c0.72,2,3.86,1.36,3.79-0.73l32.37-5.59c0.7,2.36,4.35,2,4.62-0.41l7.99,0.28c0.03,1.2,1.18,2.28,2.37,2.24l4.1,43.23
			c-2.59,0.15-2.94,4.08-0.41,4.68l-6.18,26.22c-0.58-0.1-1.19-0.02-1.75,0.23l-2.44-5.96c2.51-1.59,0.09-5.54-2.46-4.08l-7.62-8.89
			c2.08-1.73-0.26-5.15-2.62-3.88l-9.72-16.2c2.43-1.95-0.74-5.72-3.07-3.64l-30.04-23.19c0.37-0.59,0.52-1.28,0.44-1.96
			L162.29,15.21z"/>
		<g class="st2">
			
				<linearGradient id="SVGID_7_" gradientUnits="userSpaceOnUse" x1="79.0541" y1="-42.1294" x2="231.1522" y2="-42.1294" gradientTransform="matrix(0.7814 -0.624 0.624 0.7814 114.8246 178.8087)">
				<stop  offset="0.1718" style="stop-color:#050D27"/>
				<stop  offset="0.2749" style="stop-color:#11132D"/>
				<stop  offset="0.4715" style="stop-color:#2F1A3C"/>
				<stop  offset="0.6413" style="stop-color:#4B2049"/>
			</linearGradient>
			<path class="st11" d="M184.42,73.99c0,0,0.32,1.78,3.88,3.86c3.56,2.08-0.65-1.34,2.93,0.62c3.58,1.96,5.13,2.81,5.13,2.81
				l2.62,2.61c0,0,8.47,3.62,5.65,1.86c-5.29-3.32,7.22,4.85,6.71,2.92c0,0,5.55,2.39,4.91-3.67c-5.45-3.75-17.71-12.82-17.2-15.43
				c5.22-2.11,2.79,0.27,10.12-4.54c6.19,0.31,4.61-1.88,10.68-2.32c6.07-0.44,5.02-0.64,5.02-0.64s5.85-3.36,11.18-3.69
				c3.23-5.34,3.33-6.7,3.33-6.7s-5.03-1.87-5.65-1.03c-0.63,0.84,11.88-17.82,11.82-36.23c4.38-6.08,15.53-20.65,9.54-30.36
				c-9.45,14.17-2.7-0.16-14.7,19.18c-6.7-1.66-3.13,3.36-15.38-0.06c3.37,8.99,11.33,10.85,11.33,10.85s-2.59,8.06-12.52,10.08
				c-5.02-7.13-4.38,1.6-11.18,5.99c-4.8,2.73-38.45,15.38-49.74,20.43c-5.75-0.3-11.18,3.69-14.52,6.63
				c-3.34,2.94-12.49,4.2-14.41,10.08c-4.84,0.98-3.7,3.83-2.91,5.24c0,0,1.57,1.15,4.09,2.19c-1.25,2.51,3.25,3.23,3.25,3.23
				l5.96-1.17C146.7,75.74,183.2,76.92,184.42,73.99z"/>
			
				<linearGradient id="SVGID_8_" gradientUnits="userSpaceOnUse" x1="130.0972" y1="-66.6763" x2="130.0972" y2="-66.6763" gradientTransform="matrix(0.7814 -0.624 0.624 0.7814 114.8246 178.8087)">
				<stop  offset="0.1718" style="stop-color:#050D27"/>
				<stop  offset="0.2749" style="stop-color:#11132D"/>
				<stop  offset="0.4715" style="stop-color:#2F1A3C"/>
				<stop  offset="0.6413" style="stop-color:#4B2049"/>
			</linearGradient>
			<path class="st12" d="M174.88,45.53"/>
			
				<linearGradient id="SVGID_9_" gradientUnits="userSpaceOnUse" x1="130.7954" y1="-52.9496" x2="130.7954" y2="-52.9496" gradientTransform="matrix(0.7814 -0.624 0.624 0.7814 114.8246 178.8087)">
				<stop  offset="0.1718" style="stop-color:#050D27"/>
				<stop  offset="0.2749" style="stop-color:#11132D"/>
				<stop  offset="0.4715" style="stop-color:#2F1A3C"/>
				<stop  offset="0.6413" style="stop-color:#4B2049"/>
			</linearGradient>
			<path class="st13" d="M183.99,55.82"/>
			
				<linearGradient id="SVGID_10_" gradientUnits="userSpaceOnUse" x1="95.3491" y1="-64.8096" x2="123.0052" y2="-64.8096" gradientTransform="matrix(0.7814 -0.624 0.624 0.7814 114.8246 178.8087)">
				<stop  offset="0.1718" style="stop-color:#050D27"/>
				<stop  offset="0.2749" style="stop-color:#11132D"/>
				<stop  offset="0.4715" style="stop-color:#2F1A3C"/>
				<stop  offset="0.6413" style="stop-color:#4B2049"/>
			</linearGradient>
			<path class="st14" d="M144.95,63.74c6.47-4.2,17.6-7.33,23.38-8.05c3.91,2.63,6.1,0.64,6.1,0.64"/>
			
				<linearGradient id="SVGID_11_" gradientUnits="userSpaceOnUse" x1="81.2124" y1="-75.9245" x2="81.2124" y2="-75.9245" gradientTransform="matrix(0.7814 -0.624 0.624 0.7814 114.8246 178.8087)">
				<stop  offset="0.1718" style="stop-color:#050D27"/>
				<stop  offset="0.2749" style="stop-color:#11132D"/>
				<stop  offset="0.4715" style="stop-color:#2F1A3C"/>
				<stop  offset="0.6413" style="stop-color:#4B2049"/>
			</linearGradient>
			<path class="st15" d="M130.91,68.8"/>
			
				<linearGradient id="SVGID_12_" gradientUnits="userSpaceOnUse" x1="111.4584" y1="-73.3588" x2="111.4584" y2="-73.3588" gradientTransform="matrix(0.7814 -0.624 0.624 0.7814 114.8246 178.8087)">
				<stop  offset="0.1718" style="stop-color:#050D27"/>
				<stop  offset="0.2749" style="stop-color:#11132D"/>
				<stop  offset="0.4715" style="stop-color:#2F1A3C"/>
				<stop  offset="0.6413" style="stop-color:#4B2049"/>
			</linearGradient>
			<path class="st16" d="M156.14,51.94"/>
			
				<linearGradient id="SVGID_13_" gradientUnits="userSpaceOnUse" x1="105.7776" y1="-49.4399" x2="142.6807" y2="-49.4399" gradientTransform="matrix(0.7814 -0.624 0.624 0.7814 114.8246 178.8087)">
				<stop  offset="0.1718" style="stop-color:#050D27"/>
				<stop  offset="0.2749" style="stop-color:#11132D"/>
				<stop  offset="0.4715" style="stop-color:#2F1A3C"/>
				<stop  offset="0.6413" style="stop-color:#4B2049"/>
			</linearGradient>
			<path class="st17" d="M207.44,66.13c0,0-18.76-2.51-30.78,0.13c-16.07,2.69-14.79-2.61-22-7.09"/>
			
				<linearGradient id="SVGID_14_" gradientUnits="userSpaceOnUse" x1="105.0122" y1="-74.174" x2="105.0122" y2="-74.174" gradientTransform="matrix(0.7814 -0.624 0.624 0.7814 114.8246 178.8087)">
				<stop  offset="0.1718" style="stop-color:#050D27"/>
				<stop  offset="0.2749" style="stop-color:#11132D"/>
				<stop  offset="0.4715" style="stop-color:#2F1A3C"/>
				<stop  offset="0.6413" style="stop-color:#4B2049"/>
			</linearGradient>
			<path class="st18" d="M150.6,55.32"/>
			
				<linearGradient id="SVGID_15_" gradientUnits="userSpaceOnUse" x1="99.0032" y1="-70.5329" x2="99.0032" y2="-70.5329" gradientTransform="matrix(0.7814 -0.624 0.624 0.7814 114.8246 178.8087)">
				<stop  offset="0.1718" style="stop-color:#050D27"/>
				<stop  offset="0.2749" style="stop-color:#11132D"/>
				<stop  offset="0.4715" style="stop-color:#2F1A3C"/>
				<stop  offset="0.6413" style="stop-color:#4B2049"/>
			</linearGradient>
			<path class="st19" d="M148.17,61.92"/>
			
				<linearGradient id="SVGID_16_" gradientUnits="userSpaceOnUse" x1="133.9961" y1="-32.8144" x2="133.9961" y2="-32.8144" gradientTransform="matrix(0.7814 -0.624 0.624 0.7814 114.8246 178.8087)">
				<stop  offset="0.1718" style="stop-color:#050D27"/>
				<stop  offset="0.2749" style="stop-color:#11132D"/>
				<stop  offset="0.4715" style="stop-color:#2F1A3C"/>
				<stop  offset="0.6413" style="stop-color:#4B2049"/>
			</linearGradient>
			<path class="st20" d="M199.05,69.55"/>
			
				<linearGradient id="SVGID_17_" gradientUnits="userSpaceOnUse" x1="99.8771" y1="-74.1742" x2="99.8771" y2="-74.1742" gradientTransform="matrix(0.7814 -0.624 0.624 0.7814 114.8246 178.8087)">
				<stop  offset="0.1718" style="stop-color:#050D27"/>
				<stop  offset="0.2749" style="stop-color:#11132D"/>
				<stop  offset="0.4715" style="stop-color:#2F1A3C"/>
				<stop  offset="0.6413" style="stop-color:#4B2049"/>
			</linearGradient>
			<path class="st21" d="M146.58,58.53"/>
			
				<linearGradient id="SVGID_18_" gradientUnits="userSpaceOnUse" x1="133.9961" y1="-32.8144" x2="133.9961" y2="-32.8144" gradientTransform="matrix(0.7814 -0.624 0.624 0.7814 114.8246 178.8087)">
				<stop  offset="0.1718" style="stop-color:#050D27"/>
				<stop  offset="0.2749" style="stop-color:#11132D"/>
				<stop  offset="0.4715" style="stop-color:#2F1A3C"/>
				<stop  offset="0.6413" style="stop-color:#4B2049"/>
			</linearGradient>
			<path class="st22" d="M199.05,69.55"/>
			
				<linearGradient id="SVGID_19_" gradientUnits="userSpaceOnUse" x1="96.0981" y1="-75.2595" x2="96.0981" y2="-75.2595" gradientTransform="matrix(0.7814 -0.624 0.624 0.7814 114.8246 178.8087)">
				<stop  offset="0.1718" style="stop-color:#050D27"/>
				<stop  offset="0.2749" style="stop-color:#11132D"/>
				<stop  offset="0.4715" style="stop-color:#2F1A3C"/>
				<stop  offset="0.6413" style="stop-color:#4B2049"/>
			</linearGradient>
			<path class="st23" d="M142.95,60.04"/>
			
				<linearGradient id="SVGID_20_" gradientUnits="userSpaceOnUse" x1="92.5631" y1="-71.5335" x2="92.5631" y2="-71.5335" gradientTransform="matrix(0.7814 -0.624 0.624 0.7814 114.8246 178.8087)">
				<stop  offset="0.1718" style="stop-color:#050D27"/>
				<stop  offset="0.2749" style="stop-color:#11132D"/>
				<stop  offset="0.4715" style="stop-color:#2F1A3C"/>
				<stop  offset="0.6413" style="stop-color:#4B2049"/>
			</linearGradient>
			<path class="st24" d="M142.52,65.15"/>
			
				<linearGradient id="SVGID_21_" gradientUnits="userSpaceOnUse" x1="105.011" y1="-47.2334" x2="105.011" y2="-47.2334" gradientTransform="matrix(0.7814 -0.624 0.624 0.7814 114.8246 178.8087)">
				<stop  offset="0.1718" style="stop-color:#050D27"/>
				<stop  offset="0.2749" style="stop-color:#11132D"/>
				<stop  offset="0.4715" style="stop-color:#2F1A3C"/>
				<stop  offset="0.6413" style="stop-color:#4B2049"/>
			</linearGradient>
			<path class="st25" d="M167.41,76.37"/>
			
				<linearGradient id="SVGID_22_" gradientUnits="userSpaceOnUse" x1="96.6601" y1="-54.2868" x2="96.6601" y2="-54.2868" gradientTransform="matrix(0.7814 -0.624 0.624 0.7814 114.8246 178.8087)">
				<stop  offset="0.1718" style="stop-color:#050D27"/>
				<stop  offset="0.2749" style="stop-color:#11132D"/>
				<stop  offset="0.4715" style="stop-color:#2F1A3C"/>
				<stop  offset="0.6413" style="stop-color:#4B2049"/>
			</linearGradient>
			<path class="st26" d="M156.48,76.07"/>
			
				<linearGradient id="SVGID_23_" gradientUnits="userSpaceOnUse" x1="89.3703" y1="-72.3434" x2="89.3703" y2="-72.3434" gradientTransform="matrix(0.7814 -0.624 0.624 0.7814 114.8246 178.8087)">
				<stop  offset="0.1718" style="stop-color:#050D27"/>
				<stop  offset="0.2749" style="stop-color:#11132D"/>
				<stop  offset="0.4715" style="stop-color:#2F1A3C"/>
				<stop  offset="0.6413" style="stop-color:#4B2049"/>
			</linearGradient>
			<path class="st27" d="M139.52,66.51"/>
			
				<linearGradient id="SVGID_24_" gradientUnits="userSpaceOnUse" x1="91.262" y1="-76.4746" x2="91.262" y2="-76.4746" gradientTransform="matrix(0.7814 -0.624 0.624 0.7814 114.8246 178.8087)">
				<stop  offset="0.1718" style="stop-color:#050D27"/>
				<stop  offset="0.2749" style="stop-color:#11132D"/>
				<stop  offset="0.4715" style="stop-color:#2F1A3C"/>
				<stop  offset="0.6413" style="stop-color:#4B2049"/>
			</linearGradient>
			<path class="st28" d="M138.42,62.1"/>
			
				<linearGradient id="SVGID_25_" gradientUnits="userSpaceOnUse" x1="87.7524" y1="-72.8794" x2="87.7524" y2="-72.8794" gradientTransform="matrix(0.7814 -0.624 0.624 0.7814 114.8246 178.8087)">
				<stop  offset="0.1718" style="stop-color:#050D27"/>
				<stop  offset="0.2749" style="stop-color:#11132D"/>
				<stop  offset="0.4715" style="stop-color:#2F1A3C"/>
				<stop  offset="0.6413" style="stop-color:#4B2049"/>
			</linearGradient>
			<path class="st29" d="M137.92,67.1"/>
			
				<linearGradient id="SVGID_26_" gradientUnits="userSpaceOnUse" x1="91.2611" y1="-58.5194" x2="91.2611" y2="-58.5194" gradientTransform="matrix(0.7814 -0.624 0.624 0.7814 114.8246 178.8087)">
				<stop  offset="0.1718" style="stop-color:#050D27"/>
				<stop  offset="0.2749" style="stop-color:#11132D"/>
				<stop  offset="0.4715" style="stop-color:#2F1A3C"/>
				<stop  offset="0.6413" style="stop-color:#4B2049"/>
			</linearGradient>
			<path class="st30" d="M149.62,76.13"/>
			
				<linearGradient id="SVGID_27_" gradientUnits="userSpaceOnUse" x1="86.7913" y1="-61.3466" x2="86.7913" y2="-61.3466" gradientTransform="matrix(0.7814 -0.624 0.624 0.7814 114.8246 178.8087)">
				<stop  offset="0.1718" style="stop-color:#050D27"/>
				<stop  offset="0.2749" style="stop-color:#11132D"/>
				<stop  offset="0.4715" style="stop-color:#2F1A3C"/>
				<stop  offset="0.6413" style="stop-color:#4B2049"/>
			</linearGradient>
			<path class="st31" d="M144.36,76.71"/>
			
				<linearGradient id="SVGID_28_" gradientUnits="userSpaceOnUse" x1="84.5278" y1="-74.1914" x2="84.5278" y2="-74.1914" gradientTransform="matrix(0.7814 -0.624 0.624 0.7814 114.8246 178.8087)">
				<stop  offset="0.1718" style="stop-color:#050D27"/>
				<stop  offset="0.2749" style="stop-color:#11132D"/>
				<stop  offset="0.4715" style="stop-color:#2F1A3C"/>
				<stop  offset="0.6413" style="stop-color:#4B2049"/>
			</linearGradient>
			<path class="st32" d="M134.58,68.09"/>
			
				<linearGradient id="SVGID_29_" gradientUnits="userSpaceOnUse" x1="84.013" y1="-62.7945" x2="84.013" y2="-62.7945" gradientTransform="matrix(0.7814 -0.624 0.624 0.7814 114.8246 178.8087)">
				<stop  offset="0.1718" style="stop-color:#050D27"/>
				<stop  offset="0.2749" style="stop-color:#11132D"/>
				<stop  offset="0.4715" style="stop-color:#2F1A3C"/>
				<stop  offset="0.6413" style="stop-color:#4B2049"/>
			</linearGradient>
			<path class="st33" d="M141.29,77.32"/>
			
				<linearGradient id="SVGID_30_" gradientUnits="userSpaceOnUse" x1="82.5952" y1="-75.1436" x2="82.5952" y2="-75.1436" gradientTransform="matrix(0.7814 -0.624 0.624 0.7814 114.8246 178.8087)">
				<stop  offset="0.1718" style="stop-color:#050D27"/>
				<stop  offset="0.2749" style="stop-color:#11132D"/>
				<stop  offset="0.4715" style="stop-color:#2F1A3C"/>
				<stop  offset="0.6413" style="stop-color:#4B2049"/>
			</linearGradient>
			<path class="st34" d="M132.47,68.55"/>
			
				<linearGradient id="SVGID_31_" gradientUnits="userSpaceOnUse" x1="169.252" y1="-54.0033" x2="181.7258" y2="-54.0033" gradientTransform="matrix(0.7814 -0.624 0.624 0.7814 114.8246 178.8087)">
				<stop  offset="0.1718" style="stop-color:#050D27"/>
				<stop  offset="0.2749" style="stop-color:#11132D"/>
				<stop  offset="0.4715" style="stop-color:#2F1A3C"/>
				<stop  offset="0.6413" style="stop-color:#4B2049"/>
			</linearGradient>
			<path class="st35" d="M212.65,30.08c2.42-1.26,9.57-4.13,11.18-5.99"/>
			
				<linearGradient id="SVGID_32_" gradientUnits="userSpaceOnUse" x1="138.4789" y1="-34.6734" x2="172.904" y2="-34.6734" gradientTransform="matrix(0.7814 -0.624 0.624 0.7814 114.8246 178.8087)">
				<stop  offset="0.1718" style="stop-color:#050D27"/>
				<stop  offset="0.2749" style="stop-color:#11132D"/>
				<stop  offset="0.4715" style="stop-color:#2F1A3C"/>
				<stop  offset="0.6413" style="stop-color:#4B2049"/>
			</linearGradient>
			<path class="st36" d="M209.17,65.01l-13.21-6.51c0.23-0.24,3.37-2.13,3.37-2.13s-0.46,2.04,2.51-0.48
				c2.97-2.52,1.48-3.53,5.72-4.33c9.63-3.64,10.25-0.01,16.87-0.91c2.04-0.79,2.43,0.7,4.55,0.61c2.12-0.08,4.76-0.64,4.76-0.64"/>
			
				<linearGradient id="SVGID_33_" gradientUnits="userSpaceOnUse" x1="122.804" y1="-46.9448" x2="122.804" y2="-46.9448" gradientTransform="matrix(0.7814 -0.624 0.624 0.7814 114.8246 178.8087)">
				<stop  offset="0.1718" style="stop-color:#050D27"/>
				<stop  offset="0.2749" style="stop-color:#11132D"/>
				<stop  offset="0.4715" style="stop-color:#2F1A3C"/>
				<stop  offset="0.6413" style="stop-color:#4B2049"/>
			</linearGradient>
			<path class="st37" d="M181.49,65.5"/>
			
				<linearGradient id="SVGID_34_" gradientUnits="userSpaceOnUse" x1="130.7954" y1="-52.9496" x2="130.7954" y2="-52.9496" gradientTransform="matrix(0.7814 -0.624 0.624 0.7814 114.8246 178.8087)">
				<stop  offset="0.1718" style="stop-color:#050D27"/>
				<stop  offset="0.2749" style="stop-color:#11132D"/>
				<stop  offset="0.4715" style="stop-color:#2F1A3C"/>
				<stop  offset="0.6413" style="stop-color:#4B2049"/>
			</linearGradient>
			<path class="st38" d="M183.99,55.82"/>
			
				<linearGradient id="SVGID_35_" gradientUnits="userSpaceOnUse" x1="138.4789" y1="-43.3806" x2="138.4789" y2="-43.3806" gradientTransform="matrix(0.7814 -0.624 0.624 0.7814 114.8246 178.8087)">
				<stop  offset="0.1718" style="stop-color:#050D27"/>
				<stop  offset="0.2749" style="stop-color:#11132D"/>
				<stop  offset="0.4715" style="stop-color:#2F1A3C"/>
				<stop  offset="0.6413" style="stop-color:#4B2049"/>
			</linearGradient>
			<path class="st39" d="M195.96,58.5"/>
			
				<linearGradient id="SVGID_36_" gradientUnits="userSpaceOnUse" x1="108.9813" y1="-56.9823" x2="108.9813" y2="-56.9823" gradientTransform="matrix(0.7814 -0.624 0.624 0.7814 114.8246 178.8087)">
				<stop  offset="0.1718" style="stop-color:#050D27"/>
				<stop  offset="0.2749" style="stop-color:#11132D"/>
				<stop  offset="0.4715" style="stop-color:#2F1A3C"/>
				<stop  offset="0.6413" style="stop-color:#4B2049"/>
			</linearGradient>
			<path class="st40" d="M164.43,66.28"/>
			
				<linearGradient id="SVGID_37_" gradientUnits="userSpaceOnUse" x1="123.0052" y1="-58.5054" x2="123.0052" y2="-58.5054" gradientTransform="matrix(0.7814 -0.624 0.624 0.7814 114.8246 178.8087)">
				<stop  offset="0.1718" style="stop-color:#050D27"/>
				<stop  offset="0.2749" style="stop-color:#11132D"/>
				<stop  offset="0.4715" style="stop-color:#2F1A3C"/>
				<stop  offset="0.6413" style="stop-color:#4B2049"/>
			</linearGradient>
			<path class="st41" d="M174.43,56.34"/>
			
				<linearGradient id="SVGID_38_" gradientUnits="userSpaceOnUse" x1="152.4403" y1="-59.8837" x2="152.4403" y2="-59.8837" gradientTransform="matrix(0.7814 -0.624 0.624 0.7814 114.8246 178.8087)">
				<stop  offset="0.1718" style="stop-color:#050D27"/>
				<stop  offset="0.2749" style="stop-color:#11132D"/>
				<stop  offset="0.4715" style="stop-color:#2F1A3C"/>
				<stop  offset="0.6413" style="stop-color:#4B2049"/>
			</linearGradient>
			<path class="st42" d="M196.57,36.89"/>
			
				<linearGradient id="SVGID_39_" gradientUnits="userSpaceOnUse" x1="133.6139" y1="-49.4395" x2="133.6139" y2="-49.4395" gradientTransform="matrix(0.7814 -0.624 0.624 0.7814 114.8246 178.8087)">
				<stop  offset="0.1718" style="stop-color:#050D27"/>
				<stop  offset="0.2749" style="stop-color:#11132D"/>
				<stop  offset="0.4715" style="stop-color:#2F1A3C"/>
				<stop  offset="0.6413" style="stop-color:#4B2049"/>
			</linearGradient>
			<path class="st43" d="M188.38,56.8"/>
			
				<linearGradient id="SVGID_40_" gradientUnits="userSpaceOnUse" x1="158.1456" y1="-38.7656" x2="158.1456" y2="-38.7656" gradientTransform="matrix(0.7814 -0.624 0.624 0.7814 114.8246 178.8087)">
				<stop  offset="0.1718" style="stop-color:#050D27"/>
				<stop  offset="0.2749" style="stop-color:#11132D"/>
				<stop  offset="0.4715" style="stop-color:#2F1A3C"/>
				<stop  offset="0.6413" style="stop-color:#4B2049"/>
			</linearGradient>
			<path class="st44" d="M214.21,49.83"/>
			
				<linearGradient id="SVGID_41_" gradientUnits="userSpaceOnUse" x1="146.0848" y1="-56.3579" x2="146.0848" y2="-56.3579" gradientTransform="matrix(0.7814 -0.624 0.624 0.7814 114.8246 178.8087)">
				<stop  offset="0.1718" style="stop-color:#050D27"/>
				<stop  offset="0.2749" style="stop-color:#11132D"/>
				<stop  offset="0.4715" style="stop-color:#2F1A3C"/>
				<stop  offset="0.6413" style="stop-color:#4B2049"/>
			</linearGradient>
			<path class="st45" d="M193.81,43.61"/>
			
				<linearGradient id="SVGID_42_" gradientUnits="userSpaceOnUse" x1="80.4548" y1="-69.5211" x2="80.4548" y2="-69.5211" gradientTransform="matrix(0.7814 -0.624 0.624 0.7814 114.8246 178.8087)">
				<stop  offset="0.1718" style="stop-color:#050D27"/>
				<stop  offset="0.2749" style="stop-color:#11132D"/>
				<stop  offset="0.4715" style="stop-color:#2F1A3C"/>
				<stop  offset="0.6413" style="stop-color:#4B2049"/>
			</linearGradient>
			<path class="st46" d="M134.31,74.28"/>
			
				<linearGradient id="SVGID_43_" gradientUnits="userSpaceOnUse" x1="84.6004" y1="-54.028" x2="133.9961" y2="-54.028" gradientTransform="matrix(0.7814 -0.624 0.624 0.7814 114.8246 178.8087)">
				<stop  offset="0.1718" style="stop-color:#050D27"/>
				<stop  offset="0.2749" style="stop-color:#11132D"/>
				<stop  offset="0.4715" style="stop-color:#2F1A3C"/>
				<stop  offset="0.6413" style="stop-color:#4B2049"/>
			</linearGradient>
			<path class="st47" d="M174.17,75.9c-10.25,1.91-40.19-8.68-40.19-8.68l11.61-3.88c0,0,31.71,17.71,53.46,6.21"/>
			
				<linearGradient id="SVGID_44_" gradientUnits="userSpaceOnUse" x1="117.6364" y1="-70.2487" x2="117.6364" y2="-70.2487" gradientTransform="matrix(0.7814 -0.624 0.624 0.7814 114.8246 178.8087)">
				<stop  offset="0.1718" style="stop-color:#050D27"/>
				<stop  offset="0.2749" style="stop-color:#11132D"/>
				<stop  offset="0.4715" style="stop-color:#2F1A3C"/>
				<stop  offset="0.6413" style="stop-color:#4B2049"/>
			</linearGradient>
			<path class="st48" d="M162.91,50.51"/>
			
				<linearGradient id="SVGID_45_" gradientUnits="userSpaceOnUse" x1="118.639" y1="-62.813" x2="118.639" y2="-62.813" gradientTransform="matrix(0.7814 -0.624 0.624 0.7814 114.8246 178.8087)">
				<stop  offset="0.1718" style="stop-color:#050D27"/>
				<stop  offset="0.2749" style="stop-color:#11132D"/>
				<stop  offset="0.4715" style="stop-color:#2F1A3C"/>
				<stop  offset="0.6413" style="stop-color:#4B2049"/>
			</linearGradient>
			<path class="st49" d="M168.33,55.7"/>
			
				<linearGradient id="SVGID_46_" gradientUnits="userSpaceOnUse" x1="98.7878" y1="-74.5644" x2="98.7878" y2="-74.5644" gradientTransform="matrix(0.7814 -0.624 0.624 0.7814 114.8246 178.8087)">
				<stop  offset="0.1718" style="stop-color:#050D27"/>
				<stop  offset="0.2749" style="stop-color:#11132D"/>
				<stop  offset="0.4715" style="stop-color:#2F1A3C"/>
				<stop  offset="0.6413" style="stop-color:#4B2049"/>
			</linearGradient>
			<path class="st50" d="M145.49,58.9"/>
			
				<linearGradient id="SVGID_47_" gradientUnits="userSpaceOnUse" x1="96.0978" y1="-71.0304" x2="96.0978" y2="-71.0304" gradientTransform="matrix(0.7814 -0.624 0.624 0.7814 114.8246 178.8087)">
				<stop  offset="0.1718" style="stop-color:#050D27"/>
				<stop  offset="0.2749" style="stop-color:#11132D"/>
				<stop  offset="0.4715" style="stop-color:#2F1A3C"/>
				<stop  offset="0.6413" style="stop-color:#4B2049"/>
			</linearGradient>
			<path class="st51" d="M145.59,63.34"/>
			
				<linearGradient id="SVGID_48_" gradientUnits="userSpaceOnUse" x1="91.262" y1="-76.4746" x2="91.262" y2="-76.4746" gradientTransform="matrix(0.7814 -0.624 0.624 0.7814 114.8246 178.8087)">
				<stop  offset="0.1718" style="stop-color:#050D27"/>
				<stop  offset="0.2749" style="stop-color:#11132D"/>
				<stop  offset="0.4715" style="stop-color:#2F1A3C"/>
				<stop  offset="0.6413" style="stop-color:#4B2049"/>
			</linearGradient>
			<path class="st52" d="M138.42,62.1"/>
			
				<linearGradient id="SVGID_49_" gradientUnits="userSpaceOnUse" x1="81.2124" y1="-67.2219" x2="91.2611" y2="-67.2219" gradientTransform="matrix(0.7814 -0.624 0.624 0.7814 114.8246 178.8087)">
				<stop  offset="0.1718" style="stop-color:#050D27"/>
				<stop  offset="0.2749" style="stop-color:#11132D"/>
				<stop  offset="0.4715" style="stop-color:#2F1A3C"/>
				<stop  offset="0.6413" style="stop-color:#4B2049"/>
			</linearGradient>
			<path class="st53" d="M130.91,68.8c0,0,11.85,7.39,18.71,7.33"/>
			
				<linearGradient id="SVGID_50_" gradientUnits="userSpaceOnUse" x1="101.0604" y1="-70.0489" x2="101.0604" y2="-70.0489" gradientTransform="matrix(0.7814 -0.624 0.624 0.7814 114.8246 178.8087)">
				<stop  offset="0.1718" style="stop-color:#050D27"/>
				<stop  offset="0.2749" style="stop-color:#11132D"/>
				<stop  offset="0.4715" style="stop-color:#2F1A3C"/>
				<stop  offset="0.6413" style="stop-color:#4B2049"/>
			</linearGradient>
			<path class="st54" d="M150.08,61.01"/>
			
				<linearGradient id="SVGID_51_" gradientUnits="userSpaceOnUse" x1="92.5631" y1="-71.5335" x2="92.5631" y2="-71.5335" gradientTransform="matrix(0.7814 -0.624 0.624 0.7814 114.8246 178.8087)">
				<stop  offset="0.1718" style="stop-color:#050D27"/>
				<stop  offset="0.2749" style="stop-color:#11132D"/>
				<stop  offset="0.4715" style="stop-color:#2F1A3C"/>
				<stop  offset="0.6413" style="stop-color:#4B2049"/>
			</linearGradient>
			<path class="st55" d="M142.52,65.15"/>
			
				<linearGradient id="SVGID_52_" gradientUnits="userSpaceOnUse" x1="91.2618" y1="-57.2904" x2="113.0713" y2="-57.2904" gradientTransform="matrix(0.7814 -0.624 0.624 0.7814 114.8246 178.8087)">
				<stop  offset="0.1718" style="stop-color:#050D27"/>
				<stop  offset="0.2749" style="stop-color:#11132D"/>
				<stop  offset="0.4715" style="stop-color:#2F1A3C"/>
				<stop  offset="0.6413" style="stop-color:#4B2049"/>
			</linearGradient>
			<path class="st56" d="M140.71,64.97c0,0,20.19,10.2,36.4,10.63"/>
			
				<linearGradient id="SVGID_53_" gradientUnits="userSpaceOnUse" x1="112.9744" y1="-54.5473" x2="138.4789" y2="-54.5473" gradientTransform="matrix(0.7814 -0.624 0.624 0.7814 114.8246 178.8087)">
				<stop  offset="0.1718" style="stop-color:#050D27"/>
				<stop  offset="0.2749" style="stop-color:#11132D"/>
				<stop  offset="0.4715" style="stop-color:#2F1A3C"/>
				<stop  offset="0.6413" style="stop-color:#4B2049"/>
			</linearGradient>
			<path class="st57" d="M162.17,56.9c0,0,3.73,9.62,33.79,1.6"/>
			
				<linearGradient id="SVGID_54_" gradientUnits="userSpaceOnUse" x1="148.8529" y1="-33.8657" x2="165.6128" y2="-33.8657" gradientTransform="matrix(0.7814 -0.624 0.624 0.7814 114.8246 178.8087)">
				<stop  offset="0.1718" style="stop-color:#050D27"/>
				<stop  offset="0.2749" style="stop-color:#11132D"/>
				<stop  offset="0.4715" style="stop-color:#2F1A3C"/>
				<stop  offset="0.6413" style="stop-color:#4B2049"/>
			</linearGradient>
			<polyline class="st58" points="224.42,50.65 219.85,62.7 204.6,52.69 			"/>
			
				<linearGradient id="SVGID_55_" gradientUnits="userSpaceOnUse" x1="122.3225" y1="-23.7053" x2="134.7204" y2="-23.7053" gradientTransform="matrix(0.7814 -0.624 0.624 0.7814 114.8246 178.8087)">
				<stop  offset="0.1718" style="stop-color:#050D27"/>
				<stop  offset="0.2749" style="stop-color:#11132D"/>
				<stop  offset="0.4715" style="stop-color:#2F1A3C"/>
				<stop  offset="0.6413" style="stop-color:#4B2049"/>
			</linearGradient>
			<polyline class="st59" points="191.23,78.47 206.53,77.76 204.63,85.74 			"/>
			
				<linearGradient id="SVGID_56_" gradientUnits="userSpaceOnUse" x1="162.7671" y1="-40.3796" x2="204.7506" y2="-40.3796" gradientTransform="matrix(0.7814 -0.624 0.624 0.7814 114.8246 178.8087)">
				<stop  offset="0.1718" style="stop-color:#050D27"/>
				<stop  offset="0.2749" style="stop-color:#11132D"/>
				<stop  offset="0.4715" style="stop-color:#2F1A3C"/>
				<stop  offset="0.6413" style="stop-color:#4B2049"/>
			</linearGradient>
			<path class="st60" d="M220.88,50.78c0,0,13.43-11.68,24.68-36.38"/>
			
				<linearGradient id="SVGID_57_" gradientUnits="userSpaceOnUse" x1="151.8658" y1="-50.0977" x2="212.2086" y2="-50.0977" gradientTransform="matrix(0.7814 -0.624 0.624 0.7814 114.8246 178.8087)">
				<stop  offset="0.1718" style="stop-color:#050D27"/>
				<stop  offset="0.2749" style="stop-color:#11132D"/>
				<stop  offset="0.4715" style="stop-color:#2F1A3C"/>
				<stop  offset="0.6413" style="stop-color:#4B2049"/>
			</linearGradient>
			<path class="st61" d="M240.4,3.22l9.61,4.81c-19.43,27.99-42.46,43.53-42.46,43.53"/>
			
				<linearGradient id="SVGID_58_" gradientUnits="userSpaceOnUse" x1="123.0052" y1="-58.5054" x2="123.0052" y2="-58.5054" gradientTransform="matrix(0.7814 -0.624 0.624 0.7814 114.8246 178.8087)">
				<stop  offset="0.1718" style="stop-color:#050D27"/>
				<stop  offset="0.2749" style="stop-color:#11132D"/>
				<stop  offset="0.4715" style="stop-color:#2F1A3C"/>
				<stop  offset="0.6413" style="stop-color:#4B2049"/>
			</linearGradient>
			<path class="st62" d="M174.43,56.34"/>
			
				<linearGradient id="SVGID_59_" gradientUnits="userSpaceOnUse" x1="204.7506" y1="-46.8942" x2="204.7506" y2="-46.8942" gradientTransform="matrix(0.7814 -0.624 0.624 0.7814 114.8246 178.8087)">
				<stop  offset="0.1718" style="stop-color:#050D27"/>
				<stop  offset="0.2749" style="stop-color:#11132D"/>
				<stop  offset="0.4715" style="stop-color:#2F1A3C"/>
				<stop  offset="0.6413" style="stop-color:#4B2049"/>
			</linearGradient>
			<path class="st63" d="M245.55,14.4"/>
			
				<linearGradient id="SVGID_60_" gradientUnits="userSpaceOnUse" x1="142.4382" y1="-42.9416" x2="142.4382" y2="-42.9416" gradientTransform="matrix(0.7814 -0.624 0.624 0.7814 114.8246 178.8087)">
				<stop  offset="0.1718" style="stop-color:#050D27"/>
				<stop  offset="0.2749" style="stop-color:#11132D"/>
				<stop  offset="0.4715" style="stop-color:#2F1A3C"/>
				<stop  offset="0.6413" style="stop-color:#4B2049"/>
			</linearGradient>
			<path class="st64" d="M199.33,56.37"/>
			
				<linearGradient id="SVGID_61_" gradientUnits="userSpaceOnUse" x1="123.0052" y1="-52.9927" x2="212.2086" y2="-52.9927" gradientTransform="matrix(0.7814 -0.624 0.624 0.7814 114.8246 178.8087)">
				<stop  offset="0.1718" style="stop-color:#050D27"/>
				<stop  offset="0.2749" style="stop-color:#11132D"/>
				<stop  offset="0.4715" style="stop-color:#2F1A3C"/>
				<stop  offset="0.6413" style="stop-color:#4B2049"/>
			</linearGradient>
			<path class="st65" d="M174.43,56.34c0,0,35.49-7.79,75.58-48.31l-13.66,5.98c-2.63,11.06-13.57,9.01-13.57,9.01"/>
			
				<linearGradient id="SVGID_62_" gradientUnits="userSpaceOnUse" x1="120.3448" y1="-61.2563" x2="140.2822" y2="-61.2563" gradientTransform="matrix(0.7814 -0.624 0.624 0.7814 114.8246 178.8087)">
				<stop  offset="0.1718" style="stop-color:#050D27"/>
				<stop  offset="0.2749" style="stop-color:#11132D"/>
				<stop  offset="0.4715" style="stop-color:#2F1A3C"/>
				<stop  offset="0.6413" style="stop-color:#4B2049"/>
			</linearGradient>
			<line class="st66" x1="165.48" y1="49.39" x2="191.37" y2="49.86"/>
		</g>
		<linearGradient id="SVGID_63_" gradientUnits="userSpaceOnUse" x1="244.7471" y1="2.9397" x2="244.7471" y2="2.9397">
			<stop  offset="0.1718" style="stop-color:#050D27"/>
			<stop  offset="0.2749" style="stop-color:#11132D"/>
			<stop  offset="0.4715" style="stop-color:#2F1A3C"/>
			<stop  offset="0.6413" style="stop-color:#4B2049"/>
		</linearGradient>
		<path class="st67" d="M244.75,2.94"/>
		<linearGradient id="SVGID_64_" gradientUnits="userSpaceOnUse" x1="242.7337" y1="2.8117" x2="243.9008" y2="1.8798">
			<stop  offset="0.1718" style="stop-color:#050D27"/>
			<stop  offset="0.2749" style="stop-color:#11132D"/>
			<stop  offset="0.4715" style="stop-color:#2F1A3C"/>
			<stop  offset="0.6413" style="stop-color:#4B2049"/>
		</linearGradient>
		<line class="st68" x1="244.75" y1="2.94" x2="241.89" y2="1.75"/>
		<path class="st69" d="M225.05,63.36c-0.77,7.97-13.27,6.57-12.26-1.37C213.56,54.02,226.06,55.41,225.05,63.36z"/>
		<path class="st69" d="M176.82,84.3c-0.32,3.31-5.51,2.73-5.09-0.57C172.05,80.42,177.24,81,176.82,84.3z"/>
	</g>
</g>
<g id="가이드라인" class="st0">
	<rect x="-6" y="-6" class="st70" width="266.46" height="153.07"/>
	<rect x="232.01" width="23.11" height="22.35"/>
</g>
</svg>
