<?xml version="1.0" encoding="utf-8"?>
<!-- Generator: Adobe Illustrator 24.3.0, SVG Export Plug-In . SVG Version: 6.00 Build 0)  -->
<svg version="1.1" xmlns="http://www.w3.org/2000/svg" xmlns:xlink="http://www.w3.org/1999/xlink" x="0px" y="0px"
	 viewBox="0 0 255.12 141.73" style="enable-background:new 0 0 255.12 141.73;" xml:space="preserve">
<style type="text/css">
	.st0{display:none;fill:#EEBFBF;}
	.st1{fill:url(#SVGID_1_);}
	.st2{fill:none;stroke:#FBF1EF;stroke-miterlimit:10;}
	.st3{fill:none;stroke:#FBF1EF;stroke-width:0.75;stroke-miterlimit:10;}
	.st4{fill:#FBF1EF;stroke:#FBF1EF;stroke-miterlimit:10;}
	.st5{fill:#FFFFFF;}
	.st6{fill:url(#SVGID_2_);stroke:#FBF1EF;stroke-width:0.6;stroke-miterlimit:10;}
	.st7{fill:url(#SVGID_3_);stroke:#FBF1EF;stroke-width:0.6;stroke-miterlimit:10;}
	.st8{fill:url(#SVGID_4_);stroke:#FBF1EF;stroke-width:0.6;stroke-miterlimit:10;}
	.st9{fill:url(#SVGID_5_);stroke:#FBF1EF;stroke-width:0.6;stroke-miterlimit:10;}
	.st10{fill:url(#SVGID_6_);stroke:#FBF1EF;stroke-width:0.6;stroke-miterlimit:10;}
	.st11{fill:url(#SVGID_7_);stroke:#FBF1EF;stroke-width:0.6;stroke-miterlimit:10;}
	.st12{fill:url(#SVGID_8_);stroke:#FBF1EF;stroke-width:0.6;stroke-miterlimit:10;}
	.st13{fill:url(#SVGID_9_);stroke:#FBF1EF;stroke-width:0.6;stroke-miterlimit:10;}
	.st14{fill:url(#SVGID_10_);stroke:#FBF1EF;stroke-width:0.6;stroke-miterlimit:10;}
	.st15{fill:url(#SVGID_11_);stroke:#FBF1EF;stroke-width:0.6;stroke-miterlimit:10;}
	.st16{fill:url(#SVGID_12_);stroke:#FBF1EF;stroke-width:0.6;stroke-miterlimit:10;}
	.st17{fill:url(#SVGID_13_);stroke:#FBF1EF;stroke-width:0.6;stroke-miterlimit:10;}
	.st18{fill:url(#SVGID_14_);stroke:#FBF1EF;stroke-width:0.6;stroke-miterlimit:10;}
	.st19{fill:url(#SVGID_15_);stroke:#FBF1EF;stroke-width:0.6;stroke-miterlimit:10;}
	.st20{fill:url(#SVGID_16_);stroke:#FBF1EF;stroke-width:0.6;stroke-miterlimit:10;}
	.st21{fill:url(#SVGID_17_);stroke:#FBF1EF;stroke-width:0.6;stroke-miterlimit:10;}
	.st22{fill:url(#SVGID_18_);stroke:#FBF1EF;stroke-width:0.6;stroke-miterlimit:10;}
	.st23{fill:url(#SVGID_19_);stroke:#FBF1EF;stroke-width:0.6;stroke-miterlimit:10;}
	.st24{fill:url(#SVGID_20_);stroke:#FBF1EF;stroke-width:0.6;stroke-miterlimit:10;}
	.st25{fill:url(#SVGID_21_);stroke:#FBF1EF;stroke-width:0.6;stroke-miterlimit:10;}
	.st26{fill:url(#SVGID_22_);stroke:#FBF1EF;stroke-width:0.6;stroke-miterlimit:10;}
	.st27{fill:url(#SVGID_23_);stroke:#FBF1EF;stroke-width:0.6;stroke-miterlimit:10;}
	.st28{fill:url(#SVGID_24_);stroke:#FBF1EF;stroke-width:0.6;stroke-miterlimit:10;}
	.st29{fill:url(#SVGID_25_);stroke:#FBF1EF;stroke-width:0.6;stroke-miterlimit:10;}
	.st30{fill:url(#SVGID_26_);stroke:#FBF1EF;stroke-width:0.6;stroke-miterlimit:10;}
	.st31{fill:url(#SVGID_27_);stroke:#FBF1EF;stroke-width:0.6;stroke-miterlimit:10;}
	.st32{fill:url(#SVGID_28_);stroke:#FBF1EF;stroke-width:0.6;stroke-miterlimit:10;}
	.st33{fill:url(#SVGID_29_);stroke:#FBF1EF;stroke-width:0.6;stroke-miterlimit:10;}
	.st34{fill:url(#SVGID_30_);stroke:#FBF1EF;stroke-width:0.6;stroke-miterlimit:10;}
	.st35{fill:url(#SVGID_31_);stroke:#FBF1EF;stroke-width:0.6;stroke-miterlimit:10;}
	.st36{fill:url(#SVGID_32_);stroke:#FBF1EF;stroke-width:0.6;stroke-miterlimit:10;}
	.st37{fill:url(#SVGID_33_);stroke:#FBF1EF;stroke-width:0.6;stroke-miterlimit:10;}
	.st38{fill:url(#SVGID_34_);stroke:#FBF1EF;stroke-width:0.6;stroke-miterlimit:10;}
	.st39{fill:url(#SVGID_35_);stroke:#FBF1EF;stroke-width:0.6;stroke-miterlimit:10;}
	.st40{fill:url(#SVGID_36_);stroke:#FBF1EF;stroke-width:0.6;stroke-miterlimit:10;}
	.st41{fill:url(#SVGID_37_);stroke:#FBF1EF;stroke-width:0.6;stroke-miterlimit:10;}
	.st42{fill:url(#SVGID_38_);stroke:#FBF1EF;stroke-width:0.6;stroke-miterlimit:10;}
	.st43{fill:url(#SVGID_39_);stroke:#FBF1EF;stroke-width:0.6;stroke-miterlimit:10;}
	.st44{fill:url(#SVGID_40_);stroke:#FBF1EF;stroke-width:0.6;stroke-miterlimit:10;}
	.st45{fill:url(#SVGID_41_);stroke:#FBF1EF;stroke-width:0.6;stroke-miterlimit:10;}
	.st46{fill:url(#SVGID_42_);stroke:#FBF1EF;stroke-width:0.6;stroke-miterlimit:10;}
	.st47{fill:url(#SVGID_43_);stroke:#FBF1EF;stroke-width:0.6;stroke-miterlimit:10;}
	.st48{fill:url(#SVGID_44_);stroke:#FBF1EF;stroke-width:0.6;stroke-miterlimit:10;}
	.st49{fill:url(#SVGID_45_);stroke:#FBF1EF;stroke-width:0.6;stroke-miterlimit:10;}
	.st50{fill:url(#SVGID_46_);stroke:#FBF1EF;stroke-width:0.6;stroke-miterlimit:10;}
	.st51{fill:url(#SVGID_47_);stroke:#FBF1EF;stroke-width:0.6;stroke-miterlimit:10;}
	.st52{fill:url(#SVGID_48_);stroke:#FBF1EF;stroke-width:0.6;stroke-miterlimit:10;}
	.st53{fill:url(#SVGID_49_);stroke:#FBF1EF;stroke-width:0.6;stroke-miterlimit:10;}
	.st54{fill:url(#SVGID_50_);stroke:#FBF1EF;stroke-width:0.6;stroke-miterlimit:10;}
	.st55{fill:url(#SVGID_51_);stroke:#FBF1EF;stroke-width:0.6;stroke-miterlimit:10;}
	.st56{fill:url(#SVGID_52_);stroke:#FBF1EF;stroke-width:0.6;stroke-miterlimit:10;}
	.st57{fill:url(#SVGID_53_);stroke:#FBF1EF;stroke-width:0.6;stroke-miterlimit:10;}
	.st58{fill:url(#SVGID_54_);stroke:#FBF1EF;stroke-width:0.6;stroke-miterlimit:10;}
	.st59{fill:url(#SVGID_55_);stroke:#FBF1EF;stroke-width:0.6;stroke-miterlimit:10;}
	.st60{fill:url(#SVGID_56_);stroke:#FBF1EF;stroke-width:0.6;stroke-miterlimit:10;}
	.st61{fill:url(#SVGID_57_);stroke:#FBF1EF;stroke-width:0.6;stroke-miterlimit:10;}
	.st62{fill:#050D27;stroke:#FBF1EF;stroke-width:0.75;stroke-miterlimit:10;}
	.st63{display:none;}
	.st64{display:inline;}
	.st65{fill:none;stroke:#E61A15;stroke-miterlimit:10;}
</style>
<g id="Layer_1">
	
		<rect x="262.24" y="90.7" transform="matrix(0.7071 -0.7071 0.7071 0.7071 -20.2911 243.9262)" class="st0" width="44.12" height="111.51"/>
	<linearGradient id="SVGID_1_" gradientUnits="userSpaceOnUse" x1="72.8331" y1="37.2986" x2="351.5171" y2="216.894">
		<stop  offset="0.1718" style="stop-color:#050D27"/>
		<stop  offset="0.2749" style="stop-color:#11132D"/>
		<stop  offset="0.4715" style="stop-color:#2F1A3C"/>
		<stop  offset="0.6413" style="stop-color:#4B2049"/>
	</linearGradient>
	<rect x="-9.5" y="-6.94" class="st1" width="269.29" height="155.91"/>
	<path class="st2" d="M164.83,71.47c-0.74,1.09-2.96,0.86-4.96-0.5c-2.01-1.36-3.04-3.34-2.3-4.43c0.74-1.09,2.96-0.86,4.96,0.5
		C164.53,68.41,165.56,70.39,164.83,71.47z"/>
	<path class="st2" d="M154.94,69.58c-0.15,1.38-0.8,2.44-1.44,2.37s-1.03-1.25-0.88-2.63c0.15-1.38,0.8-2.44,1.44-2.37
		C154.71,67.03,155.1,68.2,154.94,69.58z"/>
	<circle class="st3" cx="133.74" cy="80.79" r="39.41"/>
	<path class="st4" d="M164.7,107.46c0,1.23-0.99,2.22-2.22,2.22s-2.22-0.99-2.22-2.22s0.99-2.22,2.22-2.22
		S164.7,106.23,164.7,107.46z"/>
	<g>
		<path class="st5" d="M110.49,51.22c0.08,0,0.15-0.01,0.22-0.02c0.55-0.1,0.97-0.58,0.98-1.16c0.01-0.66-0.52-1.2-1.18-1.2
			c-1.9-0.02-3.59-0.77-4.77-2.11c-0.98-1.12-1.46-2.52-1.3-3.83c0.34-2.82,3.68-4.75,7.44-4.3c0.65,0.08,1.25-0.39,1.33-1.04
			c0.08-0.65-0.39-1.25-1.04-1.33c-2.4-0.29-4.76,0.18-6.65,1.33c-1.97,1.2-3.2,3-3.45,5.05c-0.24,1.98,0.44,4.06,1.87,5.69
			C105.56,50.13,107.94,51.19,110.49,51.22z"/>
		<path class="st5" d="M151.8,35.93c-1.79,0.4-3.23,2.29-4.13,3.81c-0.79,1.33-1.51,2.98-2.02,4.69l-0.09-0.64
			c-0.09-0.65-0.7-1.11-1.35-1.01c-0.65,0.09-1.11,0.7-1.01,1.35l0.59,4.17l0,0.02c0.07,0.43,0.17,1.47-0.42,1.79
			c-0.4,0.21-1.16,0.12-1.79-0.47c-1.22-1.15-2.03-6.73-1.08-9.86c0.19-0.63-0.17-1.3-0.8-1.49c-0.63-0.19-1.3,0.17-1.49,0.8
			c-0.25,0.84-0.41,1.87-0.48,3c-1.2-1.31-2.89-1.9-4.64-1.58c-2.88,0.52-4.84,3.26-4.2,6.81c0.19,1.08,0.59,2.06,1.13,2.88
			c-0.78,1.55-1.91,2.63-3.21,3.05c-1.07,0.35-2.19,0.23-3.23-0.35c-0.72-0.4-1.32-1.31-1.67-2.57c-0.1-0.35-0.17-0.71-0.23-1.09
			l3.6-0.65c0.65-0.12,1.08-0.74,0.96-1.38c-0.12-0.65-0.74-1.08-1.38-0.96l-3.24,0.58c0.12-1.33,0.48-2.62,1.05-3.62
			c0.33-0.57,0.13-1.3-0.44-1.63c-0.57-0.33-1.3-0.13-1.63,0.44c-0.53,0.92-0.91,2-1.15,3.14c-0.14,0.69-0.22,1.4-0.25,2.11
			l-3.08,0.55c-0.13,0.02-0.25,0.07-0.36,0.13c-0.21-0.33-0.44-0.65-0.71-0.96c-1.43-1.68-3.53-2.86-5.9-3.33
			c-0.65-0.13-1.27,0.29-1.4,0.94s0.29,1.27,0.94,1.4c3.71,0.74,6.28,3.61,5.73,6.4c-0.56,2.79-4.03,4.46-7.74,3.72
			c-0.65-0.13-1.27,0.29-1.4,0.94c-0.13,0.65,0.29,1.27,0.94,1.4c1.39,0.28,2.79,0.29,4.1,0.06c0.93-0.17,1.81-0.46,2.63-0.87
			c2.06-1.05,3.42-2.74,3.82-4.77c0.18-0.91,0.16-1.83-0.05-2.72l2.63-0.47c0.01,0.06,0.02,0.12,0.03,0.18
			c0.06,0.38,0.15,0.76,0.25,1.12c0.33,1.19,0.84,2.18,1.49,2.93c0.39,0.45,0.83,0.82,1.32,1.09c1.35,0.74,2.84,1,4.29,0.74
			c0.28-0.05,0.55-0.12,0.82-0.21c1.69-0.54,3.16-1.78,4.22-3.53c1.05,0.72,2.27,1.04,3.5,0.82c1.62-0.29,2.9-1.46,3.6-3.07
			c0.28,0.63,0.64,1.21,1.08,1.62c1.02,0.96,2.39,1.38,3.6,1.16c0.33-0.06,0.65-0.17,0.94-0.32c0.22-0.12,0.55-0.33,0.85-0.67
			c0.26,0.36,0.71,0.54,1.17,0.46c0.04-0.01,0.08-0.02,0.12-0.03c0.63-0.18,1-0.84,0.81-1.48c-0.6-2.07,0.45-6.44,2.28-9.55
			c1.06-1.79,2.04-2.57,2.6-2.69c0.64-0.14,1.05-0.78,0.9-1.43C153.08,36.19,152.44,35.79,151.8,35.93z M134.85,50.47
			c-1.55,0.28-3.2-1.35-3.6-3.57c-0.2-1.1-0.05-2.08,0.44-2.83c0.42-0.65,1.06-1.07,1.84-1.21c1.68-0.3,3.07,0.91,3.45,3.01
			C137.37,48.08,136.4,50.19,134.85,50.47z"/>
	</g>
	<path class="st4" d="M172.56,98.94c0,1.92-1.56,3.48-3.48,3.48c-1.92,0-3.48-1.56-3.48-3.48c0-1.92,1.56-3.48,3.48-3.48
		C171,95.46,172.56,97.02,172.56,98.94z"/>
	<path class="st2" d="M41.04,103.55"/>
	<polyline class="st3" points="183.99,15.75 10.41,130.19 224.5,106.94 62.24,33.64 161.19,135.16 183.99,37.98 	"/>
	<g>
		<linearGradient id="SVGID_2_" gradientUnits="userSpaceOnUse" x1="86.7304" y1="100.2151" x2="160.6792" y2="100.2151">
			<stop  offset="0.1718" style="stop-color:#050D27"/>
			<stop  offset="0.2749" style="stop-color:#11132D"/>
			<stop  offset="0.4715" style="stop-color:#2F1A3C"/>
			<stop  offset="0.6413" style="stop-color:#4B2049"/>
		</linearGradient>
		<path class="st6" d="M106.54,101.99c0,0-0.42,0.77,0.3,2.64c0.72,1.87,0.16-0.71,0.93,1.12c0.77,1.83,1.1,2.63,1.1,2.63l0.21,1.79
			c0,0,2.12,3.94,1.58,2.42c-0.54-1.52-0.19-0.41,0.62,1.6c0.81,2.01,1.05,1.55,1.05,1.55s1.38,2.59,2.98,0.09
			c-0.93-3.08-2.84-10.24-1.85-11.08c2.62,0.78,0.98,0.95,5.22,1.34c2.26,2,2.32,0.69,4.76,2.36c2.44,1.68,2.1,1.28,2.1,1.28
			s3.24,0.5,5.37,1.99c2.85-1.05,3.3-1.54,3.3-1.54s-1.34-2.24-1.83-2.11c-0.49,0.13,9.92-3.17,15.48-10.18
			c3.51-0.98,12.17-3.13,12.84-8.64c-2.7,1.11-4.45,0.97-4.45,0.97s-1.05-0.34-6.95,1.86c-2.04-2.66-2.21,0.33-5.82-4.69
			c-1.45,4.44,1.01,7.56,1.01,7.56s-3.43,2.28-7.82,0.03c0,0,0.11-0.95-0.29-1.92c-0.4-0.97-3.12,1.23-5.77,0.81
			c-2.65-0.42-19.28-5.82-25.1-7.33c-2.1-1.86-5.37-1.99-7.53-1.89c-2.16,0.1-6.02-2.19-8.53-0.54c-1.64-1.04-2.5,0.29-2.5,0.29
			l-0.2,0.82c0,0,0.25,0.91,0.89,2.07c-1.24,0.58,0.25,2.22,0.25,2.22l2.62,1.36c0,0,2.38,1.17,6.1,4.58
			C100.32,98.87,105.43,101.83,106.54,101.99z"/>
		<linearGradient id="SVGID_3_" gradientUnits="userSpaceOnUse" x1="111.5473" y1="88.2803" x2="111.5473" y2="88.2803">
			<stop  offset="0.1718" style="stop-color:#050D27"/>
			<stop  offset="0.2749" style="stop-color:#11132D"/>
			<stop  offset="0.4715" style="stop-color:#2F1A3C"/>
			<stop  offset="0.6413" style="stop-color:#4B2049"/>
		</linearGradient>
		<path class="st7" d="M111.55,88.28"/>
		<linearGradient id="SVGID_4_" gradientUnits="userSpaceOnUse" x1="111.8871" y1="94.954" x2="111.8871" y2="94.954">
			<stop  offset="0.1718" style="stop-color:#050D27"/>
			<stop  offset="0.2749" style="stop-color:#11132D"/>
			<stop  offset="0.4715" style="stop-color:#2F1A3C"/>
			<stop  offset="0.6413" style="stop-color:#4B2049"/>
		</linearGradient>
		<path class="st8" d="M111.89,94.95"/>
		<linearGradient id="SVGID_5_" gradientUnits="userSpaceOnUse" x1="94.653" y1="89.1883" x2="108.0994" y2="89.1883">
			<stop  offset="0.1718" style="stop-color:#050D27"/>
			<stop  offset="0.2749" style="stop-color:#11132D"/>
			<stop  offset="0.4715" style="stop-color:#2F1A3C"/>
			<stop  offset="0.6413" style="stop-color:#4B2049"/>
		</linearGradient>
		<path class="st9" d="M94.65,86.12c3.73,0.37,8.91,2.55,11.32,4.04c0.69,2.19,2.12,2.09,2.12,2.09"/>
		<linearGradient id="SVGID_6_" gradientUnits="userSpaceOnUse" x1="87.7797" y1="83.7851" x2="87.7797" y2="83.7851">
			<stop  offset="0.1718" style="stop-color:#050D27"/>
			<stop  offset="0.2749" style="stop-color:#11132D"/>
			<stop  offset="0.4715" style="stop-color:#2F1A3C"/>
			<stop  offset="0.6413" style="stop-color:#4B2049"/>
		</linearGradient>
		<path class="st10" d="M87.78,83.79"/>
		<linearGradient id="SVGID_7_" gradientUnits="userSpaceOnUse" x1="102.4851" y1="85.0318" x2="102.4851" y2="85.0318">
			<stop  offset="0.1718" style="stop-color:#050D27"/>
			<stop  offset="0.2749" style="stop-color:#11132D"/>
			<stop  offset="0.4715" style="stop-color:#2F1A3C"/>
			<stop  offset="0.6413" style="stop-color:#4B2049"/>
		</linearGradient>
		<path class="st11" d="M102.49,85.03"/>
		<linearGradient id="SVGID_8_" gradientUnits="userSpaceOnUse" x1="99.7233" y1="96.6606" x2="117.6661" y2="96.6606">
			<stop  offset="0.1718" style="stop-color:#050D27"/>
			<stop  offset="0.2749" style="stop-color:#11132D"/>
			<stop  offset="0.4715" style="stop-color:#2F1A3C"/>
			<stop  offset="0.6413" style="stop-color:#4B2049"/>
		</linearGradient>
		<path class="st12" d="M117.67,105.99c0,0-6.36-6.65-11.73-9.29c-5.37-2.64-5.34-5.54-5.34-5.54l-0.87-3.83"/>
		<linearGradient id="SVGID_9_" gradientUnits="userSpaceOnUse" x1="99.351" y1="84.6356" x2="99.351" y2="84.6356">
			<stop  offset="0.1718" style="stop-color:#050D27"/>
			<stop  offset="0.2749" style="stop-color:#11132D"/>
			<stop  offset="0.4715" style="stop-color:#2F1A3C"/>
			<stop  offset="0.6413" style="stop-color:#4B2049"/>
		</linearGradient>
		<path class="st13" d="M99.35,84.64"/>
		<linearGradient id="SVGID_10_" gradientUnits="userSpaceOnUse" x1="96.4295" y1="86.406" x2="96.4295" y2="86.406">
			<stop  offset="0.1718" style="stop-color:#050D27"/>
			<stop  offset="0.2749" style="stop-color:#11132D"/>
			<stop  offset="0.4715" style="stop-color:#2F1A3C"/>
			<stop  offset="0.6413" style="stop-color:#4B2049"/>
		</linearGradient>
		<path class="st14" d="M96.43,86.41"/>
		<linearGradient id="SVGID_11_" gradientUnits="userSpaceOnUse" x1="113.4437" y1="104.7435" x2="113.4437" y2="104.7435">
			<stop  offset="0.1718" style="stop-color:#050D27"/>
			<stop  offset="0.2749" style="stop-color:#11132D"/>
			<stop  offset="0.4715" style="stop-color:#2F1A3C"/>
			<stop  offset="0.6413" style="stop-color:#4B2049"/>
		</linearGradient>
		<path class="st15" d="M113.44,104.74"/>
		<linearGradient id="SVGID_12_" gradientUnits="userSpaceOnUse" x1="96.8543" y1="84.6356" x2="96.8543" y2="84.6356">
			<stop  offset="0.1718" style="stop-color:#050D27"/>
			<stop  offset="0.2749" style="stop-color:#11132D"/>
			<stop  offset="0.4715" style="stop-color:#2F1A3C"/>
			<stop  offset="0.6413" style="stop-color:#4B2049"/>
		</linearGradient>
		<path class="st16" d="M96.85,84.64"/>
		<linearGradient id="SVGID_13_" gradientUnits="userSpaceOnUse" x1="113.4437" y1="104.7435" x2="113.4437" y2="104.7435">
			<stop  offset="0.1718" style="stop-color:#050D27"/>
			<stop  offset="0.2749" style="stop-color:#11132D"/>
			<stop  offset="0.4715" style="stop-color:#2F1A3C"/>
			<stop  offset="0.6413" style="stop-color:#4B2049"/>
		</linearGradient>
		<path class="st17" d="M113.44,104.74"/>
		<linearGradient id="SVGID_14_" gradientUnits="userSpaceOnUse" x1="95.017" y1="84.108" x2="95.017" y2="84.108">
			<stop  offset="0.1718" style="stop-color:#050D27"/>
			<stop  offset="0.2749" style="stop-color:#11132D"/>
			<stop  offset="0.4715" style="stop-color:#2F1A3C"/>
			<stop  offset="0.6413" style="stop-color:#4B2049"/>
		</linearGradient>
		<path class="st18" d="M95.02,84.11"/>
		<linearGradient id="SVGID_15_" gradientUnits="userSpaceOnUse" x1="93.2984" y1="85.9196" x2="93.2984" y2="85.9196">
			<stop  offset="0.1718" style="stop-color:#050D27"/>
			<stop  offset="0.2749" style="stop-color:#11132D"/>
			<stop  offset="0.4715" style="stop-color:#2F1A3C"/>
			<stop  offset="0.6413" style="stop-color:#4B2049"/>
		</linearGradient>
		<path class="st19" d="M93.3,85.92"/>
		<linearGradient id="SVGID_16_" gradientUnits="userSpaceOnUse" x1="99.351" y1="97.7338" x2="99.351" y2="97.7338">
			<stop  offset="0.1718" style="stop-color:#050D27"/>
			<stop  offset="0.2749" style="stop-color:#11132D"/>
			<stop  offset="0.4715" style="stop-color:#2F1A3C"/>
			<stop  offset="0.6413" style="stop-color:#4B2049"/>
		</linearGradient>
		<path class="st20" d="M99.35,97.73"/>
		<linearGradient id="SVGID_17_" gradientUnits="userSpaceOnUse" x1="95.2908" y1="94.3047" x2="95.2908" y2="94.3047">
			<stop  offset="0.1718" style="stop-color:#050D27"/>
			<stop  offset="0.2749" style="stop-color:#11132D"/>
			<stop  offset="0.4715" style="stop-color:#2F1A3C"/>
			<stop  offset="0.6413" style="stop-color:#4B2049"/>
		</linearGradient>
		<path class="st21" d="M95.29,94.3"/>
		<linearGradient id="SVGID_18_" gradientUnits="userSpaceOnUse" x1="91.7461" y1="85.526" x2="91.7461" y2="85.526">
			<stop  offset="0.1718" style="stop-color:#050D27"/>
			<stop  offset="0.2749" style="stop-color:#11132D"/>
			<stop  offset="0.4715" style="stop-color:#2F1A3C"/>
			<stop  offset="0.6413" style="stop-color:#4B2049"/>
		</linearGradient>
		<path class="st22" d="M91.75,85.53"/>
		<linearGradient id="SVGID_19_" gradientUnits="userSpaceOnUse" x1="92.6657" y1="83.5174" x2="92.6657" y2="83.5174">
			<stop  offset="0.1718" style="stop-color:#050D27"/>
			<stop  offset="0.2749" style="stop-color:#11132D"/>
			<stop  offset="0.4715" style="stop-color:#2F1A3C"/>
			<stop  offset="0.6413" style="stop-color:#4B2049"/>
		</linearGradient>
		<path class="st23" d="M92.67,83.52"/>
		<linearGradient id="SVGID_20_" gradientUnits="userSpaceOnUse" x1="90.9595" y1="85.2654" x2="90.9595" y2="85.2654">
			<stop  offset="0.1718" style="stop-color:#050D27"/>
			<stop  offset="0.2749" style="stop-color:#11132D"/>
			<stop  offset="0.4715" style="stop-color:#2F1A3C"/>
			<stop  offset="0.6413" style="stop-color:#4B2049"/>
		</linearGradient>
		<path class="st24" d="M90.96,85.27"/>
		<linearGradient id="SVGID_21_" gradientUnits="userSpaceOnUse" x1="92.6657" y1="92.247" x2="92.6657" y2="92.247">
			<stop  offset="0.1718" style="stop-color:#050D27"/>
			<stop  offset="0.2749" style="stop-color:#11132D"/>
			<stop  offset="0.4715" style="stop-color:#2F1A3C"/>
			<stop  offset="0.6413" style="stop-color:#4B2049"/>
		</linearGradient>
		<path class="st25" d="M92.67,92.25"/>
		<linearGradient id="SVGID_22_" gradientUnits="userSpaceOnUse" x1="90.4925" y1="90.8726" x2="90.4925" y2="90.8726">
			<stop  offset="0.1718" style="stop-color:#050D27"/>
			<stop  offset="0.2749" style="stop-color:#11132D"/>
			<stop  offset="0.4715" style="stop-color:#2F1A3C"/>
			<stop  offset="0.6413" style="stop-color:#4B2049"/>
		</linearGradient>
		<path class="st26" d="M90.49,90.87"/>
		<linearGradient id="SVGID_23_" gradientUnits="userSpaceOnUse" x1="89.3916" y1="84.6276" x2="89.3916" y2="84.6276">
			<stop  offset="0.1718" style="stop-color:#050D27"/>
			<stop  offset="0.2749" style="stop-color:#11132D"/>
			<stop  offset="0.4715" style="stop-color:#2F1A3C"/>
			<stop  offset="0.6413" style="stop-color:#4B2049"/>
		</linearGradient>
		<path class="st27" d="M89.39,84.63"/>
		<linearGradient id="SVGID_24_" gradientUnits="userSpaceOnUse" x1="89.1417" y1="90.1686" x2="89.1417" y2="90.1686">
			<stop  offset="0.1718" style="stop-color:#050D27"/>
			<stop  offset="0.2749" style="stop-color:#11132D"/>
			<stop  offset="0.4715" style="stop-color:#2F1A3C"/>
			<stop  offset="0.6413" style="stop-color:#4B2049"/>
		</linearGradient>
		<path class="st28" d="M89.14,90.17"/>
		<linearGradient id="SVGID_25_" gradientUnits="userSpaceOnUse" x1="88.4521" y1="84.1647" x2="88.4521" y2="84.1647">
			<stop  offset="0.1718" style="stop-color:#050D27"/>
			<stop  offset="0.2749" style="stop-color:#11132D"/>
			<stop  offset="0.4715" style="stop-color:#2F1A3C"/>
			<stop  offset="0.6413" style="stop-color:#4B2049"/>
		</linearGradient>
		<path class="st29" d="M88.45,84.16"/>
		<linearGradient id="SVGID_26_" gradientUnits="userSpaceOnUse" x1="130.5842" y1="94.4281" x2="136.6489" y2="94.4281">
			<stop  offset="0.1718" style="stop-color:#050D27"/>
			<stop  offset="0.2749" style="stop-color:#11132D"/>
			<stop  offset="0.4715" style="stop-color:#2F1A3C"/>
			<stop  offset="0.6413" style="stop-color:#4B2049"/>
		</linearGradient>
		<path class="st30" d="M130.58,93.87l3.76,0.87c0.35,0.29,2.31,0.24,2.31,0.24"/>
		<linearGradient id="SVGID_27_" gradientUnits="userSpaceOnUse" x1="115.6229" y1="103.8391" x2="132.3605" y2="103.8391">
			<stop  offset="0.1718" style="stop-color:#050D27"/>
			<stop  offset="0.2749" style="stop-color:#11132D"/>
			<stop  offset="0.4715" style="stop-color:#2F1A3C"/>
			<stop  offset="0.6413" style="stop-color:#4B2049"/>
		</linearGradient>
		<path class="st31" d="M118.67,106.09l-3.04-6.48c0.16-0.02,1.93,0.21,1.93,0.21s-0.8,0.63,1.1,0.58s1.63-0.89,3.49,0.09
			c1.85,0.98,2.98,0.91,4.18,2.34c1.2,1.44,1.49,2.11,2.51,2.43c1.01,0.32,0.71,1,1.54,1.61c0.83,0.61,2,1.2,2,1.2"/>
		<linearGradient id="SVGID_28_" gradientUnits="userSpaceOnUse" x1="108.0018" y1="97.8738" x2="108.0018" y2="97.8738">
			<stop  offset="0.1718" style="stop-color:#050D27"/>
			<stop  offset="0.2749" style="stop-color:#11132D"/>
			<stop  offset="0.4715" style="stop-color:#2F1A3C"/>
			<stop  offset="0.6413" style="stop-color:#4B2049"/>
		</linearGradient>
		<path class="st32" d="M108,97.87"/>
		<linearGradient id="SVGID_29_" gradientUnits="userSpaceOnUse" x1="111.8871" y1="94.954" x2="111.8871" y2="94.954">
			<stop  offset="0.1718" style="stop-color:#050D27"/>
			<stop  offset="0.2749" style="stop-color:#11132D"/>
			<stop  offset="0.4715" style="stop-color:#2F1A3C"/>
			<stop  offset="0.6413" style="stop-color:#4B2049"/>
		</linearGradient>
		<path class="st33" d="M111.89,94.95"/>
		<linearGradient id="SVGID_30_" gradientUnits="userSpaceOnUse" x1="115.6229" y1="99.6062" x2="115.6229" y2="99.6062">
			<stop  offset="0.1718" style="stop-color:#050D27"/>
			<stop  offset="0.2749" style="stop-color:#11132D"/>
			<stop  offset="0.4715" style="stop-color:#2F1A3C"/>
			<stop  offset="0.6413" style="stop-color:#4B2049"/>
		</linearGradient>
		<path class="st34" d="M115.62,99.61"/>
		<linearGradient id="SVGID_31_" gradientUnits="userSpaceOnUse" x1="101.2811" y1="92.9939" x2="101.2811" y2="92.9939">
			<stop  offset="0.1718" style="stop-color:#050D27"/>
			<stop  offset="0.2749" style="stop-color:#11132D"/>
			<stop  offset="0.4715" style="stop-color:#2F1A3C"/>
			<stop  offset="0.6413" style="stop-color:#4B2049"/>
		</linearGradient>
		<path class="st35" d="M101.28,92.99"/>
		<linearGradient id="SVGID_32_" gradientUnits="userSpaceOnUse" x1="108.0994" y1="92.253" x2="108.0994" y2="92.253">
			<stop  offset="0.1718" style="stop-color:#050D27"/>
			<stop  offset="0.2749" style="stop-color:#11132D"/>
			<stop  offset="0.4715" style="stop-color:#2F1A3C"/>
			<stop  offset="0.6413" style="stop-color:#4B2049"/>
		</linearGradient>
		<path class="st36" d="M108.1,92.25"/>
		<linearGradient id="SVGID_33_" gradientUnits="userSpaceOnUse" x1="122.4104" y1="91.5822" x2="122.4104" y2="91.5822">
			<stop  offset="0.1718" style="stop-color:#050D27"/>
			<stop  offset="0.2749" style="stop-color:#11132D"/>
			<stop  offset="0.4715" style="stop-color:#2F1A3C"/>
			<stop  offset="0.6413" style="stop-color:#4B2049"/>
		</linearGradient>
		<path class="st37" d="M122.41,91.58"/>
		<linearGradient id="SVGID_34_" gradientUnits="userSpaceOnUse" x1="113.2574" y1="96.6606" x2="113.2574" y2="96.6606">
			<stop  offset="0.1718" style="stop-color:#050D27"/>
			<stop  offset="0.2749" style="stop-color:#11132D"/>
			<stop  offset="0.4715" style="stop-color:#2F1A3C"/>
			<stop  offset="0.6413" style="stop-color:#4B2049"/>
		</linearGradient>
		<path class="st38" d="M113.26,96.66"/>
		<linearGradient id="SVGID_35_" gradientUnits="userSpaceOnUse" x1="125.1848" y1="101.8495" x2="125.1848" y2="101.8495">
			<stop  offset="0.1718" style="stop-color:#050D27"/>
			<stop  offset="0.2749" style="stop-color:#11132D"/>
			<stop  offset="0.4715" style="stop-color:#2F1A3C"/>
			<stop  offset="0.6413" style="stop-color:#4B2049"/>
		</linearGradient>
		<path class="st39" d="M125.18,101.85"/>
		<linearGradient id="SVGID_36_" gradientUnits="userSpaceOnUse" x1="119.3205" y1="93.2966" x2="119.3205" y2="93.2966">
			<stop  offset="0.1718" style="stop-color:#050D27"/>
			<stop  offset="0.2749" style="stop-color:#11132D"/>
			<stop  offset="0.4715" style="stop-color:#2F1A3C"/>
			<stop  offset="0.6413" style="stop-color:#4B2049"/>
		</linearGradient>
		<path class="st40" d="M119.32,93.3"/>
		<linearGradient id="SVGID_37_" gradientUnits="userSpaceOnUse" x1="87.4115" y1="86.8984" x2="87.4115" y2="86.8984">
			<stop  offset="0.1718" style="stop-color:#050D27"/>
			<stop  offset="0.2749" style="stop-color:#11132D"/>
			<stop  offset="0.4715" style="stop-color:#2F1A3C"/>
			<stop  offset="0.6413" style="stop-color:#4B2049"/>
		</linearGradient>
		<path class="st41" d="M87.41,86.9"/>
		<linearGradient id="SVGID_38_" gradientUnits="userSpaceOnUse" x1="89.4269" y1="94.4303" x2="113.4437" y2="94.4303">
			<stop  offset="0.1718" style="stop-color:#050D27"/>
			<stop  offset="0.2749" style="stop-color:#11132D"/>
			<stop  offset="0.4715" style="stop-color:#2F1A3C"/>
			<stop  offset="0.6413" style="stop-color:#4B2049"/>
		</linearGradient>
		<path class="st42" d="M102.06,99.61c-4.48-2.38-12.64-15.49-12.64-15.49l5.59,2.05c0,0,6.68,16.35,18.43,18.58"/>
		<linearGradient id="SVGID_39_" gradientUnits="userSpaceOnUse" x1="105.4888" y1="86.5437" x2="105.4888" y2="86.5437">
			<stop  offset="0.1718" style="stop-color:#050D27"/>
			<stop  offset="0.2749" style="stop-color:#11132D"/>
			<stop  offset="0.4715" style="stop-color:#2F1A3C"/>
			<stop  offset="0.6413" style="stop-color:#4B2049"/>
		</linearGradient>
		<path class="st43" d="M105.49,86.54"/>
		<linearGradient id="SVGID_40_" gradientUnits="userSpaceOnUse" x1="105.9765" y1="90.1588" x2="105.9765" y2="90.1588">
			<stop  offset="0.1718" style="stop-color:#050D27"/>
			<stop  offset="0.2749" style="stop-color:#11132D"/>
			<stop  offset="0.4715" style="stop-color:#2F1A3C"/>
			<stop  offset="0.6413" style="stop-color:#4B2049"/>
		</linearGradient>
		<path class="st44" d="M105.98,90.16"/>
		<linearGradient id="SVGID_41_" gradientUnits="userSpaceOnUse" x1="96.3247" y1="84.4459" x2="96.3247" y2="84.4459">
			<stop  offset="0.1718" style="stop-color:#050D27"/>
			<stop  offset="0.2749" style="stop-color:#11132D"/>
			<stop  offset="0.4715" style="stop-color:#2F1A3C"/>
			<stop  offset="0.6413" style="stop-color:#4B2049"/>
		</linearGradient>
		<path class="st45" d="M96.32,84.45"/>
		<linearGradient id="SVGID_42_" gradientUnits="userSpaceOnUse" x1="95.017" y1="86.1641" x2="95.017" y2="86.1641">
			<stop  offset="0.1718" style="stop-color:#050D27"/>
			<stop  offset="0.2749" style="stop-color:#11132D"/>
			<stop  offset="0.4715" style="stop-color:#2F1A3C"/>
			<stop  offset="0.6413" style="stop-color:#4B2049"/>
		</linearGradient>
		<path class="st46" d="M95.02,86.16"/>
		<linearGradient id="SVGID_43_" gradientUnits="userSpaceOnUse" x1="92.6657" y1="83.5174" x2="92.6657" y2="83.5174">
			<stop  offset="0.1718" style="stop-color:#050D27"/>
			<stop  offset="0.2749" style="stop-color:#11132D"/>
			<stop  offset="0.4715" style="stop-color:#2F1A3C"/>
			<stop  offset="0.6413" style="stop-color:#4B2049"/>
		</linearGradient>
		<path class="st47" d="M92.67,83.52"/>
		<linearGradient id="SVGID_44_" gradientUnits="userSpaceOnUse" x1="87.7797" y1="88.0161" x2="92.6657" y2="88.0161">
			<stop  offset="0.1718" style="stop-color:#050D27"/>
			<stop  offset="0.2749" style="stop-color:#11132D"/>
			<stop  offset="0.4715" style="stop-color:#2F1A3C"/>
			<stop  offset="0.6413" style="stop-color:#4B2049"/>
		</linearGradient>
		<path class="st48" d="M87.78,83.79c0,0,2.26,6.4,4.89,8.46"/>
		<linearGradient id="SVGID_45_" gradientUnits="userSpaceOnUse" x1="97.4298" y1="86.6412" x2="97.4298" y2="86.6412">
			<stop  offset="0.1718" style="stop-color:#050D27"/>
			<stop  offset="0.2749" style="stop-color:#11132D"/>
			<stop  offset="0.4715" style="stop-color:#2F1A3C"/>
			<stop  offset="0.6413" style="stop-color:#4B2049"/>
		</linearGradient>
		<path class="st49" d="M97.43,86.64"/>
		<linearGradient id="SVGID_46_" gradientUnits="userSpaceOnUse" x1="93.2984" y1="85.9196" x2="93.2984" y2="85.9196">
			<stop  offset="0.1718" style="stop-color:#050D27"/>
			<stop  offset="0.2749" style="stop-color:#11132D"/>
			<stop  offset="0.4715" style="stop-color:#2F1A3C"/>
			<stop  offset="0.6413" style="stop-color:#4B2049"/>
		</linearGradient>
		<path class="st50" d="M93.3,85.92"/>
		<linearGradient id="SVGID_47_" gradientUnits="userSpaceOnUse" x1="92.6657" y1="92.8443" x2="103.27" y2="92.8443">
			<stop  offset="0.1718" style="stop-color:#050D27"/>
			<stop  offset="0.2749" style="stop-color:#11132D"/>
			<stop  offset="0.4715" style="stop-color:#2F1A3C"/>
			<stop  offset="0.6413" style="stop-color:#4B2049"/>
		</linearGradient>
		<path class="st51" d="M92.67,85.3c0,0,4.58,10,10.6,15.08"/>
		<linearGradient id="SVGID_48_" gradientUnits="userSpaceOnUse" x1="103.2224" y1="94.1774" x2="115.6229" y2="94.1774">
			<stop  offset="0.1718" style="stop-color:#050D27"/>
			<stop  offset="0.2749" style="stop-color:#11132D"/>
			<stop  offset="0.4715" style="stop-color:#2F1A3C"/>
			<stop  offset="0.6413" style="stop-color:#4B2049"/>
		</linearGradient>
		<path class="st52" d="M103.27,88.75c0,0-1.5,4.79,12.35,10.86"/>
		<linearGradient id="SVGID_49_" gradientUnits="userSpaceOnUse" x1="120.6667" y1="104.2319" x2="128.8154" y2="104.2319">
			<stop  offset="0.1718" style="stop-color:#050D27"/>
			<stop  offset="0.2749" style="stop-color:#11132D"/>
			<stop  offset="0.4715" style="stop-color:#2F1A3C"/>
			<stop  offset="0.6413" style="stop-color:#4B2049"/>
		</linearGradient>
		<polyline class="st53" points="128.82,105.26 123.43,108.45 120.67,100.02 		"/>
		<linearGradient id="SVGID_50_" gradientUnits="userSpaceOnUse" x1="107.7681" y1="109.1724" x2="113.7961" y2="109.1724">
			<stop  offset="0.1718" style="stop-color:#050D27"/>
			<stop  offset="0.2749" style="stop-color:#11132D"/>
			<stop  offset="0.4715" style="stop-color:#2F1A3C"/>
			<stop  offset="0.6413" style="stop-color:#4B2049"/>
		</linearGradient>
		<polyline class="st54" points="107.77,105.76 113.8,110.13 110.65,112.59 		"/>
		<linearGradient id="SVGID_51_" gradientUnits="userSpaceOnUse" x1="127.4318" y1="101.0641" x2="147.8435" y2="101.0641">
			<stop  offset="0.1718" style="stop-color:#050D27"/>
			<stop  offset="0.2749" style="stop-color:#11132D"/>
			<stop  offset="0.4715" style="stop-color:#2F1A3C"/>
			<stop  offset="0.6413" style="stop-color:#4B2049"/>
		</linearGradient>
		<path class="st55" d="M127.43,104.23c0,0,8.65-0.36,20.41-6.34"/>
		<linearGradient id="SVGID_52_" gradientUnits="userSpaceOnUse" x1="122.1315" y1="96.3394" x2="151.4694" y2="96.3394">
			<stop  offset="0.1718" style="stop-color:#050D27"/>
			<stop  offset="0.2749" style="stop-color:#11132D"/>
			<stop  offset="0.4715" style="stop-color:#2F1A3C"/>
			<stop  offset="0.6413" style="stop-color:#4B2049"/>
		</linearGradient>
		<path class="st56" d="M149.28,92.08l2.19,4.74c-15.87,4.74-29.34,3.66-29.34,3.66"/>
		<linearGradient id="SVGID_53_" gradientUnits="userSpaceOnUse" x1="108.0994" y1="92.253" x2="108.0994" y2="92.253">
			<stop  offset="0.1718" style="stop-color:#050D27"/>
			<stop  offset="0.2749" style="stop-color:#11132D"/>
			<stop  offset="0.4715" style="stop-color:#2F1A3C"/>
			<stop  offset="0.6413" style="stop-color:#4B2049"/>
		</linearGradient>
		<path class="st57" d="M108.1,92.25"/>
		<linearGradient id="SVGID_54_" gradientUnits="userSpaceOnUse" x1="147.8435" y1="97.8963" x2="147.8435" y2="97.8963">
			<stop  offset="0.1718" style="stop-color:#050D27"/>
			<stop  offset="0.2749" style="stop-color:#11132D"/>
			<stop  offset="0.4715" style="stop-color:#2F1A3C"/>
			<stop  offset="0.6413" style="stop-color:#4B2049"/>
		</linearGradient>
		<path class="st58" d="M147.84,97.9"/>
		<linearGradient id="SVGID_55_" gradientUnits="userSpaceOnUse" x1="117.5479" y1="99.8195" x2="117.5479" y2="99.8195">
			<stop  offset="0.1718" style="stop-color:#050D27"/>
			<stop  offset="0.2749" style="stop-color:#11132D"/>
			<stop  offset="0.4715" style="stop-color:#2F1A3C"/>
			<stop  offset="0.6413" style="stop-color:#4B2049"/>
		</linearGradient>
		<path class="st59" d="M117.55,99.82"/>
		<linearGradient id="SVGID_56_" gradientUnits="userSpaceOnUse" x1="108.0994" y1="94.9325" x2="151.4694" y2="94.9325">
			<stop  offset="0.1718" style="stop-color:#050D27"/>
			<stop  offset="0.2749" style="stop-color:#11132D"/>
			<stop  offset="0.4715" style="stop-color:#2F1A3C"/>
			<stop  offset="0.6413" style="stop-color:#4B2049"/>
		</linearGradient>
		<path class="st60" d="M108.1,92.25c0,0,15.84,7.81,43.37,4.58l-7-1.87"/>
		<linearGradient id="SVGID_57_" gradientUnits="userSpaceOnUse" x1="106.8057" y1="90.9155" x2="116.4994" y2="90.9155">
			<stop  offset="0.1718" style="stop-color:#050D27"/>
			<stop  offset="0.2749" style="stop-color:#11132D"/>
			<stop  offset="0.4715" style="stop-color:#2F1A3C"/>
			<stop  offset="0.6413" style="stop-color:#4B2049"/>
		</linearGradient>
		<line class="st61" x1="106.81" y1="86.9" x2="116.5" y2="94.93"/>
	</g>
	<path class="st62" d="M111.91,86.35c0,0,5.98-19.85-10.6-23.65c-16.58-3.81-5.98-10.87-5.98-10.87s-4.08,8.02,6.66,4.08
		s13.18,8.02,19.17,7.48c5.98-0.54,7.61-2.85,16.58-8.56c8.97-5.71,20.93,7.2,21.07,9.92c0.14,2.72,0.95-3.53-13.46-1.63
		C130.94,65.01,111.91,86.35,111.91,86.35z"/>
</g>
<g id="가이드라인" class="st63">
	<g id="Layer_3" class="st64">
		<rect x="-6" y="-5.91" class="st65" width="266.46" height="153.07"/>
	</g>
</g>
</svg>
