<?xml version="1.0" encoding="utf-8"?>
<!-- Generator: Adobe Illustrator 24.3.0, SVG Export Plug-In . SVG Version: 6.00 Build 0)  -->
<svg version="1.1" xmlns="http://www.w3.org/2000/svg" xmlns:xlink="http://www.w3.org/1999/xlink" x="0px" y="0px"
	 viewBox="0 0 255.12 141.73" style="enable-background:new 0 0 255.12 141.73;" xml:space="preserve">
<style type="text/css">
	.st0{fill:url(#SVGID_1_);}
	.st1{display:none;}
	.st2{display:none;fill:#EEBFBF;}
	.st3{display:none;fill:#F2F2F2;}
	.st4{fill:none;}
	.st5{fill:none;stroke:#040000;stroke-width:3.8424;stroke-linecap:round;stroke-miterlimit:10;}
	.st6{fill:none;stroke:#FFFFFF;stroke-miterlimit:10;}
	.st7{fill:url(#SVGID_2_);}
	.st8{fill:none;stroke:#FBF1EF;stroke-miterlimit:10;}
	.st9{fill:none;stroke:#FBF1EF;stroke-width:0.75;stroke-miterlimit:10;}
	.st10{fill:#FBF1EF;stroke:#FBF1EF;stroke-miterlimit:10;}
	.st11{fill:#FFFFFF;}
	.st12{fill:url(#SVGID_3_);stroke:#FBF1EF;stroke-width:0.6;stroke-miterlimit:10;}
	.st13{fill:url(#SVGID_4_);stroke:#FBF1EF;stroke-width:0.6;stroke-miterlimit:10;}
	.st14{fill:url(#SVGID_5_);stroke:#FBF1EF;stroke-width:0.6;stroke-miterlimit:10;}
	.st15{fill:url(#SVGID_6_);stroke:#FBF1EF;stroke-width:0.6;stroke-miterlimit:10;}
	.st16{fill:url(#SVGID_7_);stroke:#FBF1EF;stroke-width:0.6;stroke-miterlimit:10;}
	.st17{fill:url(#SVGID_8_);stroke:#FBF1EF;stroke-width:0.6;stroke-miterlimit:10;}
	.st18{fill:url(#SVGID_9_);stroke:#FBF1EF;stroke-width:0.6;stroke-miterlimit:10;}
	.st19{fill:url(#SVGID_10_);stroke:#FBF1EF;stroke-width:0.6;stroke-miterlimit:10;}
	.st20{fill:url(#SVGID_11_);stroke:#FBF1EF;stroke-width:0.6;stroke-miterlimit:10;}
	.st21{fill:url(#SVGID_12_);stroke:#FBF1EF;stroke-width:0.6;stroke-miterlimit:10;}
	.st22{fill:url(#SVGID_13_);stroke:#FBF1EF;stroke-width:0.6;stroke-miterlimit:10;}
	.st23{fill:url(#SVGID_14_);stroke:#FBF1EF;stroke-width:0.6;stroke-miterlimit:10;}
	.st24{fill:url(#SVGID_15_);stroke:#FBF1EF;stroke-width:0.6;stroke-miterlimit:10;}
	.st25{fill:url(#SVGID_16_);stroke:#FBF1EF;stroke-width:0.6;stroke-miterlimit:10;}
	.st26{fill:url(#SVGID_17_);stroke:#FBF1EF;stroke-width:0.6;stroke-miterlimit:10;}
	.st27{fill:url(#SVGID_18_);stroke:#FBF1EF;stroke-width:0.6;stroke-miterlimit:10;}
	.st28{fill:url(#SVGID_19_);stroke:#FBF1EF;stroke-width:0.6;stroke-miterlimit:10;}
	.st29{fill:url(#SVGID_20_);stroke:#FBF1EF;stroke-width:0.6;stroke-miterlimit:10;}
	.st30{fill:url(#SVGID_21_);stroke:#FBF1EF;stroke-width:0.6;stroke-miterlimit:10;}
	.st31{fill:url(#SVGID_22_);stroke:#FBF1EF;stroke-width:0.6;stroke-miterlimit:10;}
	.st32{fill:url(#SVGID_23_);stroke:#FBF1EF;stroke-width:0.6;stroke-miterlimit:10;}
	.st33{fill:url(#SVGID_24_);stroke:#FBF1EF;stroke-width:0.6;stroke-miterlimit:10;}
	.st34{fill:url(#SVGID_25_);stroke:#FBF1EF;stroke-width:0.6;stroke-miterlimit:10;}
	.st35{fill:url(#SVGID_26_);stroke:#FBF1EF;stroke-width:0.6;stroke-miterlimit:10;}
	.st36{fill:url(#SVGID_27_);stroke:#FBF1EF;stroke-width:0.6;stroke-miterlimit:10;}
	.st37{fill:url(#SVGID_28_);stroke:#FBF1EF;stroke-width:0.6;stroke-miterlimit:10;}
	.st38{fill:url(#SVGID_29_);stroke:#FBF1EF;stroke-width:0.6;stroke-miterlimit:10;}
	.st39{fill:url(#SVGID_30_);stroke:#FBF1EF;stroke-width:0.6;stroke-miterlimit:10;}
	.st40{fill:url(#SVGID_31_);stroke:#FBF1EF;stroke-width:0.6;stroke-miterlimit:10;}
	.st41{fill:url(#SVGID_32_);stroke:#FBF1EF;stroke-width:0.6;stroke-miterlimit:10;}
	.st42{fill:url(#SVGID_33_);stroke:#FBF1EF;stroke-width:0.6;stroke-miterlimit:10;}
	.st43{fill:url(#SVGID_34_);stroke:#FBF1EF;stroke-width:0.6;stroke-miterlimit:10;}
	.st44{fill:url(#SVGID_35_);stroke:#FBF1EF;stroke-width:0.6;stroke-miterlimit:10;}
	.st45{fill:url(#SVGID_36_);stroke:#FBF1EF;stroke-width:0.6;stroke-miterlimit:10;}
	.st46{fill:url(#SVGID_37_);stroke:#FBF1EF;stroke-width:0.6;stroke-miterlimit:10;}
	.st47{fill:url(#SVGID_38_);stroke:#FBF1EF;stroke-width:0.6;stroke-miterlimit:10;}
	.st48{fill:url(#SVGID_39_);stroke:#FBF1EF;stroke-width:0.6;stroke-miterlimit:10;}
	.st49{fill:url(#SVGID_40_);stroke:#FBF1EF;stroke-width:0.6;stroke-miterlimit:10;}
	.st50{fill:url(#SVGID_41_);stroke:#FBF1EF;stroke-width:0.6;stroke-miterlimit:10;}
	.st51{fill:url(#SVGID_42_);stroke:#FBF1EF;stroke-width:0.6;stroke-miterlimit:10;}
	.st52{fill:url(#SVGID_43_);stroke:#FBF1EF;stroke-width:0.6;stroke-miterlimit:10;}
	.st53{fill:url(#SVGID_44_);stroke:#FBF1EF;stroke-width:0.6;stroke-miterlimit:10;}
	.st54{fill:url(#SVGID_45_);stroke:#FBF1EF;stroke-width:0.6;stroke-miterlimit:10;}
	.st55{fill:url(#SVGID_46_);stroke:#FBF1EF;stroke-width:0.6;stroke-miterlimit:10;}
	.st56{fill:url(#SVGID_47_);stroke:#FBF1EF;stroke-width:0.6;stroke-miterlimit:10;}
	.st57{fill:url(#SVGID_48_);stroke:#FBF1EF;stroke-width:0.6;stroke-miterlimit:10;}
	.st58{fill:url(#SVGID_49_);stroke:#FBF1EF;stroke-width:0.6;stroke-miterlimit:10;}
	.st59{fill:url(#SVGID_50_);stroke:#FBF1EF;stroke-width:0.6;stroke-miterlimit:10;}
	.st60{fill:url(#SVGID_51_);stroke:#FBF1EF;stroke-width:0.6;stroke-miterlimit:10;}
	.st61{fill:url(#SVGID_52_);stroke:#FBF1EF;stroke-width:0.6;stroke-miterlimit:10;}
	.st62{fill:url(#SVGID_53_);stroke:#FBF1EF;stroke-width:0.6;stroke-miterlimit:10;}
	.st63{fill:url(#SVGID_54_);stroke:#FBF1EF;stroke-width:0.6;stroke-miterlimit:10;}
	.st64{fill:url(#SVGID_55_);stroke:#FBF1EF;stroke-width:0.6;stroke-miterlimit:10;}
	.st65{fill:url(#SVGID_56_);stroke:#FBF1EF;stroke-width:0.6;stroke-miterlimit:10;}
	.st66{fill:url(#SVGID_57_);stroke:#FBF1EF;stroke-width:0.6;stroke-miterlimit:10;}
	.st67{fill:url(#SVGID_58_);stroke:#FBF1EF;stroke-width:0.6;stroke-miterlimit:10;}
	.st68{fill:#050D27;stroke:#FBF1EF;stroke-width:0.75;stroke-miterlimit:10;}
	.st69{fill:url(#SVGID_59_);}
	.st70{fill:#F4EFEE;stroke:#FBF1EF;stroke-miterlimit:10;}
	.st71{fill:url(#SVGID_62_);}
	.st72{fill:none;stroke:#FFFFFF;stroke-width:0.75;stroke-miterlimit:10;}
	.st73{clip-path:url(#SVGID_64_);fill:url(#SVGID_65_);}
	.st74{clip-path:url(#SVGID_64_);}
	.st75{clip-path:url(#SVGID_64_);fill:url(#SVGID_66_);}
	.st76{clip-path:url(#SVGID_64_);fill:url(#SVGID_69_);}
	.st77{clip-path:url(#SVGID_64_);fill:url(#SVGID_70_);}
	.st78{fill:url(#SVGID_71_);stroke:#FBF1EF;stroke-width:0.75;stroke-miterlimit:10;}
	.st79{fill:url(#SVGID_72_);stroke:#FBF1EF;stroke-width:0.75;stroke-miterlimit:10;}
	.st80{fill:url(#SVGID_73_);stroke:#FBF1EF;stroke-width:0.75;stroke-miterlimit:10;}
	.st81{fill:url(#SVGID_74_);stroke:#FBF1EF;stroke-width:0.75;stroke-miterlimit:10;}
	.st82{fill:url(#SVGID_75_);stroke:#FBF1EF;stroke-width:0.75;stroke-miterlimit:10;}
	.st83{fill:url(#SVGID_76_);stroke:#FBF1EF;stroke-width:0.75;stroke-miterlimit:10;}
	.st84{fill:url(#SVGID_77_);stroke:#FBF1EF;stroke-width:0.75;stroke-miterlimit:10;}
	.st85{fill:url(#SVGID_78_);stroke:#FBF1EF;stroke-width:0.75;stroke-miterlimit:10;}
	.st86{fill:url(#SVGID_79_);stroke:#FBF1EF;stroke-width:0.75;stroke-miterlimit:10;}
	.st87{fill:url(#SVGID_80_);stroke:#FBF1EF;stroke-width:0.75;stroke-miterlimit:10;}
	.st88{fill:url(#SVGID_81_);stroke:#FBF1EF;stroke-width:0.75;stroke-miterlimit:10;}
	.st89{fill:url(#SVGID_82_);stroke:#FBF1EF;stroke-width:0.75;stroke-miterlimit:10;}
	.st90{fill:url(#SVGID_83_);stroke:#FBF1EF;stroke-width:0.75;stroke-miterlimit:10;}
	.st91{fill:url(#SVGID_84_);stroke:#FBF1EF;stroke-width:0.75;stroke-miterlimit:10;}
	.st92{fill:url(#SVGID_85_);stroke:#FBF1EF;stroke-width:0.75;stroke-miterlimit:10;}
	.st93{fill:url(#SVGID_86_);stroke:#FBF1EF;stroke-width:0.75;stroke-miterlimit:10;}
	.st94{fill:url(#SVGID_87_);stroke:#FBF1EF;stroke-width:0.75;stroke-miterlimit:10;}
	.st95{fill:url(#SVGID_88_);stroke:#FBF1EF;stroke-width:0.75;stroke-miterlimit:10;}
	.st96{fill:url(#SVGID_89_);stroke:#FBF1EF;stroke-width:0.75;stroke-miterlimit:10;}
	.st97{fill:url(#SVGID_90_);stroke:#FBF1EF;stroke-width:0.75;stroke-miterlimit:10;}
	.st98{fill:url(#SVGID_91_);stroke:#FBF1EF;stroke-width:0.75;stroke-miterlimit:10;}
	.st99{fill:url(#SVGID_92_);stroke:#FBF1EF;stroke-width:0.75;stroke-miterlimit:10;}
	.st100{fill:url(#SVGID_93_);stroke:#FBF1EF;stroke-width:0.75;stroke-miterlimit:10;}
	.st101{fill:url(#SVGID_94_);stroke:#FBF1EF;stroke-width:0.75;stroke-miterlimit:10;}
	.st102{fill:url(#SVGID_95_);stroke:#FBF1EF;stroke-width:0.75;stroke-miterlimit:10;}
	.st103{fill:url(#SVGID_96_);stroke:#FBF1EF;stroke-width:0.75;stroke-miterlimit:10;}
	.st104{fill:url(#SVGID_97_);stroke:#FBF1EF;stroke-width:0.75;stroke-miterlimit:10;}
	.st105{fill:url(#SVGID_98_);stroke:#FBF1EF;stroke-width:0.75;stroke-miterlimit:10;}
	.st106{fill:url(#SVGID_99_);stroke:#FBF1EF;stroke-width:0.75;stroke-miterlimit:10;}
	.st107{fill:url(#SVGID_100_);stroke:#FBF1EF;stroke-width:0.75;stroke-miterlimit:10;}
	.st108{fill:url(#SVGID_101_);stroke:#FBF1EF;stroke-width:0.75;stroke-miterlimit:10;}
	.st109{fill:url(#SVGID_102_);stroke:#FBF1EF;stroke-width:0.75;stroke-miterlimit:10;}
	.st110{fill:url(#SVGID_103_);stroke:#FBF1EF;stroke-width:0.75;stroke-miterlimit:10;}
	.st111{fill:url(#SVGID_104_);stroke:#FBF1EF;stroke-width:0.75;stroke-miterlimit:10;}
	.st112{fill:url(#SVGID_105_);stroke:#FBF1EF;stroke-width:0.75;stroke-miterlimit:10;}
	.st113{fill:url(#SVGID_106_);stroke:#FBF1EF;stroke-width:0.75;stroke-miterlimit:10;}
	.st114{fill:url(#SVGID_107_);stroke:#FBF1EF;stroke-width:0.75;stroke-miterlimit:10;}
	.st115{fill:url(#SVGID_108_);stroke:#FBF1EF;stroke-width:0.75;stroke-miterlimit:10;}
	.st116{fill:url(#SVGID_109_);stroke:#FBF1EF;stroke-width:0.75;stroke-miterlimit:10;}
	.st117{fill:url(#SVGID_110_);stroke:#FBF1EF;stroke-width:0.75;stroke-miterlimit:10;}
	.st118{fill:url(#SVGID_111_);stroke:#FBF1EF;stroke-width:0.75;stroke-miterlimit:10;}
	.st119{fill:url(#SVGID_112_);stroke:#FBF1EF;stroke-width:0.75;stroke-miterlimit:10;}
	.st120{fill:url(#SVGID_113_);stroke:#FBF1EF;stroke-width:0.75;stroke-miterlimit:10;}
	.st121{fill:url(#SVGID_114_);stroke:#FBF1EF;stroke-width:0.75;stroke-miterlimit:10;}
	.st122{fill:url(#SVGID_115_);stroke:#FBF1EF;stroke-width:0.75;stroke-miterlimit:10;}
	.st123{fill:url(#SVGID_116_);stroke:#FBF1EF;stroke-width:0.75;stroke-miterlimit:10;}
	.st124{fill:url(#SVGID_117_);stroke:#FBF1EF;stroke-width:0.75;stroke-miterlimit:10;}
	.st125{fill:url(#SVGID_118_);stroke:#FBF1EF;stroke-width:0.75;stroke-miterlimit:10;}
	.st126{fill:url(#SVGID_119_);stroke:#FBF1EF;stroke-width:0.75;stroke-miterlimit:10;}
	.st127{fill:url(#SVGID_120_);stroke:#FBF1EF;stroke-width:0.75;stroke-miterlimit:10;}
	.st128{fill:url(#SVGID_121_);stroke:#FBF1EF;stroke-width:0.75;stroke-miterlimit:10;}
	.st129{fill:url(#SVGID_122_);stroke:#FBF1EF;stroke-width:0.75;stroke-miterlimit:10;}
	.st130{fill:url(#SVGID_123_);stroke:#FBF1EF;stroke-width:0.75;stroke-miterlimit:10;}
	.st131{fill:url(#SVGID_124_);stroke:#FBF1EF;stroke-width:0.75;stroke-miterlimit:10;}
	.st132{fill:url(#SVGID_125_);stroke:#FBF1EF;stroke-width:0.75;stroke-miterlimit:10;}
	.st133{fill:url(#SVGID_126_);stroke:#FBF1EF;stroke-width:0.75;stroke-miterlimit:10;}
	.st134{clip-path:url(#SVGID_64_);fill:url(#SVGID_127_);}
	.st135{clip-path:url(#SVGID_64_);fill:url(#SVGID_128_);stroke:#FBF1EF;stroke-width:0.75;stroke-miterlimit:10;}
	.st136{clip-path:url(#SVGID_64_);fill:#F4EFEE;stroke:#FBF1EF;stroke-miterlimit:10;}
	.st137{display:inline;fill:none;stroke:#E61A15;stroke-miterlimit:10;}
	.st138{display:inline;}
	.st139{fill:none;stroke:#E61A15;stroke-miterlimit:10;}
</style>
<g id="Layer_1">
	<linearGradient id="SVGID_1_" gradientUnits="userSpaceOnUse" x1="48.6091" y1="129.3885" x2="266.0665" y2="-29.4511">
		<stop  offset="0" style="stop-color:#050D27"/>
		<stop  offset="0.1796" style="stop-color:#11132D"/>
		<stop  offset="0.5223" style="stop-color:#2F1A3C"/>
		<stop  offset="0.8183" style="stop-color:#4B2049"/>
	</linearGradient>
	<rect x="-7.87" y="-5.66" class="st0" width="269.29" height="155.91"/>
	<rect x="-7.57" y="-7.09" class="st2" width="269.29" height="155.91"/>
	
		<rect x="-12.88" y="90.7" transform="matrix(0.7071 -0.7071 0.7071 0.7071 -100.8713 49.3883)" class="st2" width="44.12" height="111.51"/>
	<rect x="-8.1" y="-8.61" class="st2" width="269.65" height="157.43"/>
	<path class="st8" d="M76.76,110.85c-0.76,6.77-6.86,11.65-13.64,10.89c-6.77-0.76-11.65-6.86-10.89-13.64
		c0.76-6.77,6.86-11.65,13.64-10.89C72.64,97.98,77.51,104.08,76.76,110.85z"/>
	<g>
		<path class="st11" d="M114.4,38.87c0.07,0.03,0.15,0.04,0.22,0.05c0.56,0.08,1.11-0.24,1.3-0.79c0.22-0.62-0.11-1.3-0.73-1.52
			c-1.79-0.62-3.16-1.87-3.85-3.52c-0.58-1.38-0.58-2.85-0.01-4.05c1.22-2.57,5-3.33,8.42-1.7c0.59,0.28,1.31,0.03,1.59-0.56
			c0.28-0.59,0.03-1.31-0.56-1.59c-2.18-1.04-4.57-1.35-6.72-0.86c-2.25,0.51-3.99,1.82-4.88,3.69c-0.86,1.8-0.87,3.99-0.04,5.99
			C110.07,36.27,111.99,38.03,114.4,38.87z"/>
		<path class="st11" d="M158.43,37.56c-1.83-0.19-3.8,1.14-5.13,2.29c-1.17,1.01-2.38,2.35-3.41,3.8l0.12-0.63
			c0.12-0.65-0.31-1.27-0.95-1.39c-0.65-0.12-1.27,0.31-1.39,0.95l-0.77,4.14l0,0.02c-0.07,0.43-0.31,1.45-0.97,1.56
			c-0.45,0.07-1.14-0.26-1.55-1.02c-0.79-1.47,0.23-7.02,2.12-9.69c0.38-0.54,0.25-1.28-0.28-1.66c-0.54-0.38-1.28-0.26-1.66,0.28
			c-0.51,0.72-0.99,1.64-1.41,2.69c-0.72-1.62-2.13-2.72-3.89-2.98c-2.89-0.43-5.63,1.55-6.15,5.12c-0.16,1.08-0.09,2.14,0.16,3.09
			c-1.23,1.22-2.65,1.88-4.02,1.87c-1.13-0.02-2.15-0.49-2.95-1.36c-0.56-0.61-0.83-1.66-0.76-2.97c0.02-0.36,0.06-0.73,0.13-1.1
			l3.62,0.53c0.65,0.1,1.26-0.35,1.35-1.01c0.1-0.65-0.35-1.26-1.01-1.35l-3.25-0.48c0.54-1.23,1.29-2.33,2.15-3.1
			c0.49-0.44,0.54-1.19,0.1-1.68c-0.44-0.49-1.19-0.54-1.68-0.1c-0.79,0.7-1.5,1.6-2.09,2.61c-0.35,0.61-0.66,1.25-0.91,1.92
			l-3.09-0.46c-0.13-0.02-0.26-0.02-0.38,0.01c-0.09-0.38-0.21-0.76-0.37-1.14c-0.82-2.05-2.43-3.84-4.53-5.04
			c-0.57-0.33-1.3-0.13-1.63,0.44c-0.33,0.57-0.13,1.3,0.44,1.63c3.28,1.89,4.8,5.43,3.39,7.89c-1.42,2.47-5.24,2.94-8.53,1.06
			c-0.57-0.33-1.3-0.13-1.63,0.44c-0.33,0.57-0.13,1.3,0.44,1.63c1.23,0.71,2.55,1.17,3.87,1.36c0.93,0.14,1.87,0.14,2.77,0.01
			c2.29-0.34,4.11-1.51,5.14-3.31c0.46-0.8,0.73-1.68,0.82-2.6l2.65,0.39c-0.01,0.06-0.02,0.12-0.03,0.18
			c-0.06,0.38-0.1,0.76-0.12,1.14c-0.07,1.23,0.1,2.33,0.47,3.25c0.23,0.55,0.53,1.04,0.91,1.45c1.04,1.14,2.38,1.85,3.83,2.07
			c0.28,0.04,0.56,0.06,0.84,0.07c1.78,0.02,3.56-0.68,5.12-2c0.77,1.01,1.82,1.71,3.06,1.89c1.63,0.24,3.22-0.46,4.39-1.76
			c0.07,0.69,0.22,1.35,0.51,1.88c0.66,1.24,1.83,2.07,3.04,2.25c0.33,0.05,0.67,0.05,1-0.01c0.25-0.04,0.62-0.14,1.02-0.36
			c0.14,0.42,0.5,0.74,0.96,0.81c0.04,0.01,0.08,0.01,0.12,0.01c0.66,0.03,1.21-0.48,1.24-1.14c0.09-2.15,2.48-5.96,5.21-8.32
			c1.58-1.36,2.75-1.78,3.32-1.72c0.65,0.07,1.24-0.41,1.31-1.06C159.56,38.21,159.08,37.63,158.43,37.56z M137.72,45.93
			c-1.56-0.23-2.6-2.3-2.27-4.53c0.16-1.1,0.62-1.98,1.32-2.54c0.61-0.49,1.34-0.68,2.13-0.57c1.69,0.25,2.62,1.84,2.31,3.96
			C140.88,44.47,139.28,46.16,137.72,45.93z"/>
	</g>
	<circle class="st9" cx="125.49" cy="80.97" r="39.41"/>
	<g>
		<path class="st70" d="M101.93,97.38c0,0-0.42,0.77,0.3,2.64c0.72,1.87,0.16-0.71,0.93,1.12c0.77,1.83,1.1,2.63,1.1,2.63l0.21,1.79
			c0,0,2.12,3.94,1.58,2.42c-0.54-1.52-0.19-0.41,0.62,1.6c0.81,2.01,1.05,1.55,1.05,1.55s1.38,2.59,2.98,0.09
			c-0.93-3.08-2.84-10.24-1.85-11.08c2.62,0.78,0.98,0.95,5.22,1.34c2.26,2,2.32,0.69,4.76,2.36c2.44,1.67,2.1,1.28,2.1,1.28
			s3.24,0.5,5.37,1.99c2.85-1.05,3.3-1.54,3.3-1.54s-1.34-2.23-1.83-2.11c-0.49,0.13,9.92-3.17,15.48-10.18
			c3.51-0.98,12.17-3.13,12.84-8.64c-2.7,1.11-4.45,0.97-4.45,0.97s-1.05-0.34-6.95,1.86c-2.04-2.66-2.21,0.33-5.82-4.69
			c-1.45,4.44,1.01,7.56,1.01,7.56s-3.43,2.28-7.82,0.03c0,0,0.11-0.95-0.29-1.92c-0.4-0.97-3.12,1.23-5.77,0.81
			c-2.65-0.42-19.28-5.82-25.1-7.33c-2.1-1.86-5.37-1.99-7.53-1.89c-2.16,0.1-6.02-2.19-8.53-0.54c-1.64-1.04-2.5,0.29-2.5,0.29
			l-0.2,0.82c0,0,0.25,0.91,0.89,2.07c-1.24,0.58,0.25,2.22,0.25,2.22l2.62,1.36c0,0,2.38,1.17,6.1,4.58
			C95.71,94.26,100.83,97.22,101.93,97.38z"/>
		<path class="st70" d="M90.05,81.52c3.73,0.37,8.91,2.55,11.32,4.04c0.69,2.19,2.12,2.09,2.12,2.09"/>
		<path class="st70" d="M113.06,101.38c0,0-6.36-6.65-11.73-9.29c-5.37-2.64-5.34-5.54-5.34-5.54l-0.87-3.83"/>
		<path class="st70" d="M125.98,89.26l3.76,0.87c0.35,0.29,2.31,0.24,2.31,0.24"/>
		<path class="st70" d="M114.06,101.48L111.02,95c0.16-0.02,1.93,0.21,1.93,0.21s-0.8,0.63,1.1,0.58c1.89-0.05,1.63-0.89,3.49,0.09
			c1.85,0.98,2.98,0.91,4.18,2.34c1.2,1.44,1.49,2.11,2.51,2.43c1.01,0.32,0.71,1,1.54,1.61c0.83,0.61,2,1.2,2,1.2"/>
		<path class="st70" d="M97.46,95c-4.48-2.38-12.64-15.49-12.64-15.49l5.59,2.05c0,0,6.68,16.35,18.43,18.58"/>
		<path class="st70" d="M83.17,79.18c0,0,2.26,6.4,4.89,8.46"/>
		<path class="st70" d="M88.06,80.7c0,0,4.58,10,10.6,15.08"/>
		<path class="st70" d="M98.66,84.14c0,0-1.5,4.79,12.35,10.86"/>
		<polyline class="st70" points="124.21,100.65 118.82,103.84 116.06,95.41 		"/>
		<polyline class="st70" points="103.16,101.15 109.19,105.53 106.05,107.98 		"/>
		<path class="st70" d="M122.83,99.63c0,0,8.65-0.36,20.41-6.34"/>
		<path class="st70" d="M144.67,87.48l2.19,4.74c-15.87,4.74-29.34,3.66-29.34,3.66"/>
		<path class="st70" d="M103.49,87.65c0,0,15.84,7.81,43.37,4.58l-7-1.87"/>
		<line class="st70" x1="102.2" y1="82.29" x2="111.89" y2="90.33"/>
	</g>
	<path class="st10" d="M163.41,100.14c0,1.92-1.56,3.48-3.48,3.48c-1.92,0-3.48-1.56-3.48-3.48s1.56-3.48,3.48-3.48
		C161.85,96.66,163.41,98.22,163.41,100.14z"/>
	<path class="st10" d="M156.69,108.45c0,1.23-0.99,2.22-2.22,2.22c-1.23,0-2.22-0.99-2.22-2.22s0.99-2.22,2.22-2.22
		C155.7,106.23,156.69,107.22,156.69,108.45z"/>
	<polygon class="st70" points="100.64,50.98 102.28,52.77 104.64,52.43 103.5,54.56 104.58,56.75 102.23,56.27 100.54,57.97 
		100.23,55.54 98.1,54.4 100.26,53.38 	"/>
	<polygon class="st70" points="148.75,60.11 147.97,61.2 148.43,62.46 147.15,62.06 146.1,62.88 146.09,61.54 144.98,60.8 
		146.25,60.37 146.61,59.08 147.41,60.16 	"/>
	<polygon class="st70" points="108.96,64.61 109.47,65.18 110.21,65.07 109.86,65.73 110.19,66.42 109.46,66.27 108.93,66.8 
		108.83,66.04 108.17,65.69 108.84,65.37 	"/>
	<polygon class="st70" points="118.36,80.88 118.26,81.64 118.86,82.18 118.08,82.3 117.77,83 117.38,82.31 116.6,82.21 
		117.13,81.66 116.96,80.89 117.68,81.25 	"/>
	<polygon class="st70" points="68.21,18.9 70.76,21.69 74.43,21.15 72.65,24.45 74.33,27.85 70.69,27.1 68.06,29.74 67.58,25.98 
		64.28,24.21 67.63,22.63 	"/>
	<polygon class="st70" points="174.42,50.82 172.97,53.01 173.95,55.44 171.43,54.74 169.42,56.42 169.3,53.8 167.08,52.41 
		169.54,51.49 170.17,48.95 171.8,51 	"/>
	<polygon class="st70" points="112.91,74.94 112.74,76.15 113.64,76.97 112.44,77.19 111.93,78.3 111.36,77.22 110.14,77.09 
		110.99,76.21 110.74,75.01 111.84,75.54 	"/>
	<polygon class="st70" points="86.72,37.1 90.42,37.83 93.06,35.23 93.59,38.94 96.95,40.68 93.57,42.24 93.02,45.92 90.4,43.18 
		86.7,43.71 88.46,40.45 	"/>
	<polygon class="st70" points="126.37,69.13 127.29,70.14 128.62,69.95 127.98,71.14 128.58,72.38 127.26,72.11 126.31,73.06 
		126.14,71.7 124.94,71.06 126.15,70.48 	"/>
	<polygon class="st70" points="161.35,54.83 159.22,57.31 160.06,60.47 157.05,59.21 154.3,60.98 154.56,57.73 152.03,55.66 
		155.21,54.91 156.39,51.86 158.09,54.65 	"/>
	<polygon class="st70" points="121.76,76.43 121.18,77.12 121.43,77.97 120.59,77.66 119.84,78.16 119.9,77.28 119.19,76.74 
		120.07,76.51 120.38,75.67 120.86,76.41 	"/>
	<polygon class="st70" points="134.76,64.91 134.23,65.65 134.54,66.5 133.68,66.23 132.96,66.79 132.95,65.88 132.19,65.37 
		133.06,65.08 133.31,64.21 133.85,64.94 	"/>
	<polygon class="st70" points="202.07,43.2 199.39,47.25 201.21,51.75 196.53,50.45 192.81,53.57 192.6,48.72 188.48,46.15 
		193.03,44.45 194.21,39.74 197.23,43.54 	"/>
	
		<ellipse transform="matrix(0.0955 -0.9954 0.9954 0.0955 80.6552 257.0963)" class="st8" cx="181.8" cy="84.16" rx="7.49" ry="7.49"/>
</g>
<g id="가이드라인" class="st1">
	<g id="Layer_3" class="st138">
	</g>
</g>
</svg>
